<?xml version="1.0" standalone="no"?>
<!DOCTYPE svg PUBLIC "-//W3C//DTD SVG 1.1//EN" "http://www.w3.org/Graphics/SVG/1.1/DTD/svg11.dtd" >
<svg xmlns="http://www.w3.org/2000/svg" xmlns:xlink="http://www.w3.org/1999/xlink" version="1.1">
<metadata>
Created by FontForge 20170910 at Mon Jul 24 15:10:42 2017
 By Jimmy Wärting
Copyright 2017 The Exo Project Authors (https://github.com/NDISCOVER/Exo-1.0)
</metadata>
<defs>
<font id="Exo-SemiBold" horiz-adv-x="0" >
  <font-face 
    font-family="Exo SemiBold"
    font-weight="600"
    font-stretch="normal"
    units-per-em="1000"
    panose-1="0 0 7 0 0 0 0 0 0 0"
    ascent="800"
    descent="-200"
    x-height="536"
    cap-height="738"
    bbox="-521 -270 1342 1114"
    underline-thickness="50"
    underline-position="-100"
    unicode-range="U+000D-FB04"
  />
<missing-glyph horiz-adv-x="656" 
d="M602 542v-548h-548v548h548zM542 482h-429v-429h429v429zM328 215l-114 -115l-53 53l115 114l-115 115l53 52l114 -114l115 114l52 -52l-114 -115l114 -114l-52 -53z" />
    <glyph glyph-name="f_f" unicode="ff" horiz-adv-x="782" 
d="M627.5 649q-14.5 -19 -14.5 -62v-51h147v-100h-147v-436h-124v436h-273v-436h-124v436h-78v80l78 20v62q0 93 37 132t121 39q76 0 126 -16v-89q-46 4 -85 4q-43 0 -59 -20.5t-16 -66.5v-45h273v45q0 98 39 143t131 45q54 0 108 -13v-88h-85q-40 0 -54.5 -19z" />
    <glyph glyph-name="f_f_i" unicode="ffi" horiz-adv-x="1033" 
d="M969 0h-124v436h-238v-436h-124v436h-267v-436h-124v436h-78v80l78 20v62q0 93 37 132t121 39q76 0 126 -16v-89q-46 4 -85 4q-43 0 -59 -20.5t-16 -66.5v-45h267v62q0 93 37 132t121 39q76 0 126 -16v-89q-46 4 -85 4q-43 0 -59 -20.5t-16 -66.5v-45h362v-536z
M968.5 744.5q4.5 -5.5 4.5 -14.5v-91q0 -18 -18 -18h-94q-8 0 -13.5 5t-5.5 13v91q0 9 5 14.5t14 5.5h94q9 0 13.5 -5.5z" />
    <glyph glyph-name="f_f_l" unicode="ffl" horiz-adv-x="1088" 
d="M1077 89v-89h-73q-81 0 -120 41.5t-39 132.5v491q-68 3 -133 3q-59 0 -82 -20.5t-23 -66.5v-45h147v-100h-147v-436h-124v436h-267v-436h-124v436h-78v80l78 20v62q0 93 37 132t121 39q76 0 126 -16v-89q-46 4 -85 4q-43 0 -59 -20.5t-16 -66.5v-45h267v51q0 99 50 140.5
t161 41.5q139 0 275 -25v-552q0 -51 15 -71.5t48 -25.5z" />
    <glyph glyph-name="fi" unicode="fi" horiz-adv-x="642" 
d="M578 0h-124v436h-238v-436h-124v436h-78v80l78 20v62q0 93 37 132t121 39q76 0 126 -16v-89q-46 4 -85 4q-43 0 -59 -20.5t-16 -66.5v-45h362v-536zM577.5 744.5q4.5 -5.5 4.5 -14.5v-91q0 -18 -18 -18h-94q-8 0 -13.5 5t-5.5 13v91q0 9 5 14.5t14 5.5h94q9 0 13.5 -5.5z
" />
    <glyph glyph-name="fl" unicode="fl" horiz-adv-x="697" 
d="M686 89v-89h-73q-81 0 -120 41.5t-39 132.5v491q-67 3 -133 3q-59 0 -82 -20.5t-23 -66.5v-45h147v-100h-147v-436h-124v436h-78v80l78 20v51q0 99 50 140.5t161 41.5q139 0 275 -25v-552q0 -51 15 -71.5t48 -25.5z" />
    <glyph glyph-name=".notdef" horiz-adv-x="656" 
d="M602 542v-548h-548v548h548zM542 482h-429v-429h429v429zM328 215l-114 -115l-53 53l115 114l-115 115l53 52l114 -114l115 114l52 -52l-114 -115l114 -114l-52 -53z" />
    <glyph glyph-name="NULL" 
 />
    <glyph glyph-name="nonmarkingreturn" unicode="&#xd;" horiz-adv-x="262" 
 />
    <glyph glyph-name="space" unicode=" " horiz-adv-x="262" 
 />
    <glyph glyph-name="A" unicode="A" horiz-adv-x="681" 
d="M263 738h156l240 -738h-129l-57 175h-267l-56 -175h-127zM443 286l-104 346l-104 -346h208z" />
    <glyph glyph-name="Aacute" unicode="&#xc1;" horiz-adv-x="681" 
d="M263 738h156l240 -738h-129l-57 175h-267l-56 -175h-127zM443 286l-104 346l-104 -346h208zM397 930h102l-119 -139h-72z" />
    <glyph glyph-name="Abreve" unicode="&#x102;" horiz-adv-x="681" 
d="M263 738h156l240 -738h-129l-57 175h-267l-56 -175h-127zM443 286l-104 346l-104 -346h208zM232.5 821q-36.5 36 -36.5 112h58q0 -47 22 -69t56 -22q79 2 79 91h59q0 -76 -36.5 -112t-101.5 -36q-63 0 -99.5 36z" />
    <glyph glyph-name="uni1EAE" unicode="&#x1eae;" horiz-adv-x="681" 
d="M263 738h156l240 -738h-129l-57 175h-267l-56 -175h-127zM443 286l-104 346l-104 -346h208zM383 1048h102l-119 -139h-72zM275 841q21 -16 54 -16q82 0 82 66h59q0 -60 -36.5 -88.5t-101.5 -28.5q-64 0 -100 28.5t-36 88.5h58q0 -34 21 -50z" />
    <glyph glyph-name="uni1EB6" unicode="&#x1eb6;" horiz-adv-x="681" 
d="M263 738h156l240 -738h-129l-57 175h-267l-56 -175h-127zM443 286l-104 346l-104 -346h208zM232.5 821q-36.5 36 -36.5 112h58q0 -47 22 -69t56 -22q79 2 79 91h59q0 -76 -36.5 -112t-101.5 -36q-63 0 -99.5 36zM296.5 -215q-5.5 5 -5.5 14v90q0 20 19 20h57q9 0 14 -5.5
t5 -14.5v-90q0 -19 -19 -19h-57q-8 0 -13.5 5z" />
    <glyph glyph-name="uni1EB0" unicode="&#x1eb0;" horiz-adv-x="681" 
d="M263 738h156l240 -738h-129l-57 175h-267l-56 -175h-127zM443 286l-104 346l-104 -346h208zM188 1048h101l90 -139h-73zM275 841q21 -16 54 -16q82 0 82 66h59q0 -60 -36.5 -88.5t-101.5 -28.5q-64 0 -100 28.5t-36 88.5h58q0 -34 21 -50z" />
    <glyph glyph-name="uni1EB2" unicode="&#x1eb2;" horiz-adv-x="681" 
d="M263 738h156l240 -738h-129l-57 175h-267l-56 -175h-127zM443 286l-104 346l-104 -346h208zM312 921q46 14 46 47q0 34 -38 34q-12 0 -34 -6v49q24 8 50 8q43 0 65.5 -21.5t22.5 -59.5t-27 -64t-85 -42v55zM232 802.5q-36 28.5 -36 88.5h58q0 -34 21 -50t54 -16
q82 0 82 66h59q0 -60 -36.5 -88.5t-101.5 -28.5q-64 0 -100 28.5z" />
    <glyph glyph-name="uni1EB4" unicode="&#x1eb4;" horiz-adv-x="681" 
d="M263 738h156l240 -738h-129l-57 175h-267l-56 -175h-127zM443 286l-104 346l-104 -346h208zM291 1018q15 -4 27 -8.5t15 -5.5q14 -6 28.5 -10.5t26.5 -4.5q20 0 31.5 9.5t11.5 27.5h63q-4 -53 -24.5 -75t-61.5 -22q-17 0 -34 4.5t-39 13.5q-36 15 -54 15q-19 0 -31 -9.5
t-13 -25.5h-62q3 54 26 74.5t59 20.5q16 0 31 -4zM275 841q21 -16 54 -16q82 0 82 66h59q0 -60 -36.5 -88.5t-101.5 -28.5q-64 0 -100 28.5t-36 88.5h58q0 -34 21 -50z" />
    <glyph glyph-name="Acircumflex" unicode="&#xc2;" horiz-adv-x="681" 
d="M263 738h156l240 -738h-129l-57 175h-267l-56 -175h-127zM443 286l-104 346l-104 -346h208zM300 930h85l103 -139h-73l-75 83l-80 -83h-73z" />
    <glyph glyph-name="uni1EA4" unicode="&#x1ea4;" horiz-adv-x="681" 
d="M263 738h156l240 -738h-129l-57 175h-267l-56 -175h-127zM443 286l-104 346l-104 -346h208zM591 1000l-89 -127h-73l61 127h101zM384 896l103 -105h-72l-75 49l-81 -49h-73l113 105h85z" />
    <glyph glyph-name="uni1EAC" unicode="&#x1eac;" horiz-adv-x="681" 
d="M263 738h156l240 -738h-129l-57 175h-267l-56 -175h-127zM443 286l-104 346l-104 -346h208zM300 930h85l103 -139h-73l-75 83l-80 -83h-73zM296.5 -215q-5.5 5 -5.5 14v90q0 20 19 20h57q9 0 14 -5.5t5 -14.5v-90q0 -19 -19 -19h-57q-8 0 -13.5 5z" />
    <glyph glyph-name="uni1EA6" unicode="&#x1ea6;" horiz-adv-x="681" 
d="M263 738h156l240 -738h-129l-57 175h-267l-56 -175h-127zM443 286l-104 346l-104 -346h208zM189 1000l61 -127h-73l-89 127h101zM384 896l103 -105h-72l-75 49l-81 -49h-73l113 105h85z" />
    <glyph glyph-name="uni1EA8" unicode="&#x1ea8;" horiz-adv-x="681" 
d="M263 738h156l240 -738h-129l-57 175h-267l-56 -175h-127zM443 286l-104 346l-104 -346h208zM453 900q38 12 38 39q0 14 -7 21t-24 7q-18 0 -33 -6v44q20 7 49 7q37 0 55.5 -17t18.5 -49q0 -74 -97 -101v55zM299 896h85l103 -105h-72l-75 49l-81 -49h-73z" />
    <glyph glyph-name="uni1EAA" unicode="&#x1eaa;" horiz-adv-x="681" 
d="M263 738h156l240 -738h-129l-57 175h-267l-56 -175h-127zM443 286l-104 346l-104 -346h208zM333 1015q36 -15 55 -15q20 0 31.5 10t11.5 28h63q-4 -54 -24.5 -76t-61.5 -22q-18 0 -33.5 4.5t-42.5 13.5q-39 15 -57 15q-17 0 -27 -9t-11 -25h-62q3 54 25.5 74t59.5 20
q29 0 73 -18zM487 791h-72l-75 49l-81 -49h-73l113 105h85z" />
    <glyph glyph-name="uni0200" unicode="&#x200;" horiz-adv-x="681" 
d="M263 738h156l240 -738h-129l-57 175h-267l-56 -175h-127zM443 286l-104 346l-104 -346h208zM117 930h101l90 -139h-73zM284 930h101l90 -139h-73z" />
    <glyph glyph-name="Adieresis" unicode="&#xc4;" horiz-adv-x="681" 
d="M263 738h156l240 -738h-129l-57 175h-267l-56 -175h-127zM443 286l-104 346l-104 -346h208zM179.5 808q-5.5 5 -5.5 14v90q0 9 5 14.5t14 5.5h58q9 0 13.5 -5.5t4.5 -14.5v-90q0 -19 -18 -19h-58q-8 0 -13.5 5zM400.5 808q-5.5 5 -5.5 14v90q0 20 19 20h57q9 0 14 -5.5
t5 -14.5v-90q0 -19 -19 -19h-57q-8 0 -13.5 5z" />
    <glyph glyph-name="uni1EA0" unicode="&#x1ea0;" horiz-adv-x="681" 
d="M263 738h156l240 -738h-129l-57 175h-267l-56 -175h-127zM443 286l-104 346l-104 -346h208zM296.5 -215q-5.5 5 -5.5 14v90q0 20 19 20h57q9 0 14 -5.5t5 -14.5v-90q0 -19 -19 -19h-57q-8 0 -13.5 5z" />
    <glyph glyph-name="Agrave" unicode="&#xc0;" horiz-adv-x="681" 
d="M263 738h156l240 -738h-129l-57 175h-267l-56 -175h-127zM443 286l-104 346l-104 -346h208zM198 930h101l90 -139h-73z" />
    <glyph glyph-name="uni1EA2" unicode="&#x1ea2;" horiz-adv-x="681" 
d="M263 738h156l240 -738h-129l-57 175h-267l-56 -175h-127zM443 286l-104 346l-104 -346h208zM312 824q46 14 46 47q0 34 -38 34q-12 0 -34 -6v49q24 8 50 8q43 0 65.5 -21.5t22.5 -59.5t-27 -64t-85 -42v55z" />
    <glyph glyph-name="uni0202" unicode="&#x202;" horiz-adv-x="681" 
d="M263 738h156l240 -738h-129l-57 175h-267l-56 -175h-127zM443 286l-104 346l-104 -346h208zM438.5 899q36.5 -36 36.5 -112h-58q0 47 -22 69t-56 22q-79 -2 -79 -91h-59q0 76 36.5 112t101.5 36q63 0 99.5 -36z" />
    <glyph glyph-name="Amacron" unicode="&#x100;" horiz-adv-x="681" 
d="M263 738h156l240 -738h-129l-57 175h-267l-56 -175h-127zM443 286l-104 346l-104 -346h208zM196 889h275v-73h-275v73z" />
    <glyph glyph-name="Aogonek" unicode="&#x104;" horiz-adv-x="681" 
d="M263 738h156l240 -738h-129l-57 175h-267l-56 -175h-127zM443 286l-104 346l-104 -346h208zM487 -164q-27 26 -27 64q0 32 17.5 58t51.5 42h46q-54 -32 -54 -72q0 -26 18 -41t49 -15h8v-59q-10 -3 -30 -3q-52 0 -79 26z" />
    <glyph glyph-name="Aring" unicode="&#xc5;" horiz-adv-x="681" 
d="M263 738h156l240 -738h-129l-57 175h-267l-56 -175h-127zM443 286l-104 346l-104 -346h208zM249.5 791.5q-29.5 25.5 -29.5 85.5t29.5 86t89.5 26t89 -25.5t29 -86.5q0 -60 -28.5 -85.5t-89.5 -25.5q-60 0 -89.5 25.5zM385 827q14 14 14 50t-14 50.5t-46 14.5
t-46.5 -14.5t-14.5 -50.5t14.5 -50t46.5 -14t46 14z" />
    <glyph glyph-name="Aringacute" unicode="&#x1fa;" horiz-adv-x="681" 
d="M249.5 791.5q-29.5 25.5 -29.5 85.5q0 54 24 80t72 31l81 126h102l-111 -130q35 -9 52 -34.5t17 -72.5q0 -60 -28.5 -85.5t-89.5 -25.5q-60 0 -89.5 25.5zM292.5 927.5q-14.5 -14.5 -14.5 -50.5t14.5 -50t46.5 -14t46 14t14 50t-14 50.5t-46 14.5t-46.5 -14.5zM659 0
h-129l-57 175h-267l-56 -175h-127l240 738h156zM443 286l-104 346l-104 -346h208z" />
    <glyph glyph-name="Atilde" unicode="&#xc3;" horiz-adv-x="681" 
d="M263 738h156l240 -738h-129l-57 175h-267l-56 -175h-127zM443 286l-104 346l-104 -346h208zM188.5 888q28.5 29 70.5 29q24 0 42.5 -7t44.5 -22q21 -12 34 -17.5t28 -5.5q22 0 35 14.5t14 41.5h63q-2 -61 -28.5 -93t-72.5 -32q-23 0 -43 7.5t-45 21.5q-22 12 -35.5 17.5
t-27.5 5.5q-21 0 -34.5 -14t-14.5 -39h-62q3 64 31.5 93z" />
    <glyph glyph-name="AE" unicode="&#xc6;" horiz-adv-x="975" 
d="M520 22q-40 27 -46 93l-1 59h-224l-104 -174h-122l320 567q49 93 113.5 132t168.5 39q131 0 300 -11v-103h-275q-35 0 -50 -14.5t-15 -44.5v-142l295 -7v-97l-295 -7v-127q0 -43 21.5 -58.5t61.5 -15.5h257v-102q-170 -14 -285 -14q-80 0 -120 27zM473 279v302l-168 -302
h168z" />
    <glyph glyph-name="AEacute" unicode="&#x1fc;" horiz-adv-x="975" 
d="M520 22q-40 27 -46 93l-1 59h-224l-104 -174h-122l320 567q49 93 113.5 132t168.5 39q131 0 300 -11v-103h-275q-35 0 -50 -14.5t-15 -44.5v-142l295 -7v-97l-295 -7v-127q0 -43 21.5 -58.5t61.5 -15.5h257v-102q-170 -14 -285 -14q-80 0 -120 27zM473 279v302l-168 -302
h168zM590 930h102l-119 -139h-72z" />
    <glyph glyph-name="B" unicode="B" horiz-adv-x="619" 
d="M69 738h282q204 0 204 -192q0 -65 -28.5 -107.5t-75.5 -54.5q53 -13 90.5 -57.5t37.5 -122.5q0 -110 -54 -157t-162 -47h-294v738zM353 426q38 0 61 28t23 75q0 98 -87 98h-158v-201h161zM359 111q50 0 76 26.5t26 87.5q0 49 -28.5 77t-73.5 28h-167v-219h167z" />
    <glyph glyph-name="uni1E02" unicode="&#x1e02;" horiz-adv-x="619" 
d="M69 738h282q204 0 204 -192q0 -65 -28.5 -107.5t-75.5 -54.5q53 -13 90.5 -57.5t37.5 -122.5q0 -110 -54 -157t-162 -47h-294v738zM353 426q38 0 61 28t23 75q0 98 -87 98h-158v-201h161zM359 111q50 0 76 26.5t26 87.5q0 49 -28.5 77t-73.5 28h-167v-219h167zM249.5 815
q-5.5 5 -5.5 14v90q0 20 19 20h57q9 0 14 -5.5t5 -14.5v-90q0 -19 -19 -19h-57q-8 0 -13.5 5z" />
    <glyph glyph-name="C" unicode="C" horiz-adv-x="584" 
d="M165 23.5q-56 29.5 -85.5 111.5t-29.5 237q0 147 30 228.5t88 113t150 31.5q60 0 120.5 -9.5t103.5 -22.5v-95q-30 6 -85.5 11t-113.5 5q-66 0 -101.5 -20.5t-51.5 -76.5t-16 -167t15 -167t50 -77t103 -21q114 0 200 11v-95q-91 -27 -227 -27q-94 0 -150 29.5z" />
    <glyph glyph-name="Cacute" unicode="&#x106;" horiz-adv-x="584" 
d="M165 23.5q-56 29.5 -85.5 111.5t-29.5 237q0 147 30 228.5t88 113t150 31.5q60 0 120.5 -9.5t103.5 -22.5v-95q-30 6 -85.5 11t-113.5 5q-66 0 -101.5 -20.5t-51.5 -76.5t-16 -167t15 -167t50 -77t103 -21q114 0 200 11v-95q-91 -27 -227 -27q-94 0 -150 29.5zM376 930
h102l-119 -139h-72z" />
    <glyph glyph-name="Ccaron" unicode="&#x10c;" horiz-adv-x="584" 
d="M165 23.5q-56 29.5 -85.5 111.5t-29.5 237q0 147 30 228.5t88 113t150 31.5q60 0 120.5 -9.5t103.5 -22.5v-95q-30 6 -85.5 11t-113.5 5q-66 0 -101.5 -20.5t-51.5 -76.5t-16 -167t15 -167t50 -77t103 -21q114 0 200 11v-95q-91 -27 -227 -27q-94 0 -150 29.5zM171 930
h72l75 -83l81 83h73l-113 -139h-86z" />
    <glyph glyph-name="Ccedilla" unicode="&#xc7;" horiz-adv-x="584" 
d="M241.5 613.5q-35.5 -20.5 -51.5 -76.5t-16 -167t15 -167t50 -77t103 -21q114 0 200 11v-95q-69 -22 -172 -26l-31 -48q32 -2 50.5 -18.5t18.5 -46.5q0 -37 -26 -57t-77 -20h-42v51l19 2q46 6 46 39q0 15 -11.5 25.5t-41.5 13.5l38 58q-93 1 -149 30.5t-85 111.5t-29 236
q0 147 30 228.5t88 113t150 31.5q60 0 120.5 -9.5t103.5 -22.5v-95q-30 6 -85.5 11t-113.5 5q-66 0 -101.5 -20.5z" />
    <glyph glyph-name="uni1E08" unicode="&#x1e08;" horiz-adv-x="584" 
d="M359 791h-72l89 139h102zM241.5 613.5q-35.5 -20.5 -51.5 -76.5t-16 -167t15 -167t50 -77t103 -21q114 0 200 11v-95q-69 -22 -172 -26l-31 -48q32 -2 50.5 -18.5t18.5 -46.5q0 -37 -26 -57t-77 -20h-42v51l19 2q46 6 46 39q0 15 -11.5 25.5t-41.5 13.5l38 58
q-93 1 -149 30.5t-85 111.5t-29 236q0 147 30 228.5t88 113t150 31.5q60 0 120.5 -9.5t103.5 -22.5v-95q-30 6 -85.5 11t-113.5 5q-66 0 -101.5 -20.5z" />
    <glyph glyph-name="Ccircumflex" unicode="&#x108;" horiz-adv-x="584" 
d="M165 23.5q-56 29.5 -85.5 111.5t-29.5 237q0 147 30 228.5t88 113t150 31.5q60 0 120.5 -9.5t103.5 -22.5v-95q-30 6 -85.5 11t-113.5 5q-66 0 -101.5 -20.5t-51.5 -76.5t-16 -167t15 -167t50 -77t103 -21q114 0 200 11v-95q-91 -27 -227 -27q-94 0 -150 29.5zM279 930
h85l103 -139h-73l-75 83l-80 -83h-73z" />
    <glyph glyph-name="Cdotaccent" unicode="&#x10a;" horiz-adv-x="584" 
d="M165 23.5q-56 29.5 -85.5 111.5t-29.5 237q0 147 30 228.5t88 113t150 31.5q60 0 120.5 -9.5t103.5 -22.5v-95q-30 6 -85.5 11t-113.5 5q-66 0 -101.5 -20.5t-51.5 -76.5t-16 -167t15 -167t50 -77t103 -21q114 0 200 11v-95q-91 -27 -227 -27q-94 0 -150 29.5zM273.5 815
q-5.5 5 -5.5 14v90q0 20 19 20h57q9 0 14 -5.5t5 -14.5v-90q0 -19 -19 -19h-57q-8 0 -13.5 5z" />
    <glyph glyph-name="D" unicode="D" horiz-adv-x="676" 
d="M69 738h305q137 0 194.5 -94t57.5 -275q0 -183 -63 -276t-189 -93h-305v738zM362 111q73 0 107 65.5t34 192.5q0 100 -15 156t-45.5 79t-80.5 23h-170v-516h170z" />
    <glyph glyph-name="Eth" unicode="&#xd0;" horiz-adv-x="676" 
d="M568.5 644q57.5 -94 57.5 -275q0 -183 -63 -276t-189 -93h-305v332h-56v82h56v324h305q137 0 194.5 -94zM469 176.5q34 65.5 34 192.5q0 100 -15 156t-45.5 79t-80.5 23h-170v-213h137v-82h-137v-221h170q73 0 107 65.5z" />
    <glyph glyph-name="Dcaron" unicode="&#x10e;" horiz-adv-x="676" 
d="M69 738h305q137 0 194.5 -94t57.5 -275q0 -183 -63 -276t-189 -93h-305v738zM362 111q73 0 107 65.5t34 192.5q0 100 -15 156t-45.5 79t-80.5 23h-170v-516h170zM177 930h72l75 -83l81 83h73l-113 -139h-86z" />
    <glyph glyph-name="Dcroat" unicode="&#x110;" horiz-adv-x="676" 
d="M568.5 644q57.5 -94 57.5 -275q0 -183 -63 -276t-189 -93h-305v332h-56v82h56v324h305q137 0 194.5 -94zM469 176.5q34 65.5 34 192.5q0 100 -15 156t-45.5 79t-80.5 23h-170v-213h137v-82h-137v-221h170q73 0 107 65.5z" />
    <glyph glyph-name="uni1E0A" unicode="&#x1e0a;" horiz-adv-x="676" 
d="M69 738h305q137 0 194.5 -94t57.5 -275q0 -183 -63 -276t-189 -93h-305v738zM362 111q73 0 107 65.5t34 192.5q0 100 -15 156t-45.5 79t-80.5 23h-170v-516h170zM279.5 815q-5.5 5 -5.5 14v90q0 20 19 20h57q9 0 14 -5.5t5 -14.5v-90q0 -19 -19 -19h-57q-8 0 -13.5 5z
" />
    <glyph glyph-name="uni1E0C" unicode="&#x1e0c;" horiz-adv-x="676" 
d="M69 738h305q137 0 194.5 -94t57.5 -275q0 -183 -63 -276t-189 -93h-305v738zM362 111q73 0 107 65.5t34 192.5q0 100 -15 156t-45.5 79t-80.5 23h-170v-516h170zM255.5 -215q-5.5 5 -5.5 14v90q0 20 19 20h57q9 0 14 -5.5t5 -14.5v-90q0 -19 -19 -19h-57q-8 0 -13.5 5z
" />
    <glyph glyph-name="uni1E0E" unicode="&#x1e0e;" horiz-adv-x="676" 
d="M69 738h305q137 0 194.5 -94t57.5 -275q0 -183 -63 -276t-189 -93h-305v738zM362 111q73 0 107 65.5t34 192.5q0 100 -15 156t-45.5 79t-80.5 23h-170v-516h170zM161 -131h275v-73h-275v73z" />
    <glyph glyph-name="E" unicode="E" horiz-adv-x="594" 
d="M119.5 26q-50.5 31 -50.5 125v426q0 85 46 123t111 38q94 0 162 -3t156 -8v-103h-279q-35 0 -54 -17.5t-19 -52.5v-131l307 -7v-97l-307 -7v-127q0 -74 72 -74h280v-103q-126 -11 -304 -13q-70 0 -120.5 31z" />
    <glyph glyph-name="Eacute" unicode="&#xc9;" horiz-adv-x="594" 
d="M119.5 26q-50.5 31 -50.5 125v426q0 85 46 123t111 38q94 0 162 -3t156 -8v-103h-279q-35 0 -54 -17.5t-19 -52.5v-131l307 -7v-97l-307 -7v-127q0 -74 72 -74h280v-103q-126 -11 -304 -13q-70 0 -120.5 31zM370 930h102l-119 -139h-72z" />
    <glyph glyph-name="Ebreve" unicode="&#x114;" horiz-adv-x="594" 
d="M119.5 26q-50.5 31 -50.5 125v426q0 85 46 123t111 38q94 0 162 -3t156 -8v-103h-279q-35 0 -54 -17.5t-19 -52.5v-131l307 -7v-97l-307 -7v-127q0 -74 72 -74h280v-103q-126 -11 -304 -13q-70 0 -120.5 31zM205.5 821q-36.5 36 -36.5 112h58q0 -47 22 -69t56 -22
q79 2 79 91h59q0 -76 -36.5 -112t-101.5 -36q-63 0 -99.5 36z" />
    <glyph glyph-name="Ecaron" unicode="&#x11a;" horiz-adv-x="594" 
d="M119.5 26q-50.5 31 -50.5 125v426q0 85 46 123t111 38q94 0 162 -3t156 -8v-103h-279q-35 0 -54 -17.5t-19 -52.5v-131l307 -7v-97l-307 -7v-127q0 -74 72 -74h280v-103q-126 -11 -304 -13q-70 0 -120.5 31zM165 930h72l75 -83l81 83h73l-113 -139h-86z" />
    <glyph glyph-name="uni1E1C" unicode="&#x1e1c;" horiz-adv-x="594" 
d="M205.5 821q-36.5 36 -36.5 112h58q0 -47 22 -69t56 -22q79 2 79 91h59q0 -76 -36.5 -112t-101.5 -36q-63 0 -99.5 36zM211 606.5q-19 -17.5 -19 -52.5v-131l307 -7v-97l-307 -7v-127q0 -74 72 -74h280v-103q-71 -7 -181 -10l-32 -51q32 -2 50.5 -18.5t18.5 -46.5
q0 -37 -26 -57t-77 -20h-42v51l19 2q46 6 46 39q0 15 -11.5 25.5t-41.5 13.5l39 60l-66 -1q-70 0 -120.5 31t-50.5 125v426q0 85 46 123t111 38q94 0 162 -3t156 -8v-103h-279q-35 0 -54 -17.5z" />
    <glyph glyph-name="Ecircumflex" unicode="&#xca;" horiz-adv-x="594" 
d="M119.5 26q-50.5 31 -50.5 125v426q0 85 46 123t111 38q94 0 162 -3t156 -8v-103h-279q-35 0 -54 -17.5t-19 -52.5v-131l307 -7v-97l-307 -7v-127q0 -74 72 -74h280v-103q-126 -11 -304 -13q-70 0 -120.5 31zM273 930h85l103 -139h-73l-75 83l-80 -83h-73z" />
    <glyph glyph-name="uni1EBE" unicode="&#x1ebe;" horiz-adv-x="594" 
d="M119.5 26q-50.5 31 -50.5 125v426q0 85 46 123t111 38q94 0 162 -3t156 -8v-103h-279q-35 0 -54 -17.5t-19 -52.5v-131l307 -7v-97l-307 -7v-127q0 -74 72 -74h280v-103q-126 -11 -304 -13q-70 0 -120.5 31zM564 1000l-89 -127h-73l61 127h101zM357 896l103 -105h-72
l-75 49l-81 -49h-73l113 105h85z" />
    <glyph glyph-name="uni1EC6" unicode="&#x1ec6;" horiz-adv-x="594" 
d="M119.5 26q-50.5 31 -50.5 125v426q0 85 46 123t111 38q94 0 162 -3t156 -8v-103h-279q-35 0 -54 -17.5t-19 -52.5v-131l307 -7v-97l-307 -7v-127q0 -74 72 -74h280v-103q-126 -11 -304 -13q-70 0 -120.5 31zM273 930h85l103 -139h-73l-75 83l-80 -83h-73zM285.5 -215
q-5.5 5 -5.5 14v90q0 20 19 20h57q9 0 14 -5.5t5 -14.5v-90q0 -19 -19 -19h-57q-8 0 -13.5 5z" />
    <glyph glyph-name="uni1EC0" unicode="&#x1ec0;" horiz-adv-x="594" 
d="M119.5 26q-50.5 31 -50.5 125v426q0 85 46 123t111 38q94 0 162 -3t156 -8v-103h-279q-35 0 -54 -17.5t-19 -52.5v-131l307 -7v-97l-307 -7v-127q0 -74 72 -74h280v-103q-126 -11 -304 -13q-70 0 -120.5 31zM162 1000l61 -127h-73l-89 127h101zM357 896l103 -105h-72
l-75 49l-81 -49h-73l113 105h85z" />
    <glyph glyph-name="uni1EC2" unicode="&#x1ec2;" horiz-adv-x="594" 
d="M119.5 26q-50.5 31 -50.5 125v426q0 85 46 123t111 38q94 0 162 -3t156 -8v-103h-279q-35 0 -54 -17.5t-19 -52.5v-131l307 -7v-97l-307 -7v-127q0 -74 72 -74h280v-103q-126 -11 -304 -13q-70 0 -120.5 31zM426 900q38 12 38 39q0 14 -7 21t-24 7q-18 0 -33 -6v44
q20 7 49 7q37 0 55.5 -17t18.5 -49q0 -74 -97 -101v55zM272 896h85l103 -105h-72l-75 49l-81 -49h-73z" />
    <glyph glyph-name="uni1EC4" unicode="&#x1ec4;" horiz-adv-x="594" 
d="M119.5 26q-50.5 31 -50.5 125v426q0 85 46 123t111 38q94 0 162 -3t156 -8v-103h-279q-35 0 -54 -17.5t-19 -52.5v-131l307 -7v-97l-307 -7v-127q0 -74 72 -74h280v-103q-126 -11 -304 -13q-70 0 -120.5 31zM306 1015q36 -15 55 -15q20 0 31.5 10t11.5 28h63
q-4 -54 -24.5 -76t-61.5 -22q-18 0 -33.5 4.5t-42.5 13.5q-39 15 -57 15q-17 0 -27 -9t-11 -25h-62q3 54 25.5 74t59.5 20q29 0 73 -18zM460 791h-72l-75 49l-81 -49h-73l113 105h85z" />
    <glyph glyph-name="uni0204" unicode="&#x204;" horiz-adv-x="594" 
d="M119.5 26q-50.5 31 -50.5 125v426q0 85 46 123t111 38q94 0 162 -3t156 -8v-103h-279q-35 0 -54 -17.5t-19 -52.5v-131l307 -7v-97l-307 -7v-127q0 -74 72 -74h280v-103q-126 -11 -304 -13q-70 0 -120.5 31zM90 930h101l90 -139h-73zM257 930h101l90 -139h-73z" />
    <glyph glyph-name="Edieresis" unicode="&#xcb;" horiz-adv-x="594" 
d="M119.5 26q-50.5 31 -50.5 125v426q0 85 46 123t111 38q94 0 162 -3t156 -8v-103h-279q-35 0 -54 -17.5t-19 -52.5v-131l307 -7v-97l-307 -7v-127q0 -74 72 -74h280v-103q-126 -11 -304 -13q-70 0 -120.5 31zM152.5 808q-5.5 5 -5.5 14v90q0 9 5 14.5t14 5.5h58
q9 0 13.5 -5.5t4.5 -14.5v-90q0 -19 -18 -19h-58q-8 0 -13.5 5zM373.5 808q-5.5 5 -5.5 14v90q0 20 19 20h57q9 0 14 -5.5t5 -14.5v-90q0 -19 -19 -19h-57q-8 0 -13.5 5z" />
    <glyph glyph-name="Edotaccent" unicode="&#x116;" horiz-adv-x="594" 
d="M119.5 26q-50.5 31 -50.5 125v426q0 85 46 123t111 38q94 0 162 -3t156 -8v-103h-279q-35 0 -54 -17.5t-19 -52.5v-131l307 -7v-97l-307 -7v-127q0 -74 72 -74h280v-103q-126 -11 -304 -13q-70 0 -120.5 31zM267.5 815q-5.5 5 -5.5 14v90q0 20 19 20h57q9 0 14 -5.5
t5 -14.5v-90q0 -19 -19 -19h-57q-8 0 -13.5 5z" />
    <glyph glyph-name="uni1EB8" unicode="&#x1eb8;" horiz-adv-x="594" 
d="M119.5 26q-50.5 31 -50.5 125v426q0 85 46 123t111 38q94 0 162 -3t156 -8v-103h-279q-35 0 -54 -17.5t-19 -52.5v-131l307 -7v-97l-307 -7v-127q0 -74 72 -74h280v-103q-126 -11 -304 -13q-70 0 -120.5 31zM285.5 -215q-5.5 5 -5.5 14v90q0 20 19 20h57q9 0 14 -5.5
t5 -14.5v-90q0 -19 -19 -19h-57q-8 0 -13.5 5z" />
    <glyph glyph-name="Egrave" unicode="&#xc8;" horiz-adv-x="594" 
d="M119.5 26q-50.5 31 -50.5 125v426q0 85 46 123t111 38q94 0 162 -3t156 -8v-103h-279q-35 0 -54 -17.5t-19 -52.5v-131l307 -7v-97l-307 -7v-127q0 -74 72 -74h280v-103q-126 -11 -304 -13q-70 0 -120.5 31zM171 930h101l90 -139h-73z" />
    <glyph glyph-name="uni1EBA" unicode="&#x1eba;" horiz-adv-x="594" 
d="M119.5 26q-50.5 31 -50.5 125v426q0 85 46 123t111 38q94 0 162 -3t156 -8v-103h-279q-35 0 -54 -17.5t-19 -52.5v-131l307 -7v-97l-307 -7v-127q0 -74 72 -74h280v-103q-126 -11 -304 -13q-70 0 -120.5 31zM285 824q46 14 46 47q0 34 -38 34q-12 0 -34 -6v49q24 8 50 8
q43 0 65.5 -21.5t22.5 -59.5t-27 -64t-85 -42v55z" />
    <glyph glyph-name="uni0206" unicode="&#x206;" horiz-adv-x="594" 
d="M119.5 26q-50.5 31 -50.5 125v426q0 85 46 123t111 38q94 0 162 -3t156 -8v-103h-279q-35 0 -54 -17.5t-19 -52.5v-131l307 -7v-97l-307 -7v-127q0 -74 72 -74h280v-103q-126 -11 -304 -13q-70 0 -120.5 31zM411.5 899q36.5 -36 36.5 -112h-58q0 47 -22 69t-56 22
q-79 -2 -79 -91h-59q0 76 36.5 112t101.5 36q63 0 99.5 -36z" />
    <glyph glyph-name="Emacron" unicode="&#x112;" horiz-adv-x="594" 
d="M119.5 26q-50.5 31 -50.5 125v426q0 85 46 123t111 38q94 0 162 -3t156 -8v-103h-279q-35 0 -54 -17.5t-19 -52.5v-131l307 -7v-97l-307 -7v-127q0 -74 72 -74h280v-103q-126 -11 -304 -13q-70 0 -120.5 31zM169 889h275v-73h-275v73z" />
    <glyph glyph-name="uni1E16" unicode="&#x1e16;" horiz-adv-x="594" 
d="M119.5 26q-50.5 31 -50.5 125v426q0 85 46 123t111 38q94 0 162 -3t156 -8v-103h-279q-35 0 -54 -17.5t-19 -52.5v-131l307 -7v-97l-307 -7v-127q0 -74 72 -74h280v-103q-126 -11 -304 -13q-70 0 -120.5 31zM169 889h275v-73h-275v73zM363 1068h102l-119 -139h-72z" />
    <glyph glyph-name="uni1E14" unicode="&#x1e14;" horiz-adv-x="594" 
d="M119.5 26q-50.5 31 -50.5 125v426q0 85 46 123t111 38q94 0 162 -3t156 -8v-103h-279q-35 0 -54 -17.5t-19 -52.5v-131l307 -7v-97l-307 -7v-127q0 -74 72 -74h280v-103q-126 -11 -304 -13q-70 0 -120.5 31zM169 889h275v-73h-275v73zM154 1068h101l90 -139h-73z" />
    <glyph glyph-name="Eogonek" unicode="&#x118;" horiz-adv-x="594" 
d="M566 -120v-59q-11 -3 -30 -3q-52 0 -79 26t-27 64q0 30 15.5 55t45.5 41q-117 -7 -251 -9q-70 0 -120.5 31t-50.5 125v426q0 85 46 123t111 38q94 0 162 -3t156 -8v-103h-279q-35 0 -54 -17.5t-19 -52.5v-131l307 -7v-97l-307 -7v-127q0 -74 72 -74h280v-103h1
q-54 -32 -54 -72q0 -26 18 -41t49 -15h8z" />
    <glyph glyph-name="uni1EBC" unicode="&#x1ebc;" horiz-adv-x="594" 
d="M119.5 26q-50.5 31 -50.5 125v426q0 85 46 123t111 38q94 0 162 -3t156 -8v-103h-279q-35 0 -54 -17.5t-19 -52.5v-131l307 -7v-97l-307 -7v-127q0 -74 72 -74h280v-103q-126 -11 -304 -13q-70 0 -120.5 31zM161.5 888q28.5 29 70.5 29q24 0 42.5 -7t44.5 -22
q21 -12 34 -17.5t28 -5.5q22 0 35 14.5t14 41.5h63q-2 -61 -28.5 -93t-72.5 -32q-23 0 -43 7.5t-45 21.5q-22 12 -35.5 17.5t-27.5 5.5q-21 0 -34.5 -14t-14.5 -39h-62q3 64 31.5 93z" />
    <glyph glyph-name="F" unicode="F" horiz-adv-x="577" 
d="M69 577q0 85 46 123t111 38q197 0 318 -11v-103h-282q-33 0 -51.5 -18t-18.5 -51v-149l307 -7v-97l-307 -7v-295h-123v577z" />
    <glyph glyph-name="uni1E1E" unicode="&#x1e1e;" horiz-adv-x="577" 
d="M69 577q0 85 46 123t111 38q197 0 318 -11v-103h-282q-33 0 -51.5 -18t-18.5 -51v-149l307 -7v-97l-307 -7v-295h-123v577zM267.5 815q-5.5 5 -5.5 14v90q0 20 19 20h57q9 0 14 -5.5t5 -14.5v-90q0 -19 -19 -19h-57q-8 0 -13.5 5z" />
    <glyph glyph-name="G" unicode="G" horiz-adv-x="661" 
d="M139.5 38q-50.5 43 -70 124.5t-19.5 207.5q0 129 22.5 209.5t80 123t162.5 42.5q122 0 245 -30v-95q-37 5 -99.5 9.5t-124.5 4.5q-67 0 -101.5 -25t-47.5 -81t-13 -159q0 -105 13 -160.5t43.5 -77.5t88.5 -22q41 0 82 8t73 19v170h-149v96q30 4 77 7t92 3q60 0 99 -3
v-409h-93l-17 51q-39 -22 -93 -39t-111 -17q-89 0 -139.5 43z" />
    <glyph glyph-name="Gbreve" unicode="&#x11e;" horiz-adv-x="661" 
d="M139.5 38q-50.5 43 -70 124.5t-19.5 207.5q0 129 22.5 209.5t80 123t162.5 42.5q122 0 245 -30v-95q-37 5 -99.5 9.5t-124.5 4.5q-67 0 -101.5 -25t-47.5 -81t-13 -159q0 -105 13 -160.5t43.5 -77.5t88.5 -22q41 0 82 8t73 19v170h-149v96q30 4 77 7t92 3q60 0 99 -3
v-409h-93l-17 51q-39 -22 -93 -39t-111 -17q-89 0 -139.5 43zM219.5 821q-36.5 36 -36.5 112h58q0 -47 22 -69t56 -22q79 2 79 91h59q0 -76 -36.5 -112t-101.5 -36q-63 0 -99.5 36z" />
    <glyph glyph-name="Gcaron" unicode="&#x1e6;" horiz-adv-x="661" 
d="M139.5 38q-50.5 43 -70 124.5t-19.5 207.5q0 129 22.5 209.5t80 123t162.5 42.5q122 0 245 -30v-95q-37 5 -99.5 9.5t-124.5 4.5q-67 0 -101.5 -25t-47.5 -81t-13 -159q0 -105 13 -160.5t43.5 -77.5t88.5 -22q41 0 82 8t73 19v170h-149v96q30 4 77 7t92 3q60 0 99 -3
v-409h-93l-17 51q-39 -22 -93 -39t-111 -17q-89 0 -139.5 43zM179 930h72l75 -83l81 83h73l-113 -139h-86z" />
    <glyph glyph-name="Gcircumflex" unicode="&#x11c;" horiz-adv-x="661" 
d="M139.5 38q-50.5 43 -70 124.5t-19.5 207.5q0 129 22.5 209.5t80 123t162.5 42.5q122 0 245 -30v-95q-37 5 -99.5 9.5t-124.5 4.5q-67 0 -101.5 -25t-47.5 -81t-13 -159q0 -105 13 -160.5t43.5 -77.5t88.5 -22q41 0 82 8t73 19v170h-149v96q30 4 77 7t92 3q60 0 99 -3
v-409h-93l-17 51q-39 -22 -93 -39t-111 -17q-89 0 -139.5 43zM287 930h85l103 -139h-73l-75 83l-80 -83h-73z" />
    <glyph glyph-name="Gcommaaccent" unicode="&#x122;" horiz-adv-x="661" 
d="M139.5 38q-50.5 43 -70 124.5t-19.5 207.5q0 129 22.5 209.5t80 123t162.5 42.5q122 0 245 -30v-95q-37 5 -99.5 9.5t-124.5 4.5q-67 0 -101.5 -25t-47.5 -81t-13 -159q0 -105 13 -160.5t43.5 -77.5t88.5 -22q41 0 82 8t73 19v170h-149v96q30 4 77 7t92 3q60 0 99 -3
v-409h-93l-17 51q-39 -22 -93 -39t-111 -17q-89 0 -139.5 43zM262 -160l28 6q23 5 34.5 12t17 23.5t5.5 49.5h76q0 -78 -24.5 -110t-89.5 -32h-47v51z" />
    <glyph glyph-name="Gdotaccent" unicode="&#x120;" horiz-adv-x="661" 
d="M139.5 38q-50.5 43 -70 124.5t-19.5 207.5q0 129 22.5 209.5t80 123t162.5 42.5q122 0 245 -30v-95q-37 5 -99.5 9.5t-124.5 4.5q-67 0 -101.5 -25t-47.5 -81t-13 -159q0 -105 13 -160.5t43.5 -77.5t88.5 -22q41 0 82 8t73 19v170h-149v96q30 4 77 7t92 3q60 0 99 -3
v-409h-93l-17 51q-39 -22 -93 -39t-111 -17q-89 0 -139.5 43zM281.5 815q-5.5 5 -5.5 14v90q0 20 19 20h57q9 0 14 -5.5t5 -14.5v-90q0 -19 -19 -19h-57q-8 0 -13.5 5z" />
    <glyph glyph-name="uni1E20" unicode="&#x1e20;" horiz-adv-x="661" 
d="M139.5 38q-50.5 43 -70 124.5t-19.5 207.5q0 129 22.5 209.5t80 123t162.5 42.5q122 0 245 -30v-95q-37 5 -99.5 9.5t-124.5 4.5q-67 0 -101.5 -25t-47.5 -81t-13 -159q0 -105 13 -160.5t43.5 -77.5t88.5 -22q41 0 82 8t73 19v170h-149v96q30 4 77 7t92 3q60 0 99 -3
v-409h-93l-17 51q-39 -22 -93 -39t-111 -17q-89 0 -139.5 43zM183 889h275v-73h-275v73z" />
    <glyph glyph-name="H" unicode="H" horiz-adv-x="696" 
d="M69 738h123v-319h311v319h124v-738h-124v308h-311v-308h-123v738z" />
    <glyph glyph-name="Hbar" unicode="&#x126;" horiz-adv-x="696" 
d="M683 520h-56v-520h-124v308h-311v-308h-123v520h-56v65h56v153h123v-153h311v153h124v-153h56v-65zM503 520h-311v-101h311v101z" />
    <glyph glyph-name="uni1E2A" unicode="&#x1e2a;" horiz-adv-x="696" 
d="M69 738h123v-319h311v319h124v-738h-124v308h-311v-308h-123v738zM247.5 -189q-36.5 36 -36.5 112h58q0 -47 22 -69t56 -22q79 2 79 91h59q0 -76 -36.5 -112t-101.5 -36q-63 0 -99.5 36z" />
    <glyph glyph-name="Hcircumflex" unicode="&#x124;" horiz-adv-x="696" 
d="M69 738h123v-319h311v319h124v-738h-124v308h-311v-308h-123v738zM309 930h85l103 -139h-73l-75 83l-80 -83h-73z" />
    <glyph glyph-name="uni1E24" unicode="&#x1e24;" horiz-adv-x="696" 
d="M69 738h123v-319h311v319h124v-738h-124v308h-311v-308h-123v738zM305.5 -215q-5.5 5 -5.5 14v90q0 20 19 20h57q9 0 14 -5.5t5 -14.5v-90q0 -19 -19 -19h-57q-8 0 -13.5 5z" />
    <glyph glyph-name="I" unicode="I" horiz-adv-x="261" 
d="M69 738h123v-738h-123v738z" />
    <glyph glyph-name="Iacute" unicode="&#xcd;" horiz-adv-x="261" 
d="M69 738h123v-738h-123v738zM189 930h102l-119 -139h-72z" />
    <glyph glyph-name="Ibreve" unicode="&#x12c;" horiz-adv-x="261" 
d="M69 738h123v-738h-123v738zM24.5 821q-36.5 36 -36.5 112h58q0 -47 22 -69t56 -22q79 2 79 91h59q0 -76 -36.5 -112t-101.5 -36q-63 0 -99.5 36z" />
    <glyph glyph-name="Icircumflex" unicode="&#xce;" horiz-adv-x="261" 
d="M69 738h123v-738h-123v738zM92 930h85l103 -139h-73l-75 83l-80 -83h-73z" />
    <glyph glyph-name="uni0208" unicode="&#x208;" horiz-adv-x="261" 
d="M69 738h123v-738h-123v738zM-91 930h101l90 -139h-73zM76 930h101l90 -139h-73z" />
    <glyph glyph-name="Idieresis" unicode="&#xcf;" horiz-adv-x="261" 
d="M69 738h123v-738h-123v738zM-28.5 808q-5.5 5 -5.5 14v90q0 9 5 14.5t14 5.5h58q9 0 13.5 -5.5t4.5 -14.5v-90q0 -19 -18 -19h-58q-8 0 -13.5 5zM192.5 808q-5.5 5 -5.5 14v90q0 20 19 20h57q9 0 14 -5.5t5 -14.5v-90q0 -19 -19 -19h-57q-8 0 -13.5 5z" />
    <glyph glyph-name="uni1E2E" unicode="&#x1e2e;" horiz-adv-x="261" 
d="M69 738h123v-738h-123v738zM-28.5 808q-5.5 5 -5.5 14v90q0 9 5 14.5t14 5.5h58q9 0 13.5 -5.5t4.5 -14.5v-90q0 -19 -18 -19h-58q-8 0 -13.5 5zM192.5 808q-5.5 5 -5.5 14v90q0 20 19 20h57q9 0 14 -5.5t5 -14.5v-90q0 -19 -19 -19h-57q-8 0 -13.5 5zM183 1104h102
l-119 -139h-72z" />
    <glyph glyph-name="Idotaccent" unicode="&#x130;" horiz-adv-x="261" 
d="M69 738h123v-738h-123v738zM86.5 815q-5.5 5 -5.5 14v90q0 20 19 20h57q9 0 14 -5.5t5 -14.5v-90q0 -19 -19 -19h-57q-8 0 -13.5 5z" />
    <glyph glyph-name="uni1ECA" unicode="&#x1eca;" horiz-adv-x="261" 
d="M69 738h123v-738h-123v738zM88.5 -215q-5.5 5 -5.5 14v90q0 20 19 20h57q9 0 14 -5.5t5 -14.5v-90q0 -19 -19 -19h-57q-8 0 -13.5 5z" />
    <glyph glyph-name="Igrave" unicode="&#xcc;" horiz-adv-x="261" 
d="M69 738h123v-738h-123v738zM-10 930h101l90 -139h-73z" />
    <glyph glyph-name="uni1EC8" unicode="&#x1ec8;" horiz-adv-x="261" 
d="M69 738h123v-738h-123v738zM104 824q46 14 46 47q0 34 -38 34q-12 0 -34 -6v49q24 8 50 8q43 0 65.5 -21.5t22.5 -59.5t-27 -64t-85 -42v55z" />
    <glyph glyph-name="uni020A" unicode="&#x20a;" horiz-adv-x="261" 
d="M69 738h123v-738h-123v738zM230.5 899q36.5 -36 36.5 -112h-58q0 47 -22 69t-56 22q-79 -2 -79 -91h-59q0 76 36.5 112t101.5 36q63 0 99.5 -36z" />
    <glyph glyph-name="Imacron" unicode="&#x12a;" horiz-adv-x="261" 
d="M69 738h123v-738h-123v738zM-12 889h275v-73h-275v73z" />
    <glyph glyph-name="Iogonek" unicode="&#x12e;" horiz-adv-x="261" 
d="M69 738h123v-738h-123v738zM105 -164q-27 26 -27 64q0 32 17.5 58t51.5 42h46q-54 -32 -54 -72q0 -26 18 -41t49 -15h8v-59q-10 -3 -30 -3q-52 0 -79 26z" />
    <glyph glyph-name="Itilde" unicode="&#x128;" horiz-adv-x="261" 
d="M69 738h123v-738h-123v738zM-20.5 888q28.5 29 70.5 29q24 0 42.5 -7t44.5 -22q21 -12 34 -17.5t28 -5.5q22 0 35 14.5t14 41.5h63q-2 -61 -28.5 -93t-72.5 -32q-23 0 -43 7.5t-45 21.5q-22 12 -35.5 17.5t-27.5 5.5q-21 0 -34.5 -14t-14.5 -39h-62q3 64 31.5 93z" />
    <glyph glyph-name="J" unicode="J" horiz-adv-x="397" 
d="M82.5 0q-32.5 6 -56.5 15v98q56 -8 92 -8q43 0 65 20t22 67v546h124v-564q0 -93 -44 -136.5t-140 -43.5q-30 0 -62.5 6z" />
    <glyph glyph-name="Jcircumflex" unicode="&#x134;" horiz-adv-x="397" 
d="M82.5 0q-32.5 6 -56.5 15v98q56 -8 92 -8q43 0 65 20t22 67v546h124v-564q0 -93 -44 -136.5t-140 -43.5q-30 0 -62.5 6zM228 930h85l103 -139h-73l-75 83l-80 -83h-73z" />
    <glyph glyph-name="K" unicode="K" horiz-adv-x="631" 
d="M69 738h123v-315h110l169 315h132l-203 -370l208 -368h-132l-175 311h-109v-311h-123v738z" />
    <glyph glyph-name="Kcommaaccent" unicode="&#x136;" horiz-adv-x="631" 
d="M69 738h123v-315h110l169 315h132l-203 -370l208 -368h-132l-175 311h-109v-311h-123v738zM226 -160l28 6q23 5 34.5 12t17 23.5t5.5 49.5h76q0 -78 -24.5 -110t-89.5 -32h-47v51z" />
    <glyph glyph-name="L" unicode="L" horiz-adv-x="534" 
d="M110.5 38.5q-41.5 38.5 -41.5 126.5v573h123v-553q0 -41 19.5 -57t53.5 -16h245v-112h-276q-82 0 -123.5 38.5z" />
    <glyph glyph-name="Lacute" unicode="&#x139;" horiz-adv-x="534" 
d="M110.5 38.5q-41.5 38.5 -41.5 126.5v573h123v-553q0 -41 19.5 -57t53.5 -16h245v-112h-276q-82 0 -123.5 38.5zM189 930h102l-119 -139h-72z" />
    <glyph glyph-name="Lcaron" unicode="&#x13d;" horiz-adv-x="534" 
d="M110.5 38.5q-41.5 38.5 -41.5 126.5v573h123v-553q0 -41 19.5 -57t53.5 -16h245v-112h-276q-82 0 -123.5 38.5zM268 720v63h113v-63l-7 -138h-97z" />
    <glyph glyph-name="Lcommaaccent" unicode="&#x13b;" horiz-adv-x="534" 
d="M110.5 38.5q-41.5 38.5 -41.5 126.5v573h123v-553q0 -41 19.5 -57t53.5 -16h245v-112h-276q-82 0 -123.5 38.5zM198 -160l28 6q23 5 34.5 12t17 23.5t5.5 49.5h76q0 -78 -24.5 -110t-89.5 -32h-47v51z" />
    <glyph glyph-name="Ldot" unicode="&#x13f;" horiz-adv-x="534" 
d="M110.5 38.5q-41.5 38.5 -41.5 126.5v573h123v-553q0 -41 19.5 -57t53.5 -16h245v-112h-276q-82 0 -123.5 38.5zM361.5 346q-5.5 5 -5.5 13v74q0 20 19 20h71q19 0 19 -20v-74q0 -18 -19 -18h-71q-8 0 -13.5 5z" />
    <glyph glyph-name="uni1E36" unicode="&#x1e36;" horiz-adv-x="534" 
d="M110.5 38.5q-41.5 38.5 -41.5 126.5v573h123v-553q0 -41 19.5 -57t53.5 -16h245v-112h-276q-82 0 -123.5 38.5zM241.5 -215q-5.5 5 -5.5 14v90q0 20 19 20h57q9 0 14 -5.5t5 -14.5v-90q0 -19 -19 -19h-57q-8 0 -13.5 5z" />
    <glyph glyph-name="uni1E3A" unicode="&#x1e3a;" horiz-adv-x="534" 
d="M110.5 38.5q-41.5 38.5 -41.5 126.5v573h123v-553q0 -41 19.5 -57t53.5 -16h245v-112h-276q-82 0 -123.5 38.5zM147 -131h275v-73h-275v73z" />
    <glyph glyph-name="Lslash" unicode="&#x141;" horiz-adv-x="534" 
d="M510 112v-112h-276q-82 0 -123.5 38.5t-41.5 126.5v173l-71 -31v68l71 31v332h123v-294l131 57v-68l-131 -57v-191q0 -41 19.5 -57t53.5 -16h245z" />
    <glyph glyph-name="M" unicode="M" horiz-adv-x="866" 
d="M698 0l-62 528l-146 -528h-116l-147 525l-59 -525h-119l85 738h120l179 -591l178 591h120l87 -738h-120z" />
    <glyph glyph-name="uni1E40" unicode="&#x1e40;" horiz-adv-x="866" 
d="M698 0l-62 528l-146 -528h-116l-147 525l-59 -525h-119l85 738h120l179 -591l178 591h120l87 -738h-120zM382.5 815q-5.5 5 -5.5 14v90q0 20 19 20h57q9 0 14 -5.5t5 -14.5v-90q0 -19 -19 -19h-57q-8 0 -13.5 5z" />
    <glyph glyph-name="uni1E42" unicode="&#x1e42;" horiz-adv-x="866" 
d="M698 0l-62 528l-146 -528h-116l-147 525l-59 -525h-119l85 738h120l179 -591l178 591h120l87 -738h-120zM384.5 -215q-5.5 5 -5.5 14v90q0 20 19 20h57q9 0 14 -5.5t5 -14.5v-90q0 -19 -19 -19h-57q-8 0 -13.5 5z" />
    <glyph glyph-name="N" unicode="N" horiz-adv-x="697" 
d="M77 738h99l336 -527v527h124v-738h-99l-336 527v-527h-124v738z" />
    <glyph glyph-name="Nacute" unicode="&#x143;" horiz-adv-x="697" 
d="M77 738h99l336 -527v527h124v-738h-99l-336 527v-527h-124v738zM399 930h102l-119 -139h-72z" />
    <glyph glyph-name="Ncaron" unicode="&#x147;" horiz-adv-x="697" 
d="M77 738h99l336 -527v527h124v-738h-99l-336 527v-527h-124v738zM194 930h72l75 -83l81 83h73l-113 -139h-86z" />
    <glyph glyph-name="Ncommaaccent" unicode="&#x145;" horiz-adv-x="697" 
d="M77 738h99l336 -527v527h124v-738h-99l-336 527v-527h-124v738zM256 -160l28 6q23 5 34.5 12t17 23.5t5.5 49.5h76q0 -78 -24.5 -110t-89.5 -32h-47v51z" />
    <glyph glyph-name="uni1E44" unicode="&#x1e44;" horiz-adv-x="697" 
d="M77 738h99l336 -527v527h124v-738h-99l-336 527v-527h-124v738zM298.5 -215q-5.5 5 -5.5 14v90q0 20 19 20h57q9 0 14 -5.5t5 -14.5v-90q0 -19 -19 -19h-57q-8 0 -13.5 5z" />
    <glyph glyph-name="uni1E46" unicode="&#x1e46;" horiz-adv-x="697" 
d="M77 738h99l336 -527v527h124v-738h-99l-336 527v-527h-124v738zM298.5 -215q-5.5 5 -5.5 14v90q0 20 19 20h57q9 0 14 -5.5t5 -14.5v-90q0 -19 -19 -19h-57q-8 0 -13.5 5z" />
    <glyph glyph-name="Eng" unicode="&#x14a;" horiz-adv-x="691" 
d="M636 738v-801q0 -93 -45.5 -136.5t-144.5 -43.5q-31 0 -63.5 6t-55.5 15v98q58 -8 96 -8q44 0 66.5 20t22.5 67v84l-311 488v-527h-124v738h99l336 -527v527h124z" />
    <glyph glyph-name="uni1E48" unicode="&#x1e48;" horiz-adv-x="697" 
d="M77 738h99l336 -527v527h124v-738h-99l-336 527v-527h-124v738zM204 -131h275v-73h-275v73z" />
    <glyph glyph-name="Ntilde" unicode="&#xd1;" horiz-adv-x="697" 
d="M77 738h99l336 -527v527h124v-738h-99l-336 527v-527h-124v738zM190.5 888q28.5 29 70.5 29q24 0 42.5 -7t44.5 -22q21 -12 34 -17.5t28 -5.5q22 0 35 14.5t14 41.5h63q-2 -61 -28.5 -93t-72.5 -32q-23 0 -43 7.5t-45 21.5q-22 12 -35.5 17.5t-27.5 5.5q-21 0 -34.5 -14
t-14.5 -39h-62q3 64 31.5 93z" />
    <glyph glyph-name="O" unicode="O" horiz-adv-x="695" 
d="M177 22.5q-63 28.5 -95 109t-32 235.5t32.5 237t95.5 111.5t169 29.5q107 0 170.5 -29.5t95.5 -111t32 -237.5q0 -155 -32.5 -235.5t-95 -109t-170.5 -28.5q-107 0 -170 28.5zM452.5 125q36.5 20 52.5 75.5t16 166.5q0 115 -16.5 172t-52.5 76t-105 19q-67 0 -103 -19.5
t-53 -76t-17 -171.5q0 -112 15.5 -167t51.5 -75t106 -20q69 0 105.5 20z" />
    <glyph glyph-name="Oacute" unicode="&#xd3;" horiz-adv-x="695" 
d="M177 22.5q-63 28.5 -95 109t-32 235.5t32.5 237t95.5 111.5t169 29.5q107 0 170.5 -29.5t95.5 -111t32 -237.5q0 -155 -32.5 -235.5t-95 -109t-170.5 -28.5q-107 0 -170 28.5zM452.5 125q36.5 20 52.5 75.5t16 166.5q0 115 -16.5 172t-52.5 76t-105 19q-67 0 -103 -19.5
t-53 -76t-17 -171.5q0 -112 15.5 -167t51.5 -75t106 -20q69 0 105.5 20zM405 930h102l-119 -139h-72z" />
    <glyph glyph-name="Obreve" unicode="&#x14e;" horiz-adv-x="695" 
d="M177 22.5q-63 28.5 -95 109t-32 235.5t32.5 237t95.5 111.5t169 29.5q107 0 170.5 -29.5t95.5 -111t32 -237.5q0 -155 -32.5 -235.5t-95 -109t-170.5 -28.5q-107 0 -170 28.5zM452.5 125q36.5 20 52.5 75.5t16 166.5q0 115 -16.5 172t-52.5 76t-105 19q-67 0 -103 -19.5
t-53 -76t-17 -171.5q0 -112 15.5 -167t51.5 -75t106 -20q69 0 105.5 20zM240.5 821q-36.5 36 -36.5 112h58q0 -47 22 -69t56 -22q79 2 79 91h59q0 -76 -36.5 -112t-101.5 -36q-63 0 -99.5 36z" />
    <glyph glyph-name="Ocircumflex" unicode="&#xd4;" horiz-adv-x="695" 
d="M177 22.5q-63 28.5 -95 109t-32 235.5t32.5 237t95.5 111.5t169 29.5q107 0 170.5 -29.5t95.5 -111t32 -237.5q0 -155 -32.5 -235.5t-95 -109t-170.5 -28.5q-107 0 -170 28.5zM452.5 125q36.5 20 52.5 75.5t16 166.5q0 115 -16.5 172t-52.5 76t-105 19q-67 0 -103 -19.5
t-53 -76t-17 -171.5q0 -112 15.5 -167t51.5 -75t106 -20q69 0 105.5 20zM308 930h85l103 -139h-73l-75 83l-80 -83h-73z" />
    <glyph glyph-name="uni1ED0" unicode="&#x1ed0;" horiz-adv-x="695" 
d="M177 22.5q-63 28.5 -95 109t-32 235.5t32.5 237t95.5 111.5t169 29.5q107 0 170.5 -29.5t95.5 -111t32 -237.5q0 -155 -32.5 -235.5t-95 -109t-170.5 -28.5q-107 0 -170 28.5zM452.5 125q36.5 20 52.5 75.5t16 166.5q0 115 -16.5 172t-52.5 76t-105 19q-67 0 -103 -19.5
t-53 -76t-17 -171.5q0 -112 15.5 -167t51.5 -75t106 -20q69 0 105.5 20zM599 1000l-89 -127h-73l61 127h101zM392 896l103 -105h-72l-75 49l-81 -49h-73l113 105h85z" />
    <glyph glyph-name="uni1ED8" unicode="&#x1ed8;" horiz-adv-x="695" 
d="M177 22.5q-63 28.5 -95 109t-32 235.5t32.5 237t95.5 111.5t169 29.5q107 0 170.5 -29.5t95.5 -111t32 -237.5q0 -155 -32.5 -235.5t-95 -109t-170.5 -28.5q-107 0 -170 28.5zM452.5 125q36.5 20 52.5 75.5t16 166.5q0 115 -16.5 172t-52.5 76t-105 19q-67 0 -103 -19.5
t-53 -76t-17 -171.5q0 -112 15.5 -167t51.5 -75t106 -20q69 0 105.5 20zM308 930h85l103 -139h-73l-75 83l-80 -83h-73zM304.5 -215q-5.5 5 -5.5 14v90q0 20 19 20h57q9 0 14 -5.5t5 -14.5v-90q0 -19 -19 -19h-57q-8 0 -13.5 5z" />
    <glyph glyph-name="uni1ED2" unicode="&#x1ed2;" horiz-adv-x="695" 
d="M177 22.5q-63 28.5 -95 109t-32 235.5t32.5 237t95.5 111.5t169 29.5q107 0 170.5 -29.5t95.5 -111t32 -237.5q0 -155 -32.5 -235.5t-95 -109t-170.5 -28.5q-107 0 -170 28.5zM452.5 125q36.5 20 52.5 75.5t16 166.5q0 115 -16.5 172t-52.5 76t-105 19q-67 0 -103 -19.5
t-53 -76t-17 -171.5q0 -112 15.5 -167t51.5 -75t106 -20q69 0 105.5 20zM197 1000l61 -127h-73l-89 127h101zM392 896l103 -105h-72l-75 49l-81 -49h-73l113 105h85z" />
    <glyph glyph-name="uni1ED4" unicode="&#x1ed4;" horiz-adv-x="695" 
d="M177 22.5q-63 28.5 -95 109t-32 235.5t32.5 237t95.5 111.5t169 29.5q107 0 170.5 -29.5t95.5 -111t32 -237.5q0 -155 -32.5 -235.5t-95 -109t-170.5 -28.5q-107 0 -170 28.5zM452.5 125q36.5 20 52.5 75.5t16 166.5q0 115 -16.5 172t-52.5 76t-105 19q-67 0 -103 -19.5
t-53 -76t-17 -171.5q0 -112 15.5 -167t51.5 -75t106 -20q69 0 105.5 20zM461 900q38 12 38 39q0 14 -7 21t-24 7q-18 0 -33 -6v44q20 7 49 7q37 0 55.5 -17t18.5 -49q0 -74 -97 -101v55zM307 896h85l103 -105h-72l-75 49l-81 -49h-73z" />
    <glyph glyph-name="uni1ED6" unicode="&#x1ed6;" horiz-adv-x="695" 
d="M177 22.5q-63 28.5 -95 109t-32 235.5t32.5 237t95.5 111.5t169 29.5q107 0 170.5 -29.5t95.5 -111t32 -237.5q0 -155 -32.5 -235.5t-95 -109t-170.5 -28.5q-107 0 -170 28.5zM452.5 125q36.5 20 52.5 75.5t16 166.5q0 115 -16.5 172t-52.5 76t-105 19q-67 0 -103 -19.5
t-53 -76t-17 -171.5q0 -112 15.5 -167t51.5 -75t106 -20q69 0 105.5 20zM341 1015q36 -15 55 -15q20 0 31.5 10t11.5 28h63q-4 -54 -24.5 -76t-61.5 -22q-18 0 -33.5 4.5t-42.5 13.5q-39 15 -57 15q-17 0 -27 -9t-11 -25h-62q3 54 25.5 74t59.5 20q29 0 73 -18zM495 791h-72
l-75 49l-81 -49h-73l113 105h85z" />
    <glyph glyph-name="uni020C" unicode="&#x20c;" horiz-adv-x="695" 
d="M177 22.5q-63 28.5 -95 109t-32 235.5t32.5 237t95.5 111.5t169 29.5q107 0 170.5 -29.5t95.5 -111t32 -237.5q0 -155 -32.5 -235.5t-95 -109t-170.5 -28.5q-107 0 -170 28.5zM452.5 125q36.5 20 52.5 75.5t16 166.5q0 115 -16.5 172t-52.5 76t-105 19q-67 0 -103 -19.5
t-53 -76t-17 -171.5q0 -112 15.5 -167t51.5 -75t106 -20q69 0 105.5 20zM125 930h101l90 -139h-73zM292 930h101l90 -139h-73z" />
    <glyph glyph-name="Odieresis" unicode="&#xd6;" horiz-adv-x="695" 
d="M177 22.5q-63 28.5 -95 109t-32 235.5t32.5 237t95.5 111.5t169 29.5q107 0 170.5 -29.5t95.5 -111t32 -237.5q0 -155 -32.5 -235.5t-95 -109t-170.5 -28.5q-107 0 -170 28.5zM452.5 125q36.5 20 52.5 75.5t16 166.5q0 115 -16.5 172t-52.5 76t-105 19q-67 0 -103 -19.5
t-53 -76t-17 -171.5q0 -112 15.5 -167t51.5 -75t106 -20q69 0 105.5 20zM187.5 808q-5.5 5 -5.5 14v90q0 9 5 14.5t14 5.5h58q9 0 13.5 -5.5t4.5 -14.5v-90q0 -19 -18 -19h-58q-8 0 -13.5 5zM408.5 808q-5.5 5 -5.5 14v90q0 20 19 20h57q9 0 14 -5.5t5 -14.5v-90
q0 -19 -19 -19h-57q-8 0 -13.5 5z" />
    <glyph glyph-name="uni022A" unicode="&#x22a;" horiz-adv-x="695" 
d="M177 22.5q-63 28.5 -95 109t-32 235.5t32.5 237t95.5 111.5t169 29.5q107 0 170.5 -29.5t95.5 -111t32 -237.5q0 -155 -32.5 -235.5t-95 -109t-170.5 -28.5q-107 0 -170 28.5zM452.5 125q36.5 20 52.5 75.5t16 166.5q0 115 -16.5 172t-52.5 76t-105 19q-67 0 -103 -19.5
t-53 -76t-17 -171.5q0 -112 15.5 -167t51.5 -75t106 -20q69 0 105.5 20zM196.5 808q-5.5 5 -5.5 14v90q0 9 5 14.5t14 5.5h58q9 0 13.5 -5.5t4.5 -14.5v-90q0 -19 -18 -19h-58q-8 0 -13.5 5zM417.5 808q-5.5 5 -5.5 14v90q0 20 19 20h57q9 0 14 -5.5t5 -14.5v-90
q0 -19 -19 -19h-57q-8 0 -13.5 5zM213 1068h275v-73h-275v73z" />
    <glyph glyph-name="uni0230" unicode="&#x230;" horiz-adv-x="695" 
d="M177 22.5q-63 28.5 -95 109t-32 235.5t32.5 237t95.5 111.5t169 29.5q107 0 170.5 -29.5t95.5 -111t32 -237.5q0 -155 -32.5 -235.5t-95 -109t-170.5 -28.5q-107 0 -170 28.5zM452.5 125q36.5 20 52.5 75.5t16 166.5q0 115 -16.5 172t-52.5 76t-105 19q-67 0 -103 -19.5
t-53 -76t-17 -171.5q0 -112 15.5 -167t51.5 -75t106 -20q69 0 105.5 20zM302.5 815q-5.5 5 -5.5 14v90q0 20 19 20h57q9 0 14 -5.5t5 -14.5v-90q0 -19 -19 -19h-57q-8 0 -13.5 5zM204 1064h275v-73h-275v73z" />
    <glyph glyph-name="uni1ECC" unicode="&#x1ecc;" horiz-adv-x="695" 
d="M177 22.5q-63 28.5 -95 109t-32 235.5t32.5 237t95.5 111.5t169 29.5q107 0 170.5 -29.5t95.5 -111t32 -237.5q0 -155 -32.5 -235.5t-95 -109t-170.5 -28.5q-107 0 -170 28.5zM452.5 125q36.5 20 52.5 75.5t16 166.5q0 115 -16.5 172t-52.5 76t-105 19q-67 0 -103 -19.5
t-53 -76t-17 -171.5q0 -112 15.5 -167t51.5 -75t106 -20q69 0 105.5 20zM304.5 -215q-5.5 5 -5.5 14v90q0 20 19 20h57q9 0 14 -5.5t5 -14.5v-90q0 -19 -19 -19h-57q-8 0 -13.5 5z" />
    <glyph glyph-name="Ograve" unicode="&#xd2;" horiz-adv-x="695" 
d="M177 22.5q-63 28.5 -95 109t-32 235.5t32.5 237t95.5 111.5t169 29.5q107 0 170.5 -29.5t95.5 -111t32 -237.5q0 -155 -32.5 -235.5t-95 -109t-170.5 -28.5q-107 0 -170 28.5zM452.5 125q36.5 20 52.5 75.5t16 166.5q0 115 -16.5 172t-52.5 76t-105 19q-67 0 -103 -19.5
t-53 -76t-17 -171.5q0 -112 15.5 -167t51.5 -75t106 -20q69 0 105.5 20zM206 930h101l90 -139h-73z" />
    <glyph glyph-name="uni1ECE" unicode="&#x1ece;" horiz-adv-x="695" 
d="M177 22.5q-63 28.5 -95 109t-32 235.5t32.5 237t95.5 111.5t169 29.5q107 0 170.5 -29.5t95.5 -111t32 -237.5q0 -155 -32.5 -235.5t-95 -109t-170.5 -28.5q-107 0 -170 28.5zM452.5 125q36.5 20 52.5 75.5t16 166.5q0 115 -16.5 172t-52.5 76t-105 19q-67 0 -103 -19.5
t-53 -76t-17 -171.5q0 -112 15.5 -167t51.5 -75t106 -20q69 0 105.5 20zM320 824q46 14 46 47q0 34 -38 34q-12 0 -34 -6v49q24 8 50 8q43 0 65.5 -21.5t22.5 -59.5t-27 -64t-85 -42v55z" />
    <glyph glyph-name="Ohorn" unicode="&#x1a0;" horiz-adv-x="695" 
d="M636.5 735.5q-24.5 -42.5 -68.5 -57.5q39 -41 58 -116t19 -195q0 -155 -32.5 -235.5t-95 -109t-170.5 -28.5q-107 0 -170 28.5t-95 109t-32 235.5t32.5 237t95.5 111.5t169 29.5q57 0 98 -7h55q36 0 55 26t19 86h87q0 -72 -24.5 -114.5zM452.5 125q36.5 20 52.5 75.5
t16 166.5q0 115 -16.5 172t-52.5 76t-105 19q-67 0 -103 -19.5t-53 -76t-17 -171.5q0 -112 15.5 -167t51.5 -75t106 -20q69 0 105.5 20z" />
    <glyph glyph-name="uni1EDA" unicode="&#x1eda;" horiz-adv-x="695" 
d="M636.5 735.5q-24.5 -42.5 -68.5 -57.5q39 -41 58 -116t19 -195q0 -155 -32.5 -235.5t-95 -109t-170.5 -28.5q-107 0 -170 28.5t-95 109t-32 235.5t32.5 237t95.5 111.5t169 29.5q57 0 98 -7h55q36 0 55 26t19 86h87q0 -72 -24.5 -114.5zM452.5 125q36.5 20 52.5 75.5
t16 166.5q0 115 -16.5 172t-52.5 76t-105 19q-67 0 -103 -19.5t-53 -76t-17 -171.5q0 -112 15.5 -167t51.5 -75t106 -20q69 0 105.5 20zM389 930h102l-119 -139h-72z" />
    <glyph glyph-name="uni1EE2" unicode="&#x1ee2;" horiz-adv-x="695" 
d="M636.5 735.5q-24.5 -42.5 -68.5 -57.5q39 -41 58 -116t19 -195q0 -155 -32.5 -235.5t-95 -109t-170.5 -28.5q-107 0 -170 28.5t-95 109t-32 235.5t32.5 237t95.5 111.5t169 29.5q57 0 98 -7h55q36 0 55 26t19 86h87q0 -72 -24.5 -114.5zM452.5 125q36.5 20 52.5 75.5
t16 166.5q0 115 -16.5 172t-52.5 76t-105 19q-67 0 -103 -19.5t-53 -76t-17 -171.5q0 -112 15.5 -167t51.5 -75t106 -20q69 0 105.5 20zM308.5 -215q-5.5 5 -5.5 14v90q0 20 19 20h57q9 0 14 -5.5t5 -14.5v-90q0 -19 -19 -19h-57q-8 0 -13.5 5z" />
    <glyph glyph-name="uni1EDC" unicode="&#x1edc;" horiz-adv-x="695" 
d="M636.5 735.5q-24.5 -42.5 -68.5 -57.5q39 -41 58 -116t19 -195q0 -155 -32.5 -235.5t-95 -109t-170.5 -28.5q-107 0 -170 28.5t-95 109t-32 235.5t32.5 237t95.5 111.5t169 29.5q57 0 98 -7h55q36 0 55 26t19 86h87q0 -72 -24.5 -114.5zM452.5 125q36.5 20 52.5 75.5
t16 166.5q0 115 -16.5 172t-52.5 76t-105 19q-67 0 -103 -19.5t-53 -76t-17 -171.5q0 -112 15.5 -167t51.5 -75t106 -20q69 0 105.5 20zM184 930h101l90 -139h-73z" />
    <glyph glyph-name="uni1EDE" unicode="&#x1ede;" horiz-adv-x="695" 
d="M636.5 735.5q-24.5 -42.5 -68.5 -57.5q39 -41 58 -116t19 -195q0 -155 -32.5 -235.5t-95 -109t-170.5 -28.5q-107 0 -170 28.5t-95 109t-32 235.5t32.5 237t95.5 111.5t169 29.5q57 0 98 -7h55q36 0 55 26t19 86h87q0 -72 -24.5 -114.5zM452.5 125q36.5 20 52.5 75.5
t16 166.5q0 115 -16.5 172t-52.5 76t-105 19q-67 0 -103 -19.5t-53 -76t-17 -171.5q0 -112 15.5 -167t51.5 -75t106 -20q69 0 105.5 20zM319 824q46 14 46 47q0 34 -38 34q-12 0 -34 -6v49q24 8 50 8q43 0 65.5 -21.5t22.5 -59.5t-27 -64t-85 -42v55z" />
    <glyph glyph-name="uni1EE0" unicode="&#x1ee0;" horiz-adv-x="695" 
d="M636.5 735.5q-24.5 -42.5 -68.5 -57.5q39 -41 58 -116t19 -195q0 -155 -32.5 -235.5t-95 -109t-170.5 -28.5q-107 0 -170 28.5t-95 109t-32 235.5t32.5 237t95.5 111.5t169 29.5q57 0 98 -7h55q36 0 55 26t19 86h87q0 -72 -24.5 -114.5zM452.5 125q36.5 20 52.5 75.5
t16 166.5q0 115 -16.5 172t-52.5 76t-105 19q-67 0 -103 -19.5t-53 -76t-17 -171.5q0 -112 15.5 -167t51.5 -75t106 -20q69 0 105.5 20zM192.5 888q28.5 29 70.5 29q24 0 42.5 -7t44.5 -22q21 -12 34 -17.5t28 -5.5q22 0 35 14.5t14 41.5h63q-2 -61 -28.5 -93t-72.5 -32
q-23 0 -43 7.5t-45 21.5q-22 12 -35.5 17.5t-27.5 5.5q-21 0 -34.5 -14t-14.5 -39h-62q3 64 31.5 93z" />
    <glyph glyph-name="Ohungarumlaut" unicode="&#x150;" horiz-adv-x="695" 
d="M177 22.5q-63 28.5 -95 109t-32 235.5t32.5 237t95.5 111.5t169 29.5q107 0 170.5 -29.5t95.5 -111t32 -237.5q0 -155 -32.5 -235.5t-95 -109t-170.5 -28.5q-107 0 -170 28.5zM452.5 125q36.5 20 52.5 75.5t16 166.5q0 115 -16.5 172t-52.5 76t-105 19q-67 0 -103 -19.5
t-53 -76t-17 -171.5q0 -112 15.5 -167t51.5 -75t106 -20q69 0 105.5 20zM300 930h95l-107 -139h-72zM459 930h95l-107 -139h-72z" />
    <glyph glyph-name="uni020E" unicode="&#x20e;" horiz-adv-x="695" 
d="M177 22.5q-63 28.5 -95 109t-32 235.5t32.5 237t95.5 111.5t169 29.5q107 0 170.5 -29.5t95.5 -111t32 -237.5q0 -155 -32.5 -235.5t-95 -109t-170.5 -28.5q-107 0 -170 28.5zM452.5 125q36.5 20 52.5 75.5t16 166.5q0 115 -16.5 172t-52.5 76t-105 19q-67 0 -103 -19.5
t-53 -76t-17 -171.5q0 -112 15.5 -167t51.5 -75t106 -20q69 0 105.5 20zM446.5 899q36.5 -36 36.5 -112h-58q0 47 -22 69t-56 22q-79 -2 -79 -91h-59q0 76 36.5 112t101.5 36q63 0 99.5 -36z" />
    <glyph glyph-name="Omacron" unicode="&#x14c;" horiz-adv-x="695" 
d="M177 22.5q-63 28.5 -95 109t-32 235.5t32.5 237t95.5 111.5t169 29.5q107 0 170.5 -29.5t95.5 -111t32 -237.5q0 -155 -32.5 -235.5t-95 -109t-170.5 -28.5q-107 0 -170 28.5zM452.5 125q36.5 20 52.5 75.5t16 166.5q0 115 -16.5 172t-52.5 76t-105 19q-67 0 -103 -19.5
t-53 -76t-17 -171.5q0 -112 15.5 -167t51.5 -75t106 -20q69 0 105.5 20zM204 889h275v-73h-275v73z" />
    <glyph glyph-name="uni1E52" unicode="&#x1e52;" horiz-adv-x="695" 
d="M177 22.5q-63 28.5 -95 109t-32 235.5t32.5 237t95.5 111.5t169 29.5q107 0 170.5 -29.5t95.5 -111t32 -237.5q0 -155 -32.5 -235.5t-95 -109t-170.5 -28.5q-107 0 -170 28.5zM452.5 125q36.5 20 52.5 75.5t16 166.5q0 115 -16.5 172t-52.5 76t-105 19q-67 0 -103 -19.5
t-53 -76t-17 -171.5q0 -112 15.5 -167t51.5 -75t106 -20q69 0 105.5 20zM204 889h275v-73h-275v73zM400 1074h102l-119 -139h-72z" />
    <glyph glyph-name="uni1E50" unicode="&#x1e50;" horiz-adv-x="695" 
d="M177 22.5q-63 28.5 -95 109t-32 235.5t32.5 237t95.5 111.5t169 29.5q107 0 170.5 -29.5t95.5 -111t32 -237.5q0 -155 -32.5 -235.5t-95 -109t-170.5 -28.5q-107 0 -170 28.5zM452.5 125q36.5 20 52.5 75.5t16 166.5q0 115 -16.5 172t-52.5 76t-105 19q-67 0 -103 -19.5
t-53 -76t-17 -171.5q0 -112 15.5 -167t51.5 -75t106 -20q69 0 105.5 20zM204 889h275v-73h-275v73zM189 1074h101l90 -139h-73z" />
    <glyph glyph-name="uni01EA" unicode="&#x1ea;" horiz-adv-x="695" 
d="M368 -72q0 -26 18 -41t49 -15h8v-59q-11 -3 -30 -3q-52 0 -79 26t-27 64q0 29 15 53.5t43 40.5h-18q-107 0 -170 28.5t-95 109t-32 235.5t32.5 237t95.5 111.5t169 29.5q107 0 170.5 -29.5t95.5 -111t32 -237.5q0 -136 -25 -214.5t-74 -113t-129 -42.5q-49 -31 -49 -69z
M189.5 200q15.5 -55 51.5 -75t106 -20q69 0 105.5 20t52.5 75.5t16 166.5q0 115 -16.5 172t-52.5 76t-105 19q-67 0 -103 -19.5t-53 -76t-17 -171.5q0 -112 15.5 -167z" />
    <glyph glyph-name="Oslash" unicode="&#xd8;" horiz-adv-x="695" 
d="M629.5 546.5q15.5 -71.5 15.5 -179.5q0 -155 -32.5 -235.5t-95 -109t-170.5 -28.5q-60 0 -104.5 8t-78.5 27l-19 -29h-83l50 76q-31 42 -46.5 113t-15.5 178q0 155 32.5 237t95.5 111.5t169 29.5q60 0 105 -8.5t78 -28.5l20 30h84l-51 -77q31 -43 46.5 -114.5zM191 195
l273 412q-20 15 -48 21t-69 6q-67 0 -103 -19.5t-53 -76t-17 -171.5q0 -117 17 -172zM452.5 125q36.5 20 52.5 75.5t16 166.5q0 118 -17 175l-272 -411q19 -14 47 -20t68 -6q69 0 105.5 20z" />
    <glyph glyph-name="Oslashacute" unicode="&#x1fe;" horiz-adv-x="695" 
d="M629.5 546.5q15.5 -71.5 15.5 -179.5q0 -155 -32.5 -235.5t-95 -109t-170.5 -28.5q-60 0 -104.5 8t-78.5 27l-19 -29h-83l50 76q-31 42 -46.5 113t-15.5 178q0 155 32.5 237t95.5 111.5t169 29.5q60 0 105 -8.5t78 -28.5l20 30h84l-51 -77q31 -43 46.5 -114.5zM191 195
l273 412q-20 15 -48 21t-69 6q-67 0 -103 -19.5t-53 -76t-17 -171.5q0 -117 17 -172zM452.5 125q36.5 20 52.5 75.5t16 166.5q0 118 -17 175l-272 -411q19 -14 47 -20t68 -6q69 0 105.5 20zM405 930h102l-119 -139h-72z" />
    <glyph glyph-name="Otilde" unicode="&#xd5;" horiz-adv-x="695" 
d="M177 22.5q-63 28.5 -95 109t-32 235.5t32.5 237t95.5 111.5t169 29.5q107 0 170.5 -29.5t95.5 -111t32 -237.5q0 -155 -32.5 -235.5t-95 -109t-170.5 -28.5q-107 0 -170 28.5zM452.5 125q36.5 20 52.5 75.5t16 166.5q0 115 -16.5 172t-52.5 76t-105 19q-67 0 -103 -19.5
t-53 -76t-17 -171.5q0 -112 15.5 -167t51.5 -75t106 -20q69 0 105.5 20zM196.5 888q28.5 29 70.5 29q24 0 42.5 -7t44.5 -22q21 -12 34 -17.5t28 -5.5q22 0 35 14.5t14 41.5h63q-2 -61 -28.5 -93t-72.5 -32q-23 0 -43 7.5t-45 21.5q-22 12 -35.5 17.5t-27.5 5.5
q-21 0 -34.5 -14t-14.5 -39h-62q3 64 31.5 93z" />
    <glyph glyph-name="uni1E4C" unicode="&#x1e4c;" horiz-adv-x="695" 
d="M177 22.5q-63 28.5 -95 109t-32 235.5t32.5 237t95.5 111.5t169 29.5q107 0 170.5 -29.5t95.5 -111t32 -237.5q0 -155 -32.5 -235.5t-95 -109t-170.5 -28.5q-107 0 -170 28.5zM452.5 125q36.5 20 52.5 75.5t16 166.5q0 115 -16.5 172t-52.5 76t-105 19q-67 0 -103 -19.5
t-53 -76t-17 -171.5q0 -112 15.5 -167t51.5 -75t106 -20q69 0 105.5 20zM196.5 888q28.5 29 70.5 29q24 0 42.5 -7t44.5 -22q21 -12 34 -17.5t28 -5.5q22 0 35 14.5t14 41.5h63q-2 -61 -28.5 -93t-72.5 -32q-23 0 -43 7.5t-45 21.5q-22 12 -35.5 17.5t-27.5 5.5
q-21 0 -34.5 -14t-14.5 -39h-62q3 64 31.5 93zM388 1092h102l-119 -139h-72z" />
    <glyph glyph-name="uni1E4E" unicode="&#x1e4e;" horiz-adv-x="695" 
d="M177 22.5q-63 28.5 -95 109t-32 235.5t32.5 237t95.5 111.5t169 29.5q107 0 170.5 -29.5t95.5 -111t32 -237.5q0 -155 -32.5 -235.5t-95 -109t-170.5 -28.5q-107 0 -170 28.5zM452.5 125q36.5 20 52.5 75.5t16 166.5q0 115 -16.5 172t-52.5 76t-105 19q-67 0 -103 -19.5
t-53 -76t-17 -171.5q0 -112 15.5 -167t51.5 -75t106 -20q69 0 105.5 20zM196.5 888q28.5 29 70.5 29q24 0 42.5 -7t44.5 -22q21 -12 34 -17.5t28 -5.5q22 0 35 14.5t14 41.5h63q-2 -61 -28.5 -93t-72.5 -32q-23 0 -43 7.5t-45 21.5q-22 12 -35.5 17.5t-27.5 5.5
q-21 0 -34.5 -14t-14.5 -39h-62q3 64 31.5 93zM192.5 970q-5.5 5 -5.5 14v90q0 9 5 14.5t14 5.5h58q9 0 13.5 -5.5t4.5 -14.5v-90q0 -19 -18 -19h-58q-8 0 -13.5 5zM413.5 970q-5.5 5 -5.5 14v90q0 20 19 20h57q9 0 14 -5.5t5 -14.5v-90q0 -19 -19 -19h-57q-8 0 -13.5 5z
" />
    <glyph glyph-name="uni022C" unicode="&#x22c;" horiz-adv-x="695" 
d="M177 22.5q-63 28.5 -95 109t-32 235.5t32.5 237t95.5 111.5t169 29.5q107 0 170.5 -29.5t95.5 -111t32 -237.5q0 -155 -32.5 -235.5t-95 -109t-170.5 -28.5q-107 0 -170 28.5zM452.5 125q36.5 20 52.5 75.5t16 166.5q0 115 -16.5 172t-52.5 76t-105 19q-67 0 -103 -19.5
t-53 -76t-17 -171.5q0 -112 15.5 -167t51.5 -75t106 -20q69 0 105.5 20zM219 1051h275v-73h-275v73zM196.5 888q28.5 29 70.5 29q24 0 42.5 -7t44.5 -22q21 -12 34 -17.5t28 -5.5q22 0 35 14.5t14 41.5h63q-2 -61 -28.5 -93t-72.5 -32q-23 0 -43 7.5t-45 21.5
q-22 12 -35.5 17.5t-27.5 5.5q-21 0 -34.5 -14t-14.5 -39h-62q3 64 31.5 93z" />
    <glyph glyph-name="OE" unicode="&#x152;" horiz-adv-x="1046" 
d="M663 606.5q-19 -17.5 -19 -52.5v-131l307 -7v-97l-307 -7v-127q0 -74 72 -74h280v-103q-126 -11 -304 -13q-98 0 -139 50q-35 -28 -85 -39.5t-121 -11.5q-107 0 -170 28.5t-95 109t-32 235.5t32.5 237t95.5 111.5t169 29.5q73 0 124 -12.5t86 -43.5q22 25 53.5 37
t65.5 12q140 0 320 -11v-103h-279q-35 0 -54 -17.5zM452.5 125q36.5 20 52.5 75.5t16 166.5q0 115 -16.5 172t-52.5 76t-105 19q-67 0 -103 -19.5t-53 -76t-17 -171.5q0 -112 15.5 -167t51.5 -75t106 -20q69 0 105.5 20z" />
    <glyph glyph-name="P" unicode="P" horiz-adv-x="615" 
d="M69 738h305q89 0 147 -50.5t58 -196.5q0 -254 -203 -254q-31 0 -91 5t-93 10v-252h-123v738zM358 349q46 0 71.5 33t25.5 108q0 137 -93 137h-170v-278h166z" />
    <glyph glyph-name="uni1E56" unicode="&#x1e56;" horiz-adv-x="615" 
d="M69 738h305q89 0 147 -50.5t58 -196.5q0 -254 -203 -254q-31 0 -91 5t-93 10v-252h-123v738zM358 349q46 0 71.5 33t25.5 108q0 137 -93 137h-170v-278h166zM254.5 815q-5.5 5 -5.5 14v90q0 20 19 20h57q9 0 14 -5.5t5 -14.5v-90q0 -19 -19 -19h-57q-8 0 -13.5 5z" />
    <glyph glyph-name="Thorn" unicode="&#xde;" horiz-adv-x="577" 
d="M69 738h123v-125h144q89 0 147 -47.5t58 -185.5q0 -240 -203 -240q-37 0 -146 15v-155h-123v738zM320 252q46 0 71.5 29.5t25.5 97.5q0 123 -93 123h-132v-250h128z" />
    <glyph glyph-name="Q" unicode="Q" horiz-adv-x="695" 
d="M177 22.5q-63 28.5 -95 109t-32 235.5t32.5 237t95.5 111.5t169 29.5q107 0 170.5 -29.5t95.5 -111t32 -237.5q0 -155 -32.5 -235.5t-95 -109t-170.5 -28.5q-107 0 -170 28.5zM452.5 125q36.5 20 52.5 75.5t16 166.5q0 115 -16.5 172t-52.5 76t-105 19q-67 0 -103 -19.5
t-53 -76t-17 -171.5q0 -112 15.5 -167t51.5 -75t106 -20q69 0 105.5 20zM386.5 -148q-53.5 39 -59.5 112h86q8 -31 34 -46t59 -15q20 0 58 9v-92q-30 -7 -53 -7q-71 0 -124.5 39z" />
    <glyph glyph-name="R" unicode="R" horiz-adv-x="620" 
d="M69 738h300q94 0 149 -49.5t55 -179.5q0 -98 -34.5 -143t-90.5 -64l142 -302h-125l-128 284q-61 0 -145 2v-286h-123v738zM348 383q48 0 74.5 27.5t26.5 98.5q0 68 -26.5 93t-74.5 25h-156v-244h156z" />
    <glyph glyph-name="Racute" unicode="&#x154;" horiz-adv-x="620" 
d="M69 738h300q94 0 149 -49.5t55 -179.5q0 -98 -34.5 -143t-90.5 -64l142 -302h-125l-128 284q-61 0 -145 2v-286h-123v738zM348 383q48 0 74.5 27.5t26.5 98.5q0 68 -26.5 93t-74.5 25h-156v-244h156zM355 930h102l-119 -139h-72z" />
    <glyph glyph-name="Rcaron" unicode="&#x158;" horiz-adv-x="620" 
d="M69 738h300q94 0 149 -49.5t55 -179.5q0 -98 -34.5 -143t-90.5 -64l142 -302h-125l-128 284q-61 0 -145 2v-286h-123v738zM348 383q48 0 74.5 27.5t26.5 98.5q0 68 -26.5 93t-74.5 25h-156v-244h156zM150 930h72l75 -83l81 83h73l-113 -139h-86z" />
    <glyph glyph-name="Rcommaaccent" unicode="&#x156;" horiz-adv-x="620" 
d="M69 738h300q94 0 149 -49.5t55 -179.5q0 -98 -34.5 -143t-90.5 -64l142 -302h-125l-128 284q-61 0 -145 2v-286h-123v738zM348 383q48 0 74.5 27.5t26.5 98.5q0 68 -26.5 93t-74.5 25h-156v-244h156zM216 -160l28 6q23 5 34.5 12t17 23.5t5.5 49.5h76q0 -78 -24.5 -110
t-89.5 -32h-47v51z" />
    <glyph glyph-name="uni0210" unicode="&#x210;" horiz-adv-x="620" 
d="M69 738h300q94 0 149 -49.5t55 -179.5q0 -98 -34.5 -143t-90.5 -64l142 -302h-125l-128 284q-61 0 -145 2v-286h-123v738zM348 383q48 0 74.5 27.5t26.5 98.5q0 68 -26.5 93t-74.5 25h-156v-244h156zM75 930h101l90 -139h-73zM242 930h101l90 -139h-73z" />
    <glyph glyph-name="uni1E5A" unicode="&#x1e5a;" horiz-adv-x="620" 
d="M69 738h300q94 0 149 -49.5t55 -179.5q0 -98 -34.5 -143t-90.5 -64l142 -302h-125l-128 284q-61 0 -145 2v-286h-123v738zM348 383q48 0 74.5 27.5t26.5 98.5q0 68 -26.5 93t-74.5 25h-156v-244h156zM258.5 -215q-5.5 5 -5.5 14v90q0 20 19 20h57q9 0 14 -5.5t5 -14.5
v-90q0 -19 -19 -19h-57q-8 0 -13.5 5z" />
    <glyph glyph-name="uni0212" unicode="&#x212;" horiz-adv-x="620" 
d="M69 738h300q94 0 149 -49.5t55 -179.5q0 -98 -34.5 -143t-90.5 -64l142 -302h-125l-128 284q-61 0 -145 2v-286h-123v738zM348 383q48 0 74.5 27.5t26.5 98.5q0 68 -26.5 93t-74.5 25h-156v-244h156zM396.5 899q36.5 -36 36.5 -112h-58q0 47 -22 69t-56 22
q-79 -2 -79 -91h-59q0 76 36.5 112t101.5 36q63 0 99.5 -36z" />
    <glyph glyph-name="uni1E5E" unicode="&#x1e5e;" horiz-adv-x="620" 
d="M69 738h300q94 0 149 -49.5t55 -179.5q0 -98 -34.5 -143t-90.5 -64l142 -302h-125l-128 284q-61 0 -145 2v-286h-123v738zM348 383q48 0 74.5 27.5t26.5 98.5q0 68 -26.5 93t-74.5 25h-156v-244h156zM164 -131h275v-73h-275v73z" />
    <glyph glyph-name="S" unicode="S" horiz-adv-x="585" 
d="M167 0q-66 6 -109 16v97q90 -8 223 -8q67 0 101.5 19t34.5 69v35q0 39 -22 60t-65 21h-69q-105 0 -157.5 46t-52.5 149v38q0 104 58 153t172 49q52 0 113.5 -7t105.5 -16v-97q-135 9 -205 9q-63 0 -94.5 -20.5t-31.5 -75.5v-25q0 -45 24.5 -65t74.5 -20h77
q93 0 141.5 -50.5t48.5 -133.5v-47q0 -115 -64 -158.5t-184 -43.5q-54 0 -120 6z" />
    <glyph glyph-name="Sacute" unicode="&#x15a;" horiz-adv-x="585" 
d="M167 0q-66 6 -109 16v97q90 -8 223 -8q67 0 101.5 19t34.5 69v35q0 39 -22 60t-65 21h-69q-105 0 -157.5 46t-52.5 149v38q0 104 58 153t172 49q52 0 113.5 -7t105.5 -16v-97q-135 9 -205 9q-63 0 -94.5 -20.5t-31.5 -75.5v-25q0 -45 24.5 -65t74.5 -20h77
q93 0 141.5 -50.5t48.5 -133.5v-47q0 -115 -64 -158.5t-184 -43.5q-54 0 -120 6zM345 930h102l-119 -139h-72z" />
    <glyph glyph-name="uni1E64" unicode="&#x1e64;" horiz-adv-x="585" 
d="M167 0q-66 6 -109 16v97q90 -8 223 -8q67 0 101.5 19t34.5 69v35q0 39 -22 60t-65 21h-69q-105 0 -157.5 46t-52.5 149v38q0 104 58 153t172 49q52 0 113.5 -7t105.5 -16v-97q-135 9 -205 9q-63 0 -94.5 -20.5t-31.5 -75.5v-25q0 -45 24.5 -65t74.5 -20h77
q93 0 141.5 -50.5t48.5 -133.5v-47q0 -115 -64 -158.5t-184 -43.5q-54 0 -120 6zM317 930h102l-119 -139h-72zM284.5 964q-5.5 5 -5.5 14v90q0 20 19 20h57q9 0 14 -5.5t5 -14.5v-90q0 -19 -19 -19h-57q-8 0 -13.5 5z" />
    <glyph glyph-name="Scaron" unicode="&#x160;" horiz-adv-x="585" 
d="M167 0q-66 6 -109 16v97q90 -8 223 -8q67 0 101.5 19t34.5 69v35q0 39 -22 60t-65 21h-69q-105 0 -157.5 46t-52.5 149v38q0 104 58 153t172 49q52 0 113.5 -7t105.5 -16v-97q-135 9 -205 9q-63 0 -94.5 -20.5t-31.5 -75.5v-25q0 -45 24.5 -65t74.5 -20h77
q93 0 141.5 -50.5t48.5 -133.5v-47q0 -115 -64 -158.5t-184 -43.5q-54 0 -120 6zM140 930h72l75 -83l81 83h73l-113 -139h-86z" />
    <glyph glyph-name="uni1E66" unicode="&#x1e66;" horiz-adv-x="585" 
d="M167 0q-66 6 -109 16v97q90 -8 223 -8q67 0 101.5 19t34.5 69v35q0 39 -22 60t-65 21h-69q-105 0 -157.5 46t-52.5 149v38q0 104 58 153t172 49q52 0 113.5 -7t105.5 -16v-97q-135 9 -205 9q-63 0 -94.5 -20.5t-31.5 -75.5v-25q0 -45 24.5 -65t74.5 -20h77
q93 0 141.5 -50.5t48.5 -133.5v-47q0 -115 -64 -158.5t-184 -43.5q-54 0 -120 6zM140 930h72l75 -83l81 83h73l-113 -139h-86zM242.5 970q-5.5 5 -5.5 14v90q0 20 19 20h57q9 0 14 -5.5t5 -14.5v-90q0 -19 -19 -19h-57q-8 0 -13.5 5z" />
    <glyph glyph-name="Scedilla" unicode="&#x15e;" horiz-adv-x="585" 
d="M486.5 376.5q48.5 -50.5 48.5 -133.5v-47q0 -107 -55.5 -151.5t-159.5 -49.5l-30 -48q32 -2 50.5 -18.5t18.5 -46.5q0 -37 -26 -57t-77 -20h-42v51l19 2q46 6 46 39q0 15 -11.5 25.5t-41.5 13.5l38 58q-54 2 -111.5 7.5t-94.5 14.5v97q90 -8 223 -8q67 0 101.5 19
t34.5 69v35q0 39 -22 60t-65 21h-69q-105 0 -157.5 46t-52.5 149v38q0 104 58 153t172 49q52 0 113.5 -7t105.5 -16v-97q-135 9 -205 9q-63 0 -94.5 -20.5t-31.5 -75.5v-25q0 -45 24.5 -65t74.5 -20h77q93 0 141.5 -50.5z" />
    <glyph glyph-name="Scircumflex" unicode="&#x15c;" horiz-adv-x="585" 
d="M167 0q-66 6 -109 16v97q90 -8 223 -8q67 0 101.5 19t34.5 69v35q0 39 -22 60t-65 21h-69q-105 0 -157.5 46t-52.5 149v38q0 104 58 153t172 49q52 0 113.5 -7t105.5 -16v-97q-135 9 -205 9q-63 0 -94.5 -20.5t-31.5 -75.5v-25q0 -45 24.5 -65t74.5 -20h77
q93 0 141.5 -50.5t48.5 -133.5v-47q0 -115 -64 -158.5t-184 -43.5q-54 0 -120 6zM248 930h85l103 -139h-73l-75 83l-80 -83h-73z" />
    <glyph glyph-name="Scommaaccent" unicode="&#x218;" horiz-adv-x="585" 
d="M167 0q-66 6 -109 16v97q90 -8 223 -8q67 0 101.5 19t34.5 69v35q0 39 -22 60t-65 21h-69q-105 0 -157.5 46t-52.5 149v38q0 104 58 153t172 49q52 0 113.5 -7t105.5 -16v-97q-135 9 -205 9q-63 0 -94.5 -20.5t-31.5 -75.5v-25q0 -45 24.5 -65t74.5 -20h77
q93 0 141.5 -50.5t48.5 -133.5v-47q0 -115 -64 -158.5t-184 -43.5q-54 0 -120 6zM202 -160l28 6q23 5 34.5 12t17 23.5t5.5 49.5h76q0 -78 -24.5 -110t-89.5 -32h-47v51z" />
    <glyph glyph-name="uni1E60" unicode="&#x1e60;" horiz-adv-x="585" 
d="M167 0q-66 6 -109 16v97q90 -8 223 -8q67 0 101.5 19t34.5 69v35q0 39 -22 60t-65 21h-69q-105 0 -157.5 46t-52.5 149v38q0 104 58 153t172 49q52 0 113.5 -7t105.5 -16v-97q-135 9 -205 9q-63 0 -94.5 -20.5t-31.5 -75.5v-25q0 -45 24.5 -65t74.5 -20h77
q93 0 141.5 -50.5t48.5 -133.5v-47q0 -115 -64 -158.5t-184 -43.5q-54 0 -120 6zM242.5 815q-5.5 5 -5.5 14v90q0 20 19 20h57q9 0 14 -5.5t5 -14.5v-90q0 -19 -19 -19h-57q-8 0 -13.5 5z" />
    <glyph glyph-name="uni1E62" unicode="&#x1e62;" horiz-adv-x="585" 
d="M167 0q-66 6 -109 16v97q90 -8 223 -8q67 0 101.5 19t34.5 69v35q0 39 -22 60t-65 21h-69q-105 0 -157.5 46t-52.5 149v38q0 104 58 153t172 49q52 0 113.5 -7t105.5 -16v-97q-135 9 -205 9q-63 0 -94.5 -20.5t-31.5 -75.5v-25q0 -45 24.5 -65t74.5 -20h77
q93 0 141.5 -50.5t48.5 -133.5v-47q0 -115 -64 -158.5t-184 -43.5q-54 0 -120 6zM244.5 -215q-5.5 5 -5.5 14v90q0 20 19 20h57q9 0 14 -5.5t5 -14.5v-90q0 -19 -19 -19h-57q-8 0 -13.5 5z" />
    <glyph glyph-name="uni1E68" unicode="&#x1e68;" horiz-adv-x="585" 
d="M167 0q-66 6 -109 16v97q90 -8 223 -8q67 0 101.5 19t34.5 69v35q0 39 -22 60t-65 21h-69q-105 0 -157.5 46t-52.5 149v38q0 104 58 153t172 49q52 0 113.5 -7t105.5 -16v-97q-135 9 -205 9q-63 0 -94.5 -20.5t-31.5 -75.5v-25q0 -45 24.5 -65t74.5 -20h77
q93 0 141.5 -50.5t48.5 -133.5v-47q0 -115 -64 -158.5t-184 -43.5q-54 0 -120 6zM244.5 -215q-5.5 5 -5.5 14v90q0 20 19 20h57q9 0 14 -5.5t5 -14.5v-90q0 -19 -19 -19h-57q-8 0 -13.5 5zM242.5 815q-5.5 5 -5.5 14v90q0 20 19 20h57q9 0 14 -5.5t5 -14.5v-90
q0 -19 -19 -19h-57q-8 0 -13.5 5z" />
    <glyph glyph-name="uni1E9E" unicode="&#x1e9e;" horiz-adv-x="704" 
d="M604.5 362q49.5 -44 49.5 -129v-48q0 -109 -59.5 -150t-171.5 -41q-35 0 -79.5 5t-75.5 12v97q76 -2 138 -2q60 0 92 18.5t32 68.5v32q0 42 -23.5 61.5t-75.5 19.5h-121v100h100l-7 136l73 85h-200q-41 0 -62.5 -20.5t-21.5 -59.5v-547h-123v545q0 100 55.5 146.5
t144.5 46.5q180 0 342 -9l-6 -11l6 4l-93 -225l-82 -91h28q91 0 140.5 -44z" />
    <glyph glyph-name="uni018F" unicode="&#x18f;" horiz-adv-x="620" 
d="M111.5 72.5q-64.5 78.5 -64.5 256.5v82h398q-1 90 -21.5 138t-63.5 66.5t-120 18.5q-79 0 -161 -11v95q83 27 194 27q102 0 165.5 -29t97.5 -108.5t34 -228.5q0 -151 -33 -235.5t-91 -117t-143 -32.5q-127 0 -191.5 78.5zM405 149.5q35 44.5 38 161.5h-271
q1 -77 13.5 -121.5t40.5 -64.5t77 -20q67 0 102 44.5z" />
    <glyph glyph-name="T" unicode="T" horiz-adv-x="579" 
d="M228 627h-212v111h547v-111h-211v-627h-124v627z" />
    <glyph glyph-name="Tbar" unicode="&#x166;" horiz-adv-x="579" 
d="M352 627v-210h172v-64h-172v-353h-124v353h-173v64h173v210h-212v111h547v-111h-211z" />
    <glyph glyph-name="Tcaron" unicode="&#x164;" horiz-adv-x="579" 
d="M228 627h-212v111h547v-111h-211v-627h-124v627zM143 930h72l75 -83l81 83h73l-113 -139h-86z" />
    <glyph glyph-name="uni0162" unicode="&#x162;" horiz-adv-x="579" 
d="M327 0l-34 -53q32 -2 50.5 -18.5t18.5 -46.5q0 -37 -26 -57t-77 -20h-42v51l19 2q46 6 46 39q0 15 -11.5 25.5t-41.5 13.5l42 64h-43v627h-212v111h547v-111h-211v-627h-25z" />
    <glyph glyph-name="uni021A" unicode="&#x21a;" horiz-adv-x="579" 
d="M228 627h-212v111h547v-111h-211v-627h-124v627zM172 -160l28 6q23 5 34.5 12t17 23.5t5.5 49.5h76q0 -78 -24.5 -110t-89.5 -32h-47v51z" />
    <glyph glyph-name="uni1E6A" unicode="&#x1e6a;" horiz-adv-x="579" 
d="M228 627h-212v111h547v-111h-211v-627h-124v627zM245.5 815q-5.5 5 -5.5 14v90q0 20 19 20h57q9 0 14 -5.5t5 -14.5v-90q0 -19 -19 -19h-57q-8 0 -13.5 5z" />
    <glyph glyph-name="uni1E6C" unicode="&#x1e6c;" horiz-adv-x="579" 
d="M228 627h-212v111h547v-111h-211v-627h-124v627zM247.5 -215q-5.5 5 -5.5 14v90q0 20 19 20h57q9 0 14 -5.5t5 -14.5v-90q0 -19 -19 -19h-57q-8 0 -13.5 5z" />
    <glyph glyph-name="uni1E6E" unicode="&#x1e6e;" horiz-adv-x="579" 
d="M228 627h-212v111h547v-111h-211v-627h-124v627zM153 -131h275v-73h-275v73z" />
    <glyph glyph-name="U" unicode="U" horiz-adv-x="682" 
d="M131.5 47.5q-72.5 52.5 -72.5 187.5v503h123v-503q0 -70 40 -99.5t119 -29.5t119 29.5t40 99.5v503h123v-503q0 -135 -72.5 -187.5t-209.5 -52.5t-209.5 52.5z" />
    <glyph glyph-name="Uacute" unicode="&#xda;" horiz-adv-x="682" 
d="M131.5 47.5q-72.5 52.5 -72.5 187.5v503h123v-503q0 -70 40 -99.5t119 -29.5t119 29.5t40 99.5v503h123v-503q0 -135 -72.5 -187.5t-209.5 -52.5t-209.5 52.5zM392 930h102l-119 -139h-72z" />
    <glyph glyph-name="Ubreve" unicode="&#x16c;" horiz-adv-x="682" 
d="M131.5 47.5q-72.5 52.5 -72.5 187.5v503h123v-503q0 -70 40 -99.5t119 -29.5t119 29.5t40 99.5v503h123v-503q0 -135 -72.5 -187.5t-209.5 -52.5t-209.5 52.5zM227.5 821q-36.5 36 -36.5 112h58q0 -47 22 -69t56 -22q79 2 79 91h59q0 -76 -36.5 -112t-101.5 -36
q-63 0 -99.5 36z" />
    <glyph glyph-name="Ucircumflex" unicode="&#xdb;" horiz-adv-x="682" 
d="M131.5 47.5q-72.5 52.5 -72.5 187.5v503h123v-503q0 -70 40 -99.5t119 -29.5t119 29.5t40 99.5v503h123v-503q0 -135 -72.5 -187.5t-209.5 -52.5t-209.5 52.5zM295 930h85l103 -139h-73l-75 83l-80 -83h-73z" />
    <glyph glyph-name="uni0214" unicode="&#x214;" horiz-adv-x="682" 
d="M131.5 47.5q-72.5 52.5 -72.5 187.5v503h123v-503q0 -70 40 -99.5t119 -29.5t119 29.5t40 99.5v503h123v-503q0 -135 -72.5 -187.5t-209.5 -52.5t-209.5 52.5zM112 930h101l90 -139h-73zM279 930h101l90 -139h-73z" />
    <glyph glyph-name="Udieresis" unicode="&#xdc;" horiz-adv-x="682" 
d="M131.5 47.5q-72.5 52.5 -72.5 187.5v503h123v-503q0 -70 40 -99.5t119 -29.5t119 29.5t40 99.5v503h123v-503q0 -135 -72.5 -187.5t-209.5 -52.5t-209.5 52.5zM174.5 808q-5.5 5 -5.5 14v90q0 9 5 14.5t14 5.5h58q9 0 13.5 -5.5t4.5 -14.5v-90q0 -19 -18 -19h-58
q-8 0 -13.5 5zM395.5 808q-5.5 5 -5.5 14v90q0 20 19 20h57q9 0 14 -5.5t5 -14.5v-90q0 -19 -19 -19h-57q-8 0 -13.5 5z" />
    <glyph glyph-name="uni1EE4" unicode="&#x1ee4;" horiz-adv-x="682" 
d="M131.5 47.5q-72.5 52.5 -72.5 187.5v503h123v-503q0 -70 40 -99.5t119 -29.5t119 29.5t40 99.5v503h123v-503q0 -135 -72.5 -187.5t-209.5 -52.5t-209.5 52.5zM291.5 -215q-5.5 5 -5.5 14v90q0 20 19 20h57q9 0 14 -5.5t5 -14.5v-90q0 -19 -19 -19h-57q-8 0 -13.5 5z" />
    <glyph glyph-name="Ugrave" unicode="&#xd9;" horiz-adv-x="682" 
d="M131.5 47.5q-72.5 52.5 -72.5 187.5v503h123v-503q0 -70 40 -99.5t119 -29.5t119 29.5t40 99.5v503h123v-503q0 -135 -72.5 -187.5t-209.5 -52.5t-209.5 52.5zM193 930h101l90 -139h-73z" />
    <glyph glyph-name="uni1EE6" unicode="&#x1ee6;" horiz-adv-x="682" 
d="M131.5 47.5q-72.5 52.5 -72.5 187.5v503h123v-503q0 -70 40 -99.5t119 -29.5t119 29.5t40 99.5v503h123v-503q0 -135 -72.5 -187.5t-209.5 -52.5t-209.5 52.5zM307 824q46 14 46 47q0 34 -38 34q-12 0 -34 -6v49q24 8 50 8q43 0 65.5 -21.5t22.5 -59.5t-27 -64t-85 -42
v55z" />
    <glyph glyph-name="Uhorn" unicode="&#x1af;" horiz-adv-x="682" 
d="M690.5 736q-24.5 -43 -67.5 -58v-443q0 -135 -72.5 -187.5t-209.5 -52.5t-209.5 52.5t-72.5 187.5v503h123v-503q0 -70 40 -99.5t119 -29.5t119 29.5t40 99.5v503h55q36 0 55 26t19 86h86q0 -71 -24.5 -114z" />
    <glyph glyph-name="uni1EE8" unicode="&#x1ee8;" horiz-adv-x="682" 
d="M690.5 736q-24.5 -43 -67.5 -58v-443q0 -135 -72.5 -187.5t-209.5 -52.5t-209.5 52.5t-72.5 187.5v503h123v-503q0 -70 40 -99.5t119 -29.5t119 29.5t40 99.5v503h55q36 0 55 26t19 86h86q0 -71 -24.5 -114zM385 930h102l-119 -139h-72z" />
    <glyph glyph-name="uni1EF0" unicode="&#x1ef0;" horiz-adv-x="682" 
d="M690.5 736q-24.5 -43 -67.5 -58v-443q0 -135 -72.5 -187.5t-209.5 -52.5t-209.5 52.5t-72.5 187.5v503h123v-503q0 -70 40 -99.5t119 -29.5t119 29.5t40 99.5v503h55q36 0 55 26t19 86h86q0 -71 -24.5 -114zM286.5 -215q-5.5 5 -5.5 14v90q0 20 19 20h57q9 0 14 -5.5
t5 -14.5v-90q0 -19 -19 -19h-57q-8 0 -13.5 5z" />
    <glyph glyph-name="uni1EEA" unicode="&#x1eea;" horiz-adv-x="682" 
d="M690.5 736q-24.5 -43 -67.5 -58v-443q0 -135 -72.5 -187.5t-209.5 -52.5t-209.5 52.5t-72.5 187.5v503h123v-503q0 -70 40 -99.5t119 -29.5t119 29.5t40 99.5v503h55q36 0 55 26t19 86h86q0 -71 -24.5 -114zM194 930h101l90 -139h-73z" />
    <glyph glyph-name="uni1EEC" unicode="&#x1eec;" horiz-adv-x="682" 
d="M690.5 736q-24.5 -43 -67.5 -58v-443q0 -135 -72.5 -187.5t-209.5 -52.5t-209.5 52.5t-72.5 187.5v503h123v-503q0 -70 40 -99.5t119 -29.5t119 29.5t40 99.5v503h55q36 0 55 26t19 86h86q0 -71 -24.5 -114zM316 824q46 14 46 47q0 34 -38 34q-12 0 -34 -6v49q24 8 50 8
q43 0 65.5 -21.5t22.5 -59.5t-27 -64t-85 -42v55z" />
    <glyph glyph-name="uni1EEE" unicode="&#x1eee;" horiz-adv-x="682" 
d="M690.5 736q-24.5 -43 -67.5 -58v-443q0 -135 -72.5 -187.5t-209.5 -52.5t-209.5 52.5t-72.5 187.5v503h123v-503q0 -70 40 -99.5t119 -29.5t119 29.5t40 99.5v503h55q36 0 55 26t19 86h86q0 -71 -24.5 -114zM198.5 888q28.5 29 70.5 29q24 0 42.5 -7t44.5 -22
q21 -12 34 -17.5t28 -5.5q22 0 35 14.5t14 41.5h63q-2 -61 -28.5 -93t-72.5 -32q-23 0 -43 7.5t-45 21.5q-22 12 -35.5 17.5t-27.5 5.5q-21 0 -34.5 -14t-14.5 -39h-62q3 64 31.5 93z" />
    <glyph glyph-name="Uhungarumlaut" unicode="&#x170;" horiz-adv-x="682" 
d="M131.5 47.5q-72.5 52.5 -72.5 187.5v503h123v-503q0 -70 40 -99.5t119 -29.5t119 29.5t40 99.5v503h123v-503q0 -135 -72.5 -187.5t-209.5 -52.5t-209.5 52.5zM287 930h95l-107 -139h-72zM446 930h95l-107 -139h-72z" />
    <glyph glyph-name="uni0216" unicode="&#x216;" horiz-adv-x="682" 
d="M131.5 47.5q-72.5 52.5 -72.5 187.5v503h123v-503q0 -70 40 -99.5t119 -29.5t119 29.5t40 99.5v503h123v-503q0 -135 -72.5 -187.5t-209.5 -52.5t-209.5 52.5zM433.5 899q36.5 -36 36.5 -112h-58q0 47 -22 69t-56 22q-79 -2 -79 -91h-59q0 76 36.5 112t101.5 36
q63 0 99.5 -36z" />
    <glyph glyph-name="Umacron" unicode="&#x16a;" horiz-adv-x="682" 
d="M131.5 47.5q-72.5 52.5 -72.5 187.5v503h123v-503q0 -70 40 -99.5t119 -29.5t119 29.5t40 99.5v503h123v-503q0 -135 -72.5 -187.5t-209.5 -52.5t-209.5 52.5zM191 889h275v-73h-275v73z" />
    <glyph glyph-name="uni1E7A" unicode="&#x1e7a;" horiz-adv-x="682" 
d="M131.5 47.5q-72.5 52.5 -72.5 187.5v503h123v-503q0 -70 40 -99.5t119 -29.5t119 29.5t40 99.5v503h123v-503q0 -135 -72.5 -187.5t-209.5 -52.5t-209.5 52.5zM191 889h275v-73h-275v73zM174.5 946q-5.5 5 -5.5 14v90q0 9 5 14.5t14 5.5h58q9 0 13.5 -5.5t4.5 -14.5v-90
q0 -19 -18 -19h-58q-8 0 -13.5 5zM395.5 946q-5.5 5 -5.5 14v90q0 20 19 20h57q9 0 14 -5.5t5 -14.5v-90q0 -19 -19 -19h-57q-8 0 -13.5 5z" />
    <glyph glyph-name="Uogonek" unicode="&#x172;" horiz-adv-x="682" 
d="M623 738v-503q0 -113 -51.5 -167.5t-147.5 -67.5h2q-54 -32 -54 -72q0 -26 18 -41t49 -15h8v-59q-10 -3 -30 -3q-52 0 -79 26t-27 64q0 61 61 96q-10 -1 -31 -1q-137 0 -209.5 52.5t-72.5 187.5v503h123v-503q0 -70 40 -99.5t119 -29.5t119 29.5t40 99.5v503h123z" />
    <glyph glyph-name="Uring" unicode="&#x16e;" horiz-adv-x="682" 
d="M131.5 47.5q-72.5 52.5 -72.5 187.5v503h123v-503q0 -70 40 -99.5t119 -29.5t119 29.5t40 99.5v503h123v-503q0 -135 -72.5 -187.5t-209.5 -52.5t-209.5 52.5zM244.5 791.5q-29.5 25.5 -29.5 85.5t29.5 86t89.5 26t89 -25.5t29 -86.5q0 -60 -28.5 -85.5t-89.5 -25.5
q-60 0 -89.5 25.5zM380 827q14 14 14 50t-14 50.5t-46 14.5t-46.5 -14.5t-14.5 -50.5t14.5 -50t46.5 -14t46 14z" />
    <glyph glyph-name="Utilde" unicode="&#x168;" horiz-adv-x="682" 
d="M131.5 47.5q-72.5 52.5 -72.5 187.5v503h123v-503q0 -70 40 -99.5t119 -29.5t119 29.5t40 99.5v503h123v-503q0 -135 -72.5 -187.5t-209.5 -52.5t-209.5 52.5zM183.5 888q28.5 29 70.5 29q24 0 42.5 -7t44.5 -22q21 -12 34 -17.5t28 -5.5q22 0 35 14.5t14 41.5h63
q-2 -61 -28.5 -93t-72.5 -32q-23 0 -43 7.5t-45 21.5q-22 12 -35.5 17.5t-27.5 5.5q-21 0 -34.5 -14t-14.5 -39h-62q3 64 31.5 93z" />
    <glyph glyph-name="uni1E78" unicode="&#x1e78;" horiz-adv-x="682" 
d="M131.5 47.5q-72.5 52.5 -72.5 187.5v503h123v-503q0 -70 40 -99.5t119 -29.5t119 29.5t40 99.5v503h123v-503q0 -135 -72.5 -187.5t-209.5 -52.5t-209.5 52.5zM183.5 888q28.5 29 70.5 29q24 0 42.5 -7t44.5 -22q21 -12 34 -17.5t28 -5.5q22 0 35 14.5t14 41.5h63
q-2 -61 -28.5 -93t-72.5 -32q-23 0 -43 7.5t-45 21.5q-22 12 -35.5 17.5t-27.5 5.5q-21 0 -34.5 -14t-14.5 -39h-62q3 64 31.5 93zM392 1080h102l-119 -139h-72z" />
    <glyph glyph-name="V" unicode="V" horiz-adv-x="681" 
d="M23 738h128l190 -605l190 605h128l-240 -738h-156z" />
    <glyph glyph-name="W" unicode="W" horiz-adv-x="991" 
d="M23 738h128l133 -558l154 558h116l153 -558l133 558h128l-181 -738h-128l-163 559l-164 -559h-128z" />
    <glyph glyph-name="Wacute" unicode="&#x1e82;" horiz-adv-x="991" 
d="M23 738h128l133 -558l154 558h116l153 -558l133 558h128l-181 -738h-128l-163 559l-164 -559h-128zM575 930h102l-119 -139h-72z" />
    <glyph glyph-name="Wcircumflex" unicode="&#x174;" horiz-adv-x="991" 
d="M23 738h128l133 -558l154 558h116l153 -558l133 558h128l-181 -738h-128l-163 559l-164 -559h-128zM478 930h85l103 -139h-73l-75 83l-80 -83h-73z" />
    <glyph glyph-name="Wdieresis" unicode="&#x1e84;" horiz-adv-x="991" 
d="M23 738h128l133 -558l154 558h116l153 -558l133 558h128l-181 -738h-128l-163 559l-164 -559h-128zM357.5 808q-5.5 5 -5.5 14v90q0 9 5 14.5t14 5.5h58q9 0 13.5 -5.5t4.5 -14.5v-90q0 -19 -18 -19h-58q-8 0 -13.5 5zM578.5 808q-5.5 5 -5.5 14v90q0 20 19 20h57
q9 0 14 -5.5t5 -14.5v-90q0 -19 -19 -19h-57q-8 0 -13.5 5z" />
    <glyph glyph-name="Wgrave" unicode="&#x1e80;" horiz-adv-x="991" 
d="M23 738h128l133 -558l154 558h116l153 -558l133 558h128l-181 -738h-128l-163 559l-164 -559h-128zM376 930h101l90 -139h-73z" />
    <glyph glyph-name="X" unicode="X" horiz-adv-x="649" 
d="M396 362l227 -362h-137l-167 266l-156 -266h-136l227 370l-230 368h136l171 -272l158 272h137z" />
    <glyph glyph-name="Y" unicode="Y" horiz-adv-x="624" 
d="M250 231l-226 507h128l162 -381l162 381h125l-227 -507v-231h-124v231z" />
    <glyph glyph-name="Yacute" unicode="&#xdd;" horiz-adv-x="624" 
d="M250 231l-226 507h128l162 -381l162 381h125l-227 -507v-231h-124v231zM372 930h102l-119 -139h-72z" />
    <glyph glyph-name="Ycircumflex" unicode="&#x176;" horiz-adv-x="624" 
d="M250 231l-226 507h128l162 -381l162 381h125l-227 -507v-231h-124v231zM275 930h85l103 -139h-73l-75 83l-80 -83h-73z" />
    <glyph glyph-name="Ydieresis" unicode="&#x178;" horiz-adv-x="624" 
d="M250 231l-226 507h128l162 -381l162 381h125l-227 -507v-231h-124v231zM154.5 808q-5.5 5 -5.5 14v90q0 9 5 14.5t14 5.5h58q9 0 13.5 -5.5t4.5 -14.5v-90q0 -19 -18 -19h-58q-8 0 -13.5 5zM375.5 808q-5.5 5 -5.5 14v90q0 20 19 20h57q9 0 14 -5.5t5 -14.5v-90
q0 -19 -19 -19h-57q-8 0 -13.5 5z" />
    <glyph glyph-name="uni1E8E" unicode="&#x1e8e;" horiz-adv-x="624" 
d="M250 231l-226 507h128l162 -381l162 381h125l-227 -507v-231h-124v231zM271.5 -215q-5.5 5 -5.5 14v90q0 20 19 20h57q9 0 14 -5.5t5 -14.5v-90q0 -19 -19 -19h-57q-8 0 -13.5 5z" />
    <glyph glyph-name="uni1EF4" unicode="&#x1ef4;" horiz-adv-x="624" 
d="M250 231l-226 507h128l162 -381l162 381h125l-227 -507v-231h-124v231zM271.5 -215q-5.5 5 -5.5 14v90q0 20 19 20h57q9 0 14 -5.5t5 -14.5v-90q0 -19 -19 -19h-57q-8 0 -13.5 5z" />
    <glyph glyph-name="Ygrave" unicode="&#x1ef2;" horiz-adv-x="624" 
d="M250 231l-226 507h128l162 -381l162 381h125l-227 -507v-231h-124v231zM173 930h101l90 -139h-73z" />
    <glyph glyph-name="uni1EF6" unicode="&#x1ef6;" horiz-adv-x="624" 
d="M250 231l-226 507h128l162 -381l162 381h125l-227 -507v-231h-124v231zM287 824q46 14 46 47q0 34 -38 34q-12 0 -34 -6v49q24 8 50 8q43 0 65.5 -21.5t22.5 -59.5t-27 -64t-85 -42v55z" />
    <glyph glyph-name="uni0232" unicode="&#x232;" horiz-adv-x="624" 
d="M250 231l-226 507h128l162 -381l162 381h125l-227 -507v-231h-124v231zM171 889h275v-73h-275v73z" />
    <glyph glyph-name="uni1EF8" unicode="&#x1ef8;" horiz-adv-x="624" 
d="M250 231l-226 507h128l162 -381l162 381h125l-227 -507v-231h-124v231zM163.5 888q28.5 29 70.5 29q24 0 42.5 -7t44.5 -22q21 -12 34 -17.5t28 -5.5q22 0 35 14.5t14 41.5h63q-2 -61 -28.5 -93t-72.5 -32q-23 0 -43 7.5t-45 21.5q-22 12 -35.5 17.5t-27.5 5.5
q-21 0 -34.5 -14t-14.5 -39h-62q3 64 31.5 93z" />
    <glyph glyph-name="Z" unicode="Z" horiz-adv-x="569" 
d="M40 100l342 527h-342v111h492v-99l-341 -528h341v-111h-492v100z" />
    <glyph glyph-name="Zacute" unicode="&#x179;" horiz-adv-x="569" 
d="M40 100l342 527h-342v111h492v-99l-341 -528h341v-111h-492v100zM339 930h102l-119 -139h-72z" />
    <glyph glyph-name="Zcaron" unicode="&#x17d;" horiz-adv-x="569" 
d="M40 100l342 527h-342v111h492v-99l-341 -528h341v-111h-492v100zM134 930h72l75 -83l81 83h73l-113 -139h-86z" />
    <glyph glyph-name="Zdotaccent" unicode="&#x17b;" horiz-adv-x="569" 
d="M40 100l342 527h-342v111h492v-99l-341 -528h341v-111h-492v100zM236.5 815q-5.5 5 -5.5 14v90q0 20 19 20h57q9 0 14 -5.5t5 -14.5v-90q0 -19 -19 -19h-57q-8 0 -13.5 5z" />
    <glyph glyph-name="uni1E92" unicode="&#x1e92;" horiz-adv-x="569" 
d="M40 100l342 527h-342v111h492v-99l-341 -528h341v-111h-492v100zM238.5 -215q-5.5 5 -5.5 14v90q0 20 19 20h57q9 0 14 -5.5t5 -14.5v-90q0 -19 -19 -19h-57q-8 0 -13.5 5z" />
    <glyph glyph-name="a" unicode="a" horiz-adv-x="548" 
d="M75.5 30.5q-37.5 36.5 -37.5 98.5v45q0 64 43.5 102t129.5 38h153v47q0 30 -10 48t-37 27.5t-78 9.5h-162v72q91 25 210 25q102 0 151.5 -40t49.5 -134v-369h-97l-21 58q-10 -9 -41 -24.5t-72.5 -27.5t-82.5 -12q-61 0 -98.5 36.5zM308.5 95.5q46.5 14.5 55.5 19.5v140
l-116 -6q-87 -7 -87 -77v-22q0 -36 20.5 -52t52.5 -17q28 0 74.5 14.5z" />
    <glyph glyph-name="aacute" unicode="&#xe1;" horiz-adv-x="548" 
d="M75.5 30.5q-37.5 36.5 -37.5 98.5v45q0 64 43.5 102t129.5 38h153v47q0 30 -10 48t-37 27.5t-78 9.5h-162v72q91 25 210 25q102 0 151.5 -40t49.5 -134v-369h-97l-21 58q-10 -9 -41 -24.5t-72.5 -27.5t-82.5 -12q-61 0 -98.5 36.5zM308.5 95.5q46.5 14.5 55.5 19.5v140
l-116 -6q-87 -7 -87 -77v-22q0 -36 20.5 -52t52.5 -17q28 0 74.5 14.5zM320 770h102l-119 -139h-72z" />
    <glyph glyph-name="abreve" unicode="&#x103;" horiz-adv-x="548" 
d="M75.5 30.5q-37.5 36.5 -37.5 98.5v45q0 64 43.5 102t129.5 38h153v47q0 30 -10 48t-37 27.5t-78 9.5h-162v72q91 25 210 25q102 0 151.5 -40t49.5 -134v-369h-97l-21 58q-10 -9 -41 -24.5t-72.5 -27.5t-82.5 -12q-61 0 -98.5 36.5zM308.5 95.5q46.5 14.5 55.5 19.5v140
l-116 -6q-87 -7 -87 -77v-22q0 -36 20.5 -52t52.5 -17q28 0 74.5 14.5zM163.5 661q-36.5 36 -36.5 112h58q0 -47 22 -69t56 -22q79 2 79 91h59q0 -76 -36.5 -112t-101.5 -36q-63 0 -99.5 36z" />
    <glyph glyph-name="uni1EAF" unicode="&#x1eaf;" horiz-adv-x="548" 
d="M75.5 30.5q-37.5 36.5 -37.5 98.5v45q0 64 43.5 102t129.5 38h153v47q0 30 -10 48t-37 27.5t-78 9.5h-162v72q91 25 210 25q102 0 151.5 -40t49.5 -134v-369h-97l-21 58q-10 -9 -41 -24.5t-72.5 -27.5t-82.5 -12q-61 0 -98.5 36.5zM308.5 95.5q46.5 14.5 55.5 19.5v140
l-116 -6q-87 -7 -87 -77v-22q0 -36 20.5 -52t52.5 -17q28 0 74.5 14.5zM314 888h102l-119 -139h-72zM206 681q21 -16 54 -16q82 0 82 66h59q0 -60 -36.5 -88.5t-101.5 -28.5q-64 0 -100 28.5t-36 88.5h58q0 -34 21 -50z" />
    <glyph glyph-name="uni1EB7" unicode="&#x1eb7;" horiz-adv-x="548" 
d="M75.5 30.5q-37.5 36.5 -37.5 98.5v45q0 64 43.5 102t129.5 38h153v47q0 30 -10 48t-37 27.5t-78 9.5h-162v72q91 25 210 25q102 0 151.5 -40t49.5 -134v-369h-97l-21 58q-10 -9 -41 -24.5t-72.5 -27.5t-82.5 -12q-61 0 -98.5 36.5zM308.5 95.5q46.5 14.5 55.5 19.5v140
l-116 -6q-87 -7 -87 -77v-22q0 -36 20.5 -52t52.5 -17q28 0 74.5 14.5zM163.5 661q-36.5 36 -36.5 112h58q0 -47 22 -69t56 -22q79 2 79 91h59q0 -76 -36.5 -112t-101.5 -36q-63 0 -99.5 36zM223.5 -215q-5.5 5 -5.5 14v90q0 9 5 14.5t14 5.5h58q9 0 13.5 -5.5t4.5 -14.5
v-90q0 -19 -18 -19h-58q-8 0 -13.5 5z" />
    <glyph glyph-name="uni1EB1" unicode="&#x1eb1;" horiz-adv-x="548" 
d="M75.5 30.5q-37.5 36.5 -37.5 98.5v45q0 64 43.5 102t129.5 38h153v47q0 30 -10 48t-37 27.5t-78 9.5h-162v72q91 25 210 25q102 0 151.5 -40t49.5 -134v-369h-97l-21 58q-10 -9 -41 -24.5t-72.5 -27.5t-82.5 -12q-61 0 -98.5 36.5zM308.5 95.5q46.5 14.5 55.5 19.5v140
l-116 -6q-87 -7 -87 -77v-22q0 -36 20.5 -52t52.5 -17q28 0 74.5 14.5zM119 888h101l90 -139h-73zM206 681q21 -16 54 -16q82 0 82 66h59q0 -60 -36.5 -88.5t-101.5 -28.5q-64 0 -100 28.5t-36 88.5h58q0 -34 21 -50z" />
    <glyph glyph-name="uni1EB3" unicode="&#x1eb3;" horiz-adv-x="548" 
d="M75.5 30.5q-37.5 36.5 -37.5 98.5v45q0 64 43.5 102t129.5 38h153v47q0 30 -10 48t-37 27.5t-78 9.5h-162v72q91 25 210 25q102 0 151.5 -40t49.5 -134v-369h-97l-21 58q-10 -9 -41 -24.5t-72.5 -27.5t-82.5 -12q-61 0 -98.5 36.5zM308.5 95.5q46.5 14.5 55.5 19.5v140
l-116 -6q-87 -7 -87 -77v-22q0 -36 20.5 -52t52.5 -17q28 0 74.5 14.5zM243 761q46 14 46 47q0 34 -38 34q-12 0 -34 -6v49q24 8 50 8q43 0 65.5 -21.5t22.5 -59.5t-27 -64t-85 -42v55zM163 642.5q-36 28.5 -36 88.5h58q0 -34 21 -50t54 -16q82 0 82 66h59
q0 -60 -36.5 -88.5t-101.5 -28.5q-64 0 -100 28.5z" />
    <glyph glyph-name="uni1EB5" unicode="&#x1eb5;" horiz-adv-x="548" 
d="M75.5 30.5q-37.5 36.5 -37.5 98.5v45q0 64 43.5 102t129.5 38h153v47q0 30 -10 48t-37 27.5t-78 9.5h-162v72q91 25 210 25q102 0 151.5 -40t49.5 -134v-369h-97l-21 58q-10 -9 -41 -24.5t-72.5 -27.5t-82.5 -12q-61 0 -98.5 36.5zM308.5 95.5q46.5 14.5 55.5 19.5v140
l-116 -6q-87 -7 -87 -77v-22q0 -36 20.5 -52t52.5 -17q28 0 74.5 14.5zM222 858q15 -4 27 -8.5t15 -5.5q14 -6 28.5 -10.5t26.5 -4.5q20 0 31.5 9.5t11.5 27.5h63q-4 -53 -24.5 -75t-61.5 -22q-17 0 -34 4.5t-39 13.5q-36 15 -54 15q-19 0 -31 -9.5t-13 -25.5h-62
q3 54 26 74.5t59 20.5q16 0 31 -4zM206 681q21 -16 54 -16q82 0 82 66h59q0 -60 -36.5 -88.5t-101.5 -28.5q-64 0 -100 28.5t-36 88.5h58q0 -34 21 -50z" />
    <glyph glyph-name="acircumflex" unicode="&#xe2;" horiz-adv-x="548" 
d="M75.5 30.5q-37.5 36.5 -37.5 98.5v45q0 64 43.5 102t129.5 38h153v47q0 30 -10 48t-37 27.5t-78 9.5h-162v72q91 25 210 25q102 0 151.5 -40t49.5 -134v-369h-97l-21 58q-10 -9 -41 -24.5t-72.5 -27.5t-82.5 -12q-61 0 -98.5 36.5zM308.5 95.5q46.5 14.5 55.5 19.5v140
l-116 -6q-87 -7 -87 -77v-22q0 -36 20.5 -52t52.5 -17q28 0 74.5 14.5zM231 770h85l103 -139h-73l-75 83l-80 -83h-73z" />
    <glyph glyph-name="uni1EA5" unicode="&#x1ea5;" horiz-adv-x="548" 
d="M75.5 30.5q-37.5 36.5 -37.5 98.5v45q0 64 43.5 102t129.5 38h153v47q0 30 -10 48t-37 27.5t-78 9.5h-162v72q91 25 210 25q102 0 151.5 -40t49.5 -134v-369h-97l-21 58q-10 -9 -41 -24.5t-72.5 -27.5t-82.5 -12q-61 0 -98.5 36.5zM308.5 95.5q46.5 14.5 55.5 19.5v140
l-116 -6q-87 -7 -87 -77v-22q0 -36 20.5 -52t52.5 -17q28 0 74.5 14.5zM522 840l-89 -127h-73l61 127h101zM315 736l103 -105h-72l-75 49l-81 -49h-73l113 105h85z" />
    <glyph glyph-name="uni1EAD" unicode="&#x1ead;" horiz-adv-x="548" 
d="M75.5 30.5q-37.5 36.5 -37.5 98.5v45q0 64 43.5 102t129.5 38h153v47q0 30 -10 48t-37 27.5t-78 9.5h-162v72q91 25 210 25q102 0 151.5 -40t49.5 -134v-369h-97l-21 58q-10 -9 -41 -24.5t-72.5 -27.5t-82.5 -12q-61 0 -98.5 36.5zM308.5 95.5q46.5 14.5 55.5 19.5v140
l-116 -6q-87 -7 -87 -77v-22q0 -36 20.5 -52t52.5 -17q28 0 74.5 14.5zM231 770h85l103 -139h-73l-75 83l-80 -83h-73zM223.5 -215q-5.5 5 -5.5 14v90q0 9 5 14.5t14 5.5h58q9 0 13.5 -5.5t4.5 -14.5v-90q0 -19 -18 -19h-58q-8 0 -13.5 5z" />
    <glyph glyph-name="uni1EA7" unicode="&#x1ea7;" horiz-adv-x="548" 
d="M75.5 30.5q-37.5 36.5 -37.5 98.5v45q0 64 43.5 102t129.5 38h153v47q0 30 -10 48t-37 27.5t-78 9.5h-162v72q91 25 210 25q102 0 151.5 -40t49.5 -134v-369h-97l-21 58q-10 -9 -41 -24.5t-72.5 -27.5t-82.5 -12q-61 0 -98.5 36.5zM308.5 95.5q46.5 14.5 55.5 19.5v140
l-116 -6q-87 -7 -87 -77v-22q0 -36 20.5 -52t52.5 -17q28 0 74.5 14.5zM120 840l61 -127h-73l-89 127h101zM315 736l103 -105h-72l-75 49l-81 -49h-73l113 105h85z" />
    <glyph glyph-name="uni1EA9" unicode="&#x1ea9;" horiz-adv-x="548" 
d="M75.5 30.5q-37.5 36.5 -37.5 98.5v45q0 64 43.5 102t129.5 38h153v47q0 30 -10 48t-37 27.5t-78 9.5h-162v72q91 25 210 25q102 0 151.5 -40t49.5 -134v-369h-97l-21 58q-10 -9 -41 -24.5t-72.5 -27.5t-82.5 -12q-61 0 -98.5 36.5zM308.5 95.5q46.5 14.5 55.5 19.5v140
l-116 -6q-87 -7 -87 -77v-22q0 -36 20.5 -52t52.5 -17q28 0 74.5 14.5zM384 740q38 12 38 39q0 14 -7 21t-24 7q-18 0 -33 -6v44q20 7 49 7q37 0 55.5 -17t18.5 -49q0 -74 -97 -101v55zM230 736h85l103 -105h-72l-75 49l-81 -49h-73z" />
    <glyph glyph-name="uni1EAB" unicode="&#x1eab;" horiz-adv-x="548" 
d="M75.5 30.5q-37.5 36.5 -37.5 98.5v45q0 64 43.5 102t129.5 38h153v47q0 30 -10 48t-37 27.5t-78 9.5h-162v72q91 25 210 25q102 0 151.5 -40t49.5 -134v-369h-97l-21 58q-10 -9 -41 -24.5t-72.5 -27.5t-82.5 -12q-61 0 -98.5 36.5zM308.5 95.5q46.5 14.5 55.5 19.5v140
l-116 -6q-87 -7 -87 -77v-22q0 -36 20.5 -52t52.5 -17q28 0 74.5 14.5zM264 855q36 -15 55 -15q20 0 31.5 10t11.5 28h63q-4 -54 -24.5 -76t-61.5 -22q-18 0 -33.5 4.5t-42.5 13.5q-39 15 -57 15q-17 0 -27 -9t-11 -25h-62q3 54 25.5 74t59.5 20q29 0 73 -18zM418 631h-72
l-75 49l-81 -49h-73l113 105h85z" />
    <glyph glyph-name="uni0201" unicode="&#x201;" horiz-adv-x="548" 
d="M75.5 30.5q-37.5 36.5 -37.5 98.5v45q0 64 43.5 102t129.5 38h153v47q0 30 -10 48t-37 27.5t-78 9.5h-162v72q91 25 210 25q102 0 151.5 -40t49.5 -134v-369h-97l-21 58q-10 -9 -41 -24.5t-72.5 -27.5t-82.5 -12q-61 0 -98.5 36.5zM308.5 95.5q46.5 14.5 55.5 19.5v140
l-116 -6q-87 -7 -87 -77v-22q0 -36 20.5 -52t52.5 -17q28 0 74.5 14.5zM50 770h102l89 -139h-72zM217 770h102l89 -139h-72z" />
    <glyph glyph-name="adieresis" unicode="&#xe4;" horiz-adv-x="548" 
d="M75.5 30.5q-37.5 36.5 -37.5 98.5v45q0 64 43.5 102t129.5 38h153v47q0 30 -10 48t-37 27.5t-78 9.5h-162v72q91 25 210 25q102 0 151.5 -40t49.5 -134v-369h-97l-21 58q-10 -9 -41 -24.5t-72.5 -27.5t-82.5 -12q-61 0 -98.5 36.5zM308.5 95.5q46.5 14.5 55.5 19.5v140
l-116 -6q-87 -7 -87 -77v-22q0 -36 20.5 -52t52.5 -17q28 0 74.5 14.5zM126.5 648q-5.5 5 -5.5 14v90q0 9 5 14.5t14 5.5h58q9 0 13.5 -5.5t4.5 -14.5v-90q0 -19 -18 -19h-58q-8 0 -13.5 5zM322.5 648q-5.5 5 -5.5 14v90q0 20 19 20h58q9 0 13.5 -5.5t4.5 -14.5v-90
q0 -19 -18 -19h-58q-8 0 -13.5 5z" />
    <glyph glyph-name="uni1EA1" unicode="&#x1ea1;" horiz-adv-x="548" 
d="M75.5 30.5q-37.5 36.5 -37.5 98.5v45q0 64 43.5 102t129.5 38h153v47q0 30 -10 48t-37 27.5t-78 9.5h-162v72q91 25 210 25q102 0 151.5 -40t49.5 -134v-369h-97l-21 58q-10 -9 -41 -24.5t-72.5 -27.5t-82.5 -12q-61 0 -98.5 36.5zM308.5 95.5q46.5 14.5 55.5 19.5v140
l-116 -6q-87 -7 -87 -77v-22q0 -36 20.5 -52t52.5 -17q28 0 74.5 14.5zM223.5 -215q-5.5 5 -5.5 14v90q0 9 5 14.5t14 5.5h58q9 0 13.5 -5.5t4.5 -14.5v-90q0 -19 -18 -19h-58q-8 0 -13.5 5z" />
    <glyph glyph-name="agrave" unicode="&#xe0;" horiz-adv-x="548" 
d="M75.5 30.5q-37.5 36.5 -37.5 98.5v45q0 64 43.5 102t129.5 38h153v47q0 30 -10 48t-37 27.5t-78 9.5h-162v72q91 25 210 25q102 0 151.5 -40t49.5 -134v-369h-97l-21 58q-10 -9 -41 -24.5t-72.5 -27.5t-82.5 -12q-61 0 -98.5 36.5zM308.5 95.5q46.5 14.5 55.5 19.5v140
l-116 -6q-87 -7 -87 -77v-22q0 -36 20.5 -52t52.5 -17q28 0 74.5 14.5zM137 770h101l90 -139h-73z" />
    <glyph glyph-name="uni1EA3" unicode="&#x1ea3;" horiz-adv-x="548" 
d="M75.5 30.5q-37.5 36.5 -37.5 98.5v45q0 64 43.5 102t129.5 38h153v47q0 30 -10 48t-37 27.5t-78 9.5h-162v72q91 25 210 25q102 0 151.5 -40t49.5 -134v-369h-97l-21 58q-10 -9 -41 -24.5t-72.5 -27.5t-82.5 -12q-61 0 -98.5 36.5zM308.5 95.5q46.5 14.5 55.5 19.5v140
l-116 -6q-87 -7 -87 -77v-22q0 -36 20.5 -52t52.5 -17q28 0 74.5 14.5zM245 652q46 14 46 47q0 34 -38 34q-12 0 -34 -6v49q24 8 50 8q43 0 65.5 -21.5t22.5 -59.5t-27 -64t-85 -42v55z" />
    <glyph glyph-name="uni0203" unicode="&#x203;" horiz-adv-x="548" 
d="M75.5 30.5q-37.5 36.5 -37.5 98.5v45q0 64 43.5 102t129.5 38h153v47q0 30 -10 48t-37 27.5t-78 9.5h-162v72q91 25 210 25q102 0 151.5 -40t49.5 -134v-369h-97l-21 58q-10 -9 -41 -24.5t-72.5 -27.5t-82.5 -12q-61 0 -98.5 36.5zM308.5 95.5q46.5 14.5 55.5 19.5v140
l-116 -6q-87 -7 -87 -77v-22q0 -36 20.5 -52t52.5 -17q28 0 74.5 14.5zM370.5 739q36.5 -36 36.5 -112h-58q0 47 -22 69t-56 22q-79 -2 -79 -91h-59q0 76 36.5 112t101.5 36q63 0 99.5 -36z" />
    <glyph glyph-name="amacron" unicode="&#x101;" horiz-adv-x="548" 
d="M75.5 30.5q-37.5 36.5 -37.5 98.5v45q0 64 43.5 102t129.5 38h153v47q0 30 -10 48t-37 27.5t-78 9.5h-162v72q91 25 210 25q102 0 151.5 -40t49.5 -134v-369h-97l-21 58q-10 -9 -41 -24.5t-72.5 -27.5t-82.5 -12q-61 0 -98.5 36.5zM308.5 95.5q46.5 14.5 55.5 19.5v140
l-116 -6q-87 -7 -87 -77v-22q0 -36 20.5 -52t52.5 -17q28 0 74.5 14.5zM129 729h275v-73h-275v73z" />
    <glyph glyph-name="aogonek" unicode="&#x105;" horiz-adv-x="548" 
d="M509 -128v-59q-10 -3 -30 -3q-52 0 -79 26t-27 64q0 32 17.5 58t51.5 42h-51l-21 58q-10 -9 -41 -24.5t-72.5 -27.5t-82.5 -12q-61 0 -98.5 36.5t-37.5 98.5v45q0 64 43.5 102t129.5 38h153v47q0 30 -10 48t-37 27.5t-78 9.5h-162v72q91 25 210 25q102 0 151.5 -40
t49.5 -134v-369q-54 -32 -54 -72q0 -26 18 -41t49 -15h8zM364 255l-116 -6q-87 -7 -87 -77v-22q0 -36 20.5 -52t52.5 -17q28 0 74.5 14.5t55.5 19.5v140z" />
    <glyph glyph-name="aring" unicode="&#xe5;" horiz-adv-x="548" 
d="M75.5 30.5q-37.5 36.5 -37.5 98.5v45q0 64 43.5 102t129.5 38h153v47q0 30 -10 48t-37 27.5t-78 9.5h-162v72q91 25 210 25q102 0 151.5 -40t49.5 -134v-369h-97l-21 58q-10 -9 -41 -24.5t-72.5 -27.5t-82.5 -12q-61 0 -98.5 36.5zM308.5 95.5q46.5 14.5 55.5 19.5v140
l-116 -6q-87 -7 -87 -77v-22q0 -36 20.5 -52t52.5 -17q28 0 74.5 14.5zM180.5 613.5q-29.5 25.5 -29.5 85.5t29.5 86t89.5 26t89 -25.5t29 -86.5q0 -60 -28.5 -85.5t-89.5 -25.5q-60 0 -89.5 25.5zM316 649q14 14 14 50t-14 50.5t-46 14.5t-46.5 -14.5t-14.5 -50.5t14.5 -50
t46.5 -14t46 14z" />
    <glyph glyph-name="aringacute" unicode="&#x1fb;" horiz-adv-x="548" 
d="M180.5 613.5q-29.5 25.5 -29.5 85.5q0 55 24 81t73 30l77 120h102l-107 -125q34 -8 51 -33.5t17 -72.5q0 -60 -28.5 -85.5t-89.5 -25.5q-60 0 -89.5 25.5zM223.5 749.5q-14.5 -14.5 -14.5 -50.5t14.5 -50t46.5 -14t46 14t14 50t-14 50.5t-46 14.5t-46.5 -14.5zM438.5 503
q49.5 -40 49.5 -134v-369h-97l-21 58q-10 -9 -41 -24.5t-72.5 -27.5t-82.5 -12q-61 0 -98.5 36.5t-37.5 98.5v45q0 64 43.5 102t129.5 38h153v47q0 30 -10 48t-37 27.5t-78 9.5h-162v72q91 25 210 25q102 0 151.5 -40zM364 255l-116 -6q-87 -7 -87 -77v-22q0 -36 20.5 -52
t52.5 -17q28 0 74.5 14.5t55.5 19.5v140z" />
    <glyph glyph-name="atilde" unicode="&#xe3;" horiz-adv-x="548" 
d="M75.5 30.5q-37.5 36.5 -37.5 98.5v45q0 64 43.5 102t129.5 38h153v47q0 30 -10 48t-37 27.5t-78 9.5h-162v72q91 25 210 25q102 0 151.5 -40t49.5 -134v-369h-97l-21 58q-10 -9 -41 -24.5t-72.5 -27.5t-82.5 -12q-61 0 -98.5 36.5zM308.5 95.5q46.5 14.5 55.5 19.5v140
l-116 -6q-87 -7 -87 -77v-22q0 -36 20.5 -52t52.5 -17q28 0 74.5 14.5zM127.5 728q28.5 29 70.5 29q24 0 42.5 -7t44.5 -22q21 -12 34 -17.5t28 -5.5q22 0 35 14.5t14 41.5h63q-2 -61 -28.5 -93t-72.5 -32q-23 0 -43 7.5t-45 21.5q-22 12 -35.5 17.5t-27.5 5.5
q-21 0 -34.5 -14t-14.5 -39h-62q3 64 31.5 93z" />
    <glyph glyph-name="ae" unicode="&#xe6;" horiz-adv-x="862" 
d="M75 32.5q-35 38.5 -35 99.5v40q0 63 43 101t129 38h154v53q0 40 -26.5 61t-88.5 21h-172v72q45 13 88 19t101 6q57 0 100.5 -19t64.5 -54q45 73 169 73q75 0 119.5 -16.5t66.5 -57t22 -112.5q0 -70 -42.5 -98.5t-130.5 -28.5h-150q0 -58 18.5 -89t52.5 -42t86 -11h150
v-73q-80 -21 -209 -21q-66 0 -113 27t-71 69q-38 -40 -96.5 -68t-124.5 -28q-70 0 -105 38.5zM633 309q33 0 49 11.5t16 39.5q0 50 -24 70t-81 20q-43 0 -65 -12t-31 -42t-10 -87h146zM310 98q37 17 66 46q-11 43 -12 105l-128 -7q-37 -1 -54.5 -20.5t-17.5 -48.5v-21
q0 -71 72 -71q37 0 74 17z" />
    <glyph glyph-name="aeacute" unicode="&#x1fd;" horiz-adv-x="862" 
d="M75 32.5q-35 38.5 -35 99.5v40q0 63 43 101t129 38h154v53q0 40 -26.5 61t-88.5 21h-172v72q45 13 88 19t101 6q57 0 100.5 -19t64.5 -54q45 73 169 73q75 0 119.5 -16.5t66.5 -57t22 -112.5q0 -70 -42.5 -98.5t-130.5 -28.5h-150q0 -58 18.5 -89t52.5 -42t86 -11h150
v-73q-80 -21 -209 -21q-66 0 -113 27t-71 69q-38 -40 -96.5 -68t-124.5 -28q-70 0 -105 38.5zM633 309q33 0 49 11.5t16 39.5q0 50 -24 70t-81 20q-43 0 -65 -12t-31 -42t-10 -87h146zM310 98q37 17 66 46q-11 43 -12 105l-128 -7q-37 -1 -54.5 -20.5t-17.5 -48.5v-21
q0 -71 72 -71q37 0 74 17zM482 770h102l-119 -139h-72z" />
    <glyph glyph-name="b" unicode="b" horiz-adv-x="583" 
d="M261.5 9.5q-39.5 15.5 -74.5 42.5l-21 -52h-103v763h124v-268q38 21 80.5 34.5t77.5 13.5q68 0 110 -28t61.5 -89.5t19.5 -162.5q0 -134 -45 -201.5t-140 -67.5q-50 0 -89.5 15.5zM384.5 136q27.5 41 27.5 133q0 72 -13.5 110t-36 51t-56.5 13q-56 0 -119 -35v-280
q62 -33 119 -33q51 0 78.5 41z" />
    <glyph glyph-name="uni1E03" unicode="&#x1e03;" horiz-adv-x="583" 
d="M261.5 9.5q-39.5 15.5 -74.5 42.5l-21 -52h-103v763h124v-268q38 21 80.5 34.5t77.5 13.5q68 0 110 -28t61.5 -89.5t19.5 -162.5q0 -134 -45 -201.5t-140 -67.5q-50 0 -89.5 15.5zM384.5 136q27.5 41 27.5 133q0 72 -13.5 110t-36 51t-56.5 13q-56 0 -119 -35v-280
q62 -33 119 -33q51 0 78.5 41zM81.5 855q-5.5 5 -5.5 14v90q0 20 19 20h57q9 0 14 -5.5t5 -14.5v-90q0 -19 -19 -19h-57q-8 0 -13.5 5z" />
    <glyph glyph-name="c" unicode="c" horiz-adv-x="490" 
d="M104.5 54.5q-57.5 60.5 -57.5 211.5q0 107 26 167.5t74.5 85t123.5 24.5q96 0 183 -21v-71h-146q-50 0 -79.5 -15.5t-44 -55.5t-14.5 -114q0 -73 14.5 -111.5t44 -52.5t80.5 -14h153v-70q-39 -10 -91.5 -17t-102.5 -7q-106 0 -163.5 60.5z" />
    <glyph glyph-name="cacute" unicode="&#x107;" horiz-adv-x="490" 
d="M104.5 54.5q-57.5 60.5 -57.5 211.5q0 107 26 167.5t74.5 85t123.5 24.5q96 0 183 -21v-71h-146q-50 0 -79.5 -15.5t-44 -55.5t-14.5 -114q0 -73 14.5 -111.5t44 -52.5t80.5 -14h153v-70q-39 -10 -91.5 -17t-102.5 -7q-106 0 -163.5 60.5zM320 770h102l-119 -139h-72z
" />
    <glyph glyph-name="ccaron" unicode="&#x10d;" horiz-adv-x="490" 
d="M104.5 54.5q-57.5 60.5 -57.5 211.5q0 107 26 167.5t74.5 85t123.5 24.5q96 0 183 -21v-71h-146q-50 0 -79.5 -15.5t-44 -55.5t-14.5 -114q0 -73 14.5 -111.5t44 -52.5t80.5 -14h153v-70q-39 -10 -91.5 -17t-102.5 -7q-106 0 -163.5 60.5zM123 770h72l75 -83l81 83h73
l-113 -139h-86z" />
    <glyph glyph-name="ccedilla" unicode="&#xe7;" horiz-adv-x="490" 
d="M304 -5l-31 -48q32 -2 50.5 -18.5t18.5 -46.5q0 -37 -26 -57t-77 -20h-42v51l19 2q46 6 46 39q0 15 -11.5 25.5t-41.5 13.5l38 59q-96 5 -148 66t-52 205q0 107 26 167.5t74.5 85t123.5 24.5q96 0 183 -21v-71h-146q-50 0 -79.5 -15.5t-44 -55.5t-14.5 -114
q0 -73 14.5 -111.5t44 -52.5t80.5 -14h153v-70q-68 -18 -158 -23z" />
    <glyph glyph-name="uni1E09" unicode="&#x1e09;" horiz-adv-x="490" 
d="M303 631h-72l89 139h102zM304 -5l-31 -48q32 -2 50.5 -18.5t18.5 -46.5q0 -37 -26 -57t-77 -20h-42v51l19 2q46 6 46 39q0 15 -11.5 25.5t-41.5 13.5l38 59q-96 5 -148 66t-52 205q0 107 26 167.5t74.5 85t123.5 24.5q96 0 183 -21v-71h-146q-50 0 -79.5 -15.5t-44 -55.5
t-14.5 -114q0 -73 14.5 -111.5t44 -52.5t80.5 -14h153v-70q-68 -18 -158 -23z" />
    <glyph glyph-name="ccircumflex" unicode="&#x109;" horiz-adv-x="490" 
d="M104.5 54.5q-57.5 60.5 -57.5 211.5q0 107 26 167.5t74.5 85t123.5 24.5q96 0 183 -21v-71h-146q-50 0 -79.5 -15.5t-44 -55.5t-14.5 -114q0 -73 14.5 -111.5t44 -52.5t80.5 -14h153v-70q-39 -10 -91.5 -17t-102.5 -7q-106 0 -163.5 60.5zM231 770h85l103 -139h-73
l-75 83l-80 -83h-73z" />
    <glyph glyph-name="cdotaccent" unicode="&#x10b;" horiz-adv-x="490" 
d="M104.5 54.5q-57.5 60.5 -57.5 211.5q0 107 26 167.5t74.5 85t123.5 24.5q96 0 183 -21v-71h-146q-50 0 -79.5 -15.5t-44 -55.5t-14.5 -114q0 -73 14.5 -111.5t44 -52.5t80.5 -14h153v-70q-39 -10 -91.5 -17t-102.5 -7q-106 0 -163.5 60.5zM226.5 655q-5.5 5 -5.5 14v90
q0 20 19 20h57q9 0 14 -5.5t5 -14.5v-90q0 -19 -19 -19h-57q-8 0 -13.5 5z" />
    <glyph glyph-name="d" unicode="d" horiz-adv-x="580" 
d="M94 57.5q-47 63.5 -47 205.5q0 102 19 162.5t63 89t120 28.5q71 0 146 -27v247h124v-763h-103l-21 52q-26 -23 -71 -40.5t-85 -17.5q-98 0 -145 63.5zM395 129v298q-32 11 -56 17t-52 6q-44 0 -69 -15.5t-36.5 -54.5t-11.5 -111q0 -68 11 -105.5t34.5 -53.5t64.5 -16
q54 0 115 35z" />
    <glyph glyph-name="eth" unicode="&#xf0;" horiz-adv-x="576" 
d="M503.5 511q25.5 -96 25.5 -242q0 -108 -24 -167t-76 -83t-142 -24q-87 0 -139 24t-76.5 82t-24.5 162q0 105 26 163.5t74 81t124 22.5q83 0 127 -31q-22 82 -71 127l-161 -62l-16 42l132 51q-57 28 -147 33v75q163 -5 251 -67l122 47l16 -42l-100 -39q54 -57 79.5 -153z
M356.5 105.5q24.5 11.5 36.5 48t12 110.5t-12 109.5t-36.5 47t-69.5 11.5t-69 -11.5t-36 -47t-12 -109.5t12 -110.5t36.5 -48t68.5 -11.5q45 0 69.5 11.5z" />
    <glyph glyph-name="dcaron" unicode="&#x10f;" horiz-adv-x="580" 
d="M94 57.5q-47 63.5 -47 205.5q0 102 19 162.5t63 89t120 28.5q71 0 146 -27v247h124v-763h-103l-21 52q-26 -23 -71 -40.5t-85 -17.5q-98 0 -145 63.5zM395 129v298q-32 11 -56 17t-52 6q-44 0 -69 -15.5t-36.5 -54.5t-11.5 -111q0 -68 11 -105.5t34.5 -53.5t64.5 -16
q54 0 115 35zM576 720v63h113v-63l-7 -138h-97z" />
    <glyph glyph-name="dcroat" unicode="&#x111;" horiz-adv-x="580" 
d="M582 620h-63v-620h-103l-21 52q-26 -23 -71 -40.5t-85 -17.5q-98 0 -145 63.5t-47 205.5q0 102 19 162.5t63 89t120 28.5q71 0 146 -27v104h-124v50h124v93h124v-93h63v-50zM395 427q-32 11 -56 17t-52 6q-44 0 -69 -15.5t-36.5 -54.5t-11.5 -111q0 -68 11 -105.5
t34.5 -53.5t64.5 -16q54 0 115 35v298z" />
    <glyph glyph-name="uni1E0B" unicode="&#x1e0b;" horiz-adv-x="580" 
d="M94 57.5q-47 63.5 -47 205.5q0 102 19 162.5t63 89t120 28.5q71 0 146 -27v247h124v-763h-103l-21 52q-26 -23 -71 -40.5t-85 -17.5q-98 0 -145 63.5zM395 129v298q-32 11 -56 17t-52 6q-44 0 -69 -15.5t-36.5 -54.5t-11.5 -111q0 -68 11 -105.5t34.5 -53.5t64.5 -16
q54 0 115 35zM413.5 855q-5.5 5 -5.5 14v90q0 20 19 20h57q9 0 14 -5.5t5 -14.5v-90q0 -19 -19 -19h-57q-8 0 -13.5 5z" />
    <glyph glyph-name="uni1E0D" unicode="&#x1e0d;" horiz-adv-x="580" 
d="M94 57.5q-47 63.5 -47 205.5q0 102 19 162.5t63 89t120 28.5q71 0 146 -27v247h124v-763h-103l-21 52q-26 -23 -71 -40.5t-85 -17.5q-98 0 -145 63.5zM395 129v298q-32 11 -56 17t-52 6q-44 0 -69 -15.5t-36.5 -54.5t-11.5 -111q0 -68 11 -105.5t34.5 -53.5t64.5 -16
q54 0 115 35zM237.5 -215q-5.5 5 -5.5 14v90q0 9 5 14.5t14 5.5h58q9 0 13.5 -5.5t4.5 -14.5v-90q0 -19 -18 -19h-58q-8 0 -13.5 5z" />
    <glyph glyph-name="uni1E0F" unicode="&#x1e0f;" horiz-adv-x="580" 
d="M94 57.5q-47 63.5 -47 205.5q0 102 19 162.5t63 89t120 28.5q71 0 146 -27v247h124v-763h-103l-21 52q-26 -23 -71 -40.5t-85 -17.5q-98 0 -145 63.5zM395 129v298q-32 11 -56 17t-52 6q-44 0 -69 -15.5t-36.5 -54.5t-11.5 -111q0 -68 11 -105.5t34.5 -53.5t64.5 -16
q54 0 115 35zM147 -131h275v-73h-275v73z" />
    <glyph glyph-name="e" unicode="e" horiz-adv-x="539" 
d="M142.5 19.5q-50.5 24.5 -73 83t-22.5 165.5q0 109 21.5 168t71 83t139.5 24q79 0 125 -16t67 -55.5t21 -110.5q0 -74 -42.5 -106t-123.5 -32h-157q2 -52 14 -80.5t42.5 -41.5t88.5 -13h162v-73q-54 -10 -96.5 -15t-97.5 -5q-89 0 -139.5 24.5zM314 298q36 0 52 14t16 49
q0 52 -23 72t-80 20q-43 0 -66.5 -13.5t-34 -46.5t-10.5 -95h146z" />
    <glyph glyph-name="eacute" unicode="&#xe9;" horiz-adv-x="539" 
d="M142.5 19.5q-50.5 24.5 -73 83t-22.5 165.5q0 109 21.5 168t71 83t139.5 24q79 0 125 -16t67 -55.5t21 -110.5q0 -74 -42.5 -106t-123.5 -32h-157q2 -52 14 -80.5t42.5 -41.5t88.5 -13h162v-73q-54 -10 -96.5 -15t-97.5 -5q-89 0 -139.5 24.5zM314 298q36 0 52 14t16 49
q0 52 -23 72t-80 20q-43 0 -66.5 -13.5t-34 -46.5t-10.5 -95h146zM320 770h102l-119 -139h-72z" />
    <glyph glyph-name="ebreve" unicode="&#x115;" horiz-adv-x="539" 
d="M142.5 19.5q-50.5 24.5 -73 83t-22.5 165.5q0 109 21.5 168t71 83t139.5 24q79 0 125 -16t67 -55.5t21 -110.5q0 -74 -42.5 -106t-123.5 -32h-157q2 -52 14 -80.5t42.5 -41.5t88.5 -13h162v-73q-54 -10 -96.5 -15t-97.5 -5q-89 0 -139.5 24.5zM314 298q36 0 52 14t16 49
q0 52 -23 72t-80 20q-43 0 -66.5 -13.5t-34 -46.5t-10.5 -95h146zM163.5 661q-36.5 36 -36.5 112h58q0 -47 22 -69t56 -22q79 2 79 91h59q0 -76 -36.5 -112t-101.5 -36q-63 0 -99.5 36z" />
    <glyph glyph-name="ecaron" unicode="&#x11b;" horiz-adv-x="539" 
d="M142.5 19.5q-50.5 24.5 -73 83t-22.5 165.5q0 109 21.5 168t71 83t139.5 24q79 0 125 -16t67 -55.5t21 -110.5q0 -74 -42.5 -106t-123.5 -32h-157q2 -52 14 -80.5t42.5 -41.5t88.5 -13h162v-73q-54 -10 -96.5 -15t-97.5 -5q-89 0 -139.5 24.5zM314 298q36 0 52 14t16 49
q0 52 -23 72t-80 20q-43 0 -66.5 -13.5t-34 -46.5t-10.5 -95h146zM123 770h72l75 -83l81 83h73l-113 -139h-86z" />
    <glyph glyph-name="uni1E1D" unicode="&#x1e1d;" horiz-adv-x="539" 
d="M163.5 661q-36.5 36 -36.5 112h58q0 -47 22 -69t56 -22q79 2 79 91h59q0 -76 -36.5 -112t-101.5 -36q-63 0 -99.5 36zM183 142.5q12 -28.5 42.5 -41.5t88.5 -13h162v-73q-49 -9 -87 -14t-85 -6l-31 -48q32 -2 50.5 -18.5t18.5 -46.5q0 -37 -26 -57t-77 -20h-42v51l19 2
q46 6 46 39q0 15 -11.5 25.5t-41.5 13.5l39 60q-76 4 -119 30.5t-62.5 84t-19.5 157.5q0 109 21.5 168t71 83t139.5 24q79 0 125 -16t67 -55.5t21 -110.5q0 -74 -42.5 -106t-123.5 -32h-157q2 -52 14 -80.5zM212.5 439.5q-23.5 -13.5 -34 -46.5t-10.5 -95h146q36 0 52 14
t16 49q0 52 -23 72t-80 20q-43 0 -66.5 -13.5z" />
    <glyph glyph-name="ecircumflex" unicode="&#xea;" horiz-adv-x="539" 
d="M142.5 19.5q-50.5 24.5 -73 83t-22.5 165.5q0 109 21.5 168t71 83t139.5 24q79 0 125 -16t67 -55.5t21 -110.5q0 -74 -42.5 -106t-123.5 -32h-157q2 -52 14 -80.5t42.5 -41.5t88.5 -13h162v-73q-54 -10 -96.5 -15t-97.5 -5q-89 0 -139.5 24.5zM314 298q36 0 52 14t16 49
q0 52 -23 72t-80 20q-43 0 -66.5 -13.5t-34 -46.5t-10.5 -95h146zM231 770h85l103 -139h-73l-75 83l-80 -83h-73z" />
    <glyph glyph-name="uni1EBF" unicode="&#x1ebf;" horiz-adv-x="539" 
d="M142.5 19.5q-50.5 24.5 -73 83t-22.5 165.5q0 109 21.5 168t71 83t139.5 24q79 0 125 -16t67 -55.5t21 -110.5q0 -74 -42.5 -106t-123.5 -32h-157q2 -52 14 -80.5t42.5 -41.5t88.5 -13h162v-73q-54 -10 -96.5 -15t-97.5 -5q-89 0 -139.5 24.5zM314 298q36 0 52 14t16 49
q0 52 -23 72t-80 20q-43 0 -66.5 -13.5t-34 -46.5t-10.5 -95h146zM522 840l-89 -127h-73l61 127h101zM315 736l103 -105h-72l-75 49l-81 -49h-73l113 105h85z" />
    <glyph glyph-name="uni1EC7" unicode="&#x1ec7;" horiz-adv-x="539" 
d="M142.5 19.5q-50.5 24.5 -73 83t-22.5 165.5q0 109 21.5 168t71 83t139.5 24q79 0 125 -16t67 -55.5t21 -110.5q0 -74 -42.5 -106t-123.5 -32h-157q2 -52 14 -80.5t42.5 -41.5t88.5 -13h162v-73q-54 -10 -96.5 -15t-97.5 -5q-89 0 -139.5 24.5zM314 298q36 0 52 14t16 49
q0 52 -23 72t-80 20q-43 0 -66.5 -13.5t-34 -46.5t-10.5 -95h146zM231 770h85l103 -139h-73l-75 83l-80 -83h-73zM223.5 -215q-5.5 5 -5.5 14v90q0 9 5 14.5t14 5.5h58q9 0 13.5 -5.5t4.5 -14.5v-90q0 -19 -18 -19h-58q-8 0 -13.5 5z" />
    <glyph glyph-name="uni1EC1" unicode="&#x1ec1;" horiz-adv-x="539" 
d="M142.5 19.5q-50.5 24.5 -73 83t-22.5 165.5q0 109 21.5 168t71 83t139.5 24q79 0 125 -16t67 -55.5t21 -110.5q0 -74 -42.5 -106t-123.5 -32h-157q2 -52 14 -80.5t42.5 -41.5t88.5 -13h162v-73q-54 -10 -96.5 -15t-97.5 -5q-89 0 -139.5 24.5zM314 298q36 0 52 14t16 49
q0 52 -23 72t-80 20q-43 0 -66.5 -13.5t-34 -46.5t-10.5 -95h146zM120 840l61 -127h-73l-89 127h101zM315 736l103 -105h-72l-75 49l-81 -49h-73l113 105h85z" />
    <glyph glyph-name="uni1EC3" unicode="&#x1ec3;" horiz-adv-x="539" 
d="M142.5 19.5q-50.5 24.5 -73 83t-22.5 165.5q0 109 21.5 168t71 83t139.5 24q79 0 125 -16t67 -55.5t21 -110.5q0 -74 -42.5 -106t-123.5 -32h-157q2 -52 14 -80.5t42.5 -41.5t88.5 -13h162v-73q-54 -10 -96.5 -15t-97.5 -5q-89 0 -139.5 24.5zM314 298q36 0 52 14t16 49
q0 52 -23 72t-80 20q-43 0 -66.5 -13.5t-34 -46.5t-10.5 -95h146zM384 740q38 12 38 39q0 14 -7 21t-24 7q-18 0 -33 -6v44q20 7 49 7q37 0 55.5 -17t18.5 -49q0 -74 -97 -101v55zM230 736h85l103 -105h-72l-75 49l-81 -49h-73z" />
    <glyph glyph-name="uni1EC5" unicode="&#x1ec5;" horiz-adv-x="539" 
d="M142.5 19.5q-50.5 24.5 -73 83t-22.5 165.5q0 109 21.5 168t71 83t139.5 24q79 0 125 -16t67 -55.5t21 -110.5q0 -74 -42.5 -106t-123.5 -32h-157q2 -52 14 -80.5t42.5 -41.5t88.5 -13h162v-73q-54 -10 -96.5 -15t-97.5 -5q-89 0 -139.5 24.5zM314 298q36 0 52 14t16 49
q0 52 -23 72t-80 20q-43 0 -66.5 -13.5t-34 -46.5t-10.5 -95h146zM264 855q36 -15 55 -15q20 0 31.5 10t11.5 28h63q-4 -54 -24.5 -76t-61.5 -22q-18 0 -33.5 4.5t-42.5 13.5q-39 15 -57 15q-17 0 -27 -9t-11 -25h-62q3 54 25.5 74t59.5 20q29 0 73 -18zM418 631h-72l-75 49
l-81 -49h-73l113 105h85z" />
    <glyph glyph-name="uni0205" unicode="&#x205;" horiz-adv-x="539" 
d="M142.5 19.5q-50.5 24.5 -73 83t-22.5 165.5q0 109 21.5 168t71 83t139.5 24q79 0 125 -16t67 -55.5t21 -110.5q0 -74 -42.5 -106t-123.5 -32h-157q2 -52 14 -80.5t42.5 -41.5t88.5 -13h162v-73q-54 -10 -96.5 -15t-97.5 -5q-89 0 -139.5 24.5zM314 298q36 0 52 14t16 49
q0 52 -23 72t-80 20q-43 0 -66.5 -13.5t-34 -46.5t-10.5 -95h146zM50 770h102l89 -139h-72zM217 770h102l89 -139h-72z" />
    <glyph glyph-name="edieresis" unicode="&#xeb;" horiz-adv-x="539" 
d="M142.5 19.5q-50.5 24.5 -73 83t-22.5 165.5q0 109 21.5 168t71 83t139.5 24q79 0 125 -16t67 -55.5t21 -110.5q0 -74 -42.5 -106t-123.5 -32h-157q2 -52 14 -80.5t42.5 -41.5t88.5 -13h162v-73q-54 -10 -96.5 -15t-97.5 -5q-89 0 -139.5 24.5zM314 298q36 0 52 14t16 49
q0 52 -23 72t-80 20q-43 0 -66.5 -13.5t-34 -46.5t-10.5 -95h146zM126.5 648q-5.5 5 -5.5 14v90q0 9 5 14.5t14 5.5h58q9 0 13.5 -5.5t4.5 -14.5v-90q0 -19 -18 -19h-58q-8 0 -13.5 5zM322.5 648q-5.5 5 -5.5 14v90q0 20 19 20h58q9 0 13.5 -5.5t4.5 -14.5v-90
q0 -19 -18 -19h-58q-8 0 -13.5 5z" />
    <glyph glyph-name="edotaccent" unicode="&#x117;" horiz-adv-x="539" 
d="M142.5 19.5q-50.5 24.5 -73 83t-22.5 165.5q0 109 21.5 168t71 83t139.5 24q79 0 125 -16t67 -55.5t21 -110.5q0 -74 -42.5 -106t-123.5 -32h-157q2 -52 14 -80.5t42.5 -41.5t88.5 -13h162v-73q-54 -10 -96.5 -15t-97.5 -5q-89 0 -139.5 24.5zM314 298q36 0 52 14t16 49
q0 52 -23 72t-80 20q-43 0 -66.5 -13.5t-34 -46.5t-10.5 -95h146zM226.5 655q-5.5 5 -5.5 14v90q0 20 19 20h57q9 0 14 -5.5t5 -14.5v-90q0 -19 -19 -19h-57q-8 0 -13.5 5z" />
    <glyph glyph-name="uni1EB9" unicode="&#x1eb9;" horiz-adv-x="539" 
d="M142.5 19.5q-50.5 24.5 -73 83t-22.5 165.5q0 109 21.5 168t71 83t139.5 24q79 0 125 -16t67 -55.5t21 -110.5q0 -74 -42.5 -106t-123.5 -32h-157q2 -52 14 -80.5t42.5 -41.5t88.5 -13h162v-73q-54 -10 -96.5 -15t-97.5 -5q-89 0 -139.5 24.5zM314 298q36 0 52 14t16 49
q0 52 -23 72t-80 20q-43 0 -66.5 -13.5t-34 -46.5t-10.5 -95h146zM223.5 -215q-5.5 5 -5.5 14v90q0 9 5 14.5t14 5.5h58q9 0 13.5 -5.5t4.5 -14.5v-90q0 -19 -18 -19h-58q-8 0 -13.5 5z" />
    <glyph glyph-name="egrave" unicode="&#xe8;" horiz-adv-x="539" 
d="M142.5 19.5q-50.5 24.5 -73 83t-22.5 165.5q0 109 21.5 168t71 83t139.5 24q79 0 125 -16t67 -55.5t21 -110.5q0 -74 -42.5 -106t-123.5 -32h-157q2 -52 14 -80.5t42.5 -41.5t88.5 -13h162v-73q-54 -10 -96.5 -15t-97.5 -5q-89 0 -139.5 24.5zM314 298q36 0 52 14t16 49
q0 52 -23 72t-80 20q-43 0 -66.5 -13.5t-34 -46.5t-10.5 -95h146zM137 770h101l90 -139h-73z" />
    <glyph glyph-name="uni1EBB" unicode="&#x1ebb;" horiz-adv-x="539" 
d="M142.5 19.5q-50.5 24.5 -73 83t-22.5 165.5q0 109 21.5 168t71 83t139.5 24q79 0 125 -16t67 -55.5t21 -110.5q0 -74 -42.5 -106t-123.5 -32h-157q2 -52 14 -80.5t42.5 -41.5t88.5 -13h162v-73q-54 -10 -96.5 -15t-97.5 -5q-89 0 -139.5 24.5zM314 298q36 0 52 14t16 49
q0 52 -23 72t-80 20q-43 0 -66.5 -13.5t-34 -46.5t-10.5 -95h146zM245 652q46 14 46 47q0 34 -38 34q-12 0 -34 -6v49q24 8 50 8q43 0 65.5 -21.5t22.5 -59.5t-27 -64t-85 -42v55z" />
    <glyph glyph-name="uni0207" unicode="&#x207;" horiz-adv-x="539" 
d="M142.5 19.5q-50.5 24.5 -73 83t-22.5 165.5q0 109 21.5 168t71 83t139.5 24q79 0 125 -16t67 -55.5t21 -110.5q0 -74 -42.5 -106t-123.5 -32h-157q2 -52 14 -80.5t42.5 -41.5t88.5 -13h162v-73q-54 -10 -96.5 -15t-97.5 -5q-89 0 -139.5 24.5zM314 298q36 0 52 14t16 49
q0 52 -23 72t-80 20q-43 0 -66.5 -13.5t-34 -46.5t-10.5 -95h146zM370.5 739q36.5 -36 36.5 -112h-58q0 47 -22 69t-56 22q-79 -2 -79 -91h-59q0 76 36.5 112t101.5 36q63 0 99.5 -36z" />
    <glyph glyph-name="emacron" unicode="&#x113;" horiz-adv-x="539" 
d="M142.5 19.5q-50.5 24.5 -73 83t-22.5 165.5q0 109 21.5 168t71 83t139.5 24q79 0 125 -16t67 -55.5t21 -110.5q0 -74 -42.5 -106t-123.5 -32h-157q2 -52 14 -80.5t42.5 -41.5t88.5 -13h162v-73q-54 -10 -96.5 -15t-97.5 -5q-89 0 -139.5 24.5zM314 298q36 0 52 14t16 49
q0 52 -23 72t-80 20q-43 0 -66.5 -13.5t-34 -46.5t-10.5 -95h146zM129 729h275v-73h-275v73z" />
    <glyph glyph-name="uni1E17" unicode="&#x1e17;" horiz-adv-x="539" 
d="M142.5 19.5q-50.5 24.5 -73 83t-22.5 165.5q0 109 21.5 168t71 83t139.5 24q79 0 125 -16t67 -55.5t21 -110.5q0 -74 -42.5 -106t-123.5 -32h-157q2 -52 14 -80.5t42.5 -41.5t88.5 -13h162v-73q-54 -10 -96.5 -15t-97.5 -5q-89 0 -139.5 24.5zM314 298q36 0 52 14t16 49
q0 52 -23 72t-80 20q-43 0 -66.5 -13.5t-34 -46.5t-10.5 -95h146zM129 729h275v-73h-275v73zM314 902h102l-119 -139h-72z" />
    <glyph glyph-name="uni1E15" unicode="&#x1e15;" horiz-adv-x="539" 
d="M142.5 19.5q-50.5 24.5 -73 83t-22.5 165.5q0 109 21.5 168t71 83t139.5 24q79 0 125 -16t67 -55.5t21 -110.5q0 -74 -42.5 -106t-123.5 -32h-157q2 -52 14 -80.5t42.5 -41.5t88.5 -13h162v-73q-54 -10 -96.5 -15t-97.5 -5q-89 0 -139.5 24.5zM314 298q36 0 52 14t16 49
q0 52 -23 72t-80 20q-43 0 -66.5 -13.5t-34 -46.5t-10.5 -95h146zM129 729h275v-73h-275v73zM119 902h101l90 -139h-73z" />
    <glyph glyph-name="eogonek" unicode="&#x119;" horiz-adv-x="539" 
d="M498 -104v-59q-10 -3 -30 -3q-52 0 -79 26t-27 64q0 48 36 78q-59 -7 -116 -7q-89 0 -139.5 24.5t-73 83t-22.5 165.5q0 109 21.5 168t71 83t139.5 24q79 0 125 -16t67 -55.5t21 -110.5q0 -74 -42.5 -106t-123.5 -32h-157q2 -52 14 -80.5t42.5 -41.5t88.5 -13h162v-64h1
h-0.5t-0.5 -1v-8l-17 -3q-36 -26 -36 -60q0 -26 18 -41t49 -15h8zM212.5 439.5q-23.5 -13.5 -34 -46.5t-10.5 -95h146q36 0 52 14t16 49q0 52 -23 72t-80 20q-43 0 -66.5 -13.5z" />
    <glyph glyph-name="uni1EBD" unicode="&#x1ebd;" horiz-adv-x="539" 
d="M142.5 19.5q-50.5 24.5 -73 83t-22.5 165.5q0 109 21.5 168t71 83t139.5 24q79 0 125 -16t67 -55.5t21 -110.5q0 -74 -42.5 -106t-123.5 -32h-157q2 -52 14 -80.5t42.5 -41.5t88.5 -13h162v-73q-54 -10 -96.5 -15t-97.5 -5q-89 0 -139.5 24.5zM314 298q36 0 52 14t16 49
q0 52 -23 72t-80 20q-43 0 -66.5 -13.5t-34 -46.5t-10.5 -95h146zM127.5 728q28.5 29 70.5 29q24 0 42.5 -7t44.5 -22q21 -12 34 -17.5t28 -5.5q22 0 35 14.5t14 41.5h63q-2 -61 -28.5 -93t-72.5 -32q-23 0 -43 7.5t-45 21.5q-22 12 -35.5 17.5t-27.5 5.5q-21 0 -34.5 -14
t-14.5 -39h-62q3 64 31.5 93z" />
    <glyph glyph-name="uni0259" unicode="&#x259;" horiz-adv-x="539" 
d="M396.5 517.5q50.5 -24.5 73 -83t22.5 -165.5q0 -109 -21.5 -168t-71 -83t-139.5 -24q-79 0 -125 16t-67 55.5t-21 110.5q0 74 42.5 106t123.5 32h157q-2 52 -14 80.5t-42.5 41.5t-88.5 13h-162v73q54 10 96.5 15t97.5 5q89 0 139.5 -24.5zM225 239q-36 0 -52 -14t-16 -49
q0 -52 23 -72t80 -20q43 0 66.5 13.5t34 46.5t10.5 95h-146z" />
    <glyph glyph-name="f" unicode="f" horiz-adv-x="384" 
d="M98 436h-78v80l78 20v45q0 98 39 143t131 45q54 0 108 -13v-88h-85q-40 0 -54.5 -19t-14.5 -62v-51h147v-100h-147v-436h-124v436z" />
    <glyph glyph-name="uni1E1F" unicode="&#x1e1f;" horiz-adv-x="384" 
d="M98 436h-78v80l78 20v45q0 98 39 143t131 45q54 0 108 -13v-88h-85q-40 0 -54.5 -19t-14.5 -62v-51h147v-100h-147v-436h-124v436zM224.5 873q-5.5 5 -5.5 14v90q0 20 19 20h57q9 0 14 -5.5t5 -14.5v-90q0 -19 -19 -19h-57q-8 0 -13.5 5z" />
    <glyph glyph-name="g" unicode="g" horiz-adv-x="580" 
d="M560 468l-95 -13q22 -20 35.5 -46t13.5 -75q0 -73 -46 -118t-146 -45h-91q-72 0 -72 -44q0 -19 14.5 -27.5t35.5 -8.5h159q95 0 142.5 -37.5t47.5 -118.5v-17q0 -79 -50.5 -122t-150.5 -43h-157q-79 0 -127.5 34t-48.5 96v19q0 41 22.5 71.5t60.5 47.5q-26 14 -39.5 36.5
t-13.5 49.5q0 39 23.5 65.5t65.5 35.5q-48 23 -68.5 63.5t-20.5 90.5q0 90 54.5 132.5t162.5 42.5h289v-69zM381.5 287q20.5 23 20.5 63q0 50 -22.5 71.5t-65.5 21.5h-56q-46 0 -69 -20.5t-23 -67.5t21.5 -69t63.5 -22h58q52 0 72.5 23zM230 -2q-39 0 -64 -18.5t-25 -53.5
v-16q0 -35 24 -52t68 -17h109q47 0 73 18t26 53v17q0 69 -92 69h-119z" />
    <glyph glyph-name="gbreve" unicode="&#x11f;" horiz-adv-x="580" 
d="M560 468l-95 -13q22 -20 35.5 -46t13.5 -75q0 -73 -46 -118t-146 -45h-91q-72 0 -72 -44q0 -19 14.5 -27.5t35.5 -8.5h159q95 0 142.5 -37.5t47.5 -118.5v-17q0 -79 -50.5 -122t-150.5 -43h-157q-79 0 -127.5 34t-48.5 96v19q0 41 22.5 71.5t60.5 47.5q-26 14 -39.5 36.5
t-13.5 49.5q0 39 23.5 65.5t65.5 35.5q-48 23 -68.5 63.5t-20.5 90.5q0 90 54.5 132.5t162.5 42.5h289v-69zM381.5 287q20.5 23 20.5 63q0 50 -22.5 71.5t-65.5 21.5h-56q-46 0 -69 -20.5t-23 -67.5t21.5 -69t63.5 -22h58q52 0 72.5 23zM230 -2q-39 0 -64 -18.5t-25 -53.5
v-16q0 -35 24 -52t68 -17h109q47 0 73 18t26 53v17q0 69 -92 69h-119zM183.5 661q-36.5 36 -36.5 112h58q0 -47 22 -69t56 -22q79 2 79 91h59q0 -76 -36.5 -112t-101.5 -36q-63 0 -99.5 36z" />
    <glyph glyph-name="gcaron" unicode="&#x1e7;" horiz-adv-x="580" 
d="M560 468l-95 -13q22 -20 35.5 -46t13.5 -75q0 -73 -46 -118t-146 -45h-91q-72 0 -72 -44q0 -19 14.5 -27.5t35.5 -8.5h159q95 0 142.5 -37.5t47.5 -118.5v-17q0 -79 -50.5 -122t-150.5 -43h-157q-79 0 -127.5 34t-48.5 96v19q0 41 22.5 71.5t60.5 47.5q-26 14 -39.5 36.5
t-13.5 49.5q0 39 23.5 65.5t65.5 35.5q-48 23 -68.5 63.5t-20.5 90.5q0 90 54.5 132.5t162.5 42.5h289v-69zM381.5 287q20.5 23 20.5 63q0 50 -22.5 71.5t-65.5 21.5h-56q-46 0 -69 -20.5t-23 -67.5t21.5 -69t63.5 -22h58q52 0 72.5 23zM230 -2q-39 0 -64 -18.5t-25 -53.5
v-16q0 -35 24 -52t68 -17h109q47 0 73 18t26 53v17q0 69 -92 69h-119zM143 770h72l75 -83l81 83h73l-113 -139h-86z" />
    <glyph glyph-name="gcircumflex" unicode="&#x11d;" horiz-adv-x="580" 
d="M560 468l-95 -13q22 -20 35.5 -46t13.5 -75q0 -73 -46 -118t-146 -45h-91q-72 0 -72 -44q0 -19 14.5 -27.5t35.5 -8.5h159q95 0 142.5 -37.5t47.5 -118.5v-17q0 -79 -50.5 -122t-150.5 -43h-157q-79 0 -127.5 34t-48.5 96v19q0 41 22.5 71.5t60.5 47.5q-26 14 -39.5 36.5
t-13.5 49.5q0 39 23.5 65.5t65.5 35.5q-48 23 -68.5 63.5t-20.5 90.5q0 90 54.5 132.5t162.5 42.5h289v-69zM381.5 287q20.5 23 20.5 63q0 50 -22.5 71.5t-65.5 21.5h-56q-46 0 -69 -20.5t-23 -67.5t21.5 -69t63.5 -22h58q52 0 72.5 23zM230 -2q-39 0 -64 -18.5t-25 -53.5
v-16q0 -35 24 -52t68 -17h109q47 0 73 18t26 53v17q0 69 -92 69h-119zM251 770h85l103 -139h-73l-75 83l-80 -83h-73z" />
    <glyph glyph-name="gcommaaccent" unicode="&#x123;" horiz-adv-x="580" 
d="M560 468l-95 -13q22 -20 35.5 -46t13.5 -75q0 -73 -46 -118t-146 -45h-91q-72 0 -72 -44q0 -19 14.5 -27.5t35.5 -8.5h159q95 0 142.5 -37.5t47.5 -118.5v-17q0 -79 -50.5 -122t-150.5 -43h-157q-79 0 -127.5 34t-48.5 96v19q0 41 22.5 71.5t60.5 47.5q-26 14 -39.5 36.5
t-13.5 49.5q0 39 23.5 65.5t65.5 35.5q-48 23 -68.5 63.5t-20.5 90.5q0 90 54.5 132.5t162.5 42.5h289v-69zM381.5 287q20.5 23 20.5 63q0 50 -22.5 71.5t-65.5 21.5h-56q-46 0 -69 -20.5t-23 -67.5t21.5 -69t63.5 -22h58q52 0 72.5 23zM230 -2q-39 0 -64 -18.5t-25 -53.5
v-16q0 -35 24 -52t68 -17h109q47 0 73 18t26 53v17q0 69 -92 69h-119zM237 701.5q10 30.5 34.5 44.5t69.5 14h47v-50l-29 -7q-23 -4 -34.5 -11.5t-17 -24t-5.5 -49.5h-75q0 53 10 83.5z" />
    <glyph glyph-name="gdotaccent" unicode="&#x121;" horiz-adv-x="580" 
d="M560 468l-95 -13q22 -20 35.5 -46t13.5 -75q0 -73 -46 -118t-146 -45h-91q-72 0 -72 -44q0 -19 14.5 -27.5t35.5 -8.5h159q95 0 142.5 -37.5t47.5 -118.5v-17q0 -79 -50.5 -122t-150.5 -43h-157q-79 0 -127.5 34t-48.5 96v19q0 41 22.5 71.5t60.5 47.5q-26 14 -39.5 36.5
t-13.5 49.5q0 39 23.5 65.5t65.5 35.5q-48 23 -68.5 63.5t-20.5 90.5q0 90 54.5 132.5t162.5 42.5h289v-69zM381.5 287q20.5 23 20.5 63q0 50 -22.5 71.5t-65.5 21.5h-56q-46 0 -69 -20.5t-23 -67.5t21.5 -69t63.5 -22h58q52 0 72.5 23zM230 -2q-39 0 -64 -18.5t-25 -53.5
v-16q0 -35 24 -52t68 -17h109q47 0 73 18t26 53v17q0 69 -92 69h-119zM246.5 655q-5.5 5 -5.5 14v90q0 20 19 20h57q9 0 14 -5.5t5 -14.5v-90q0 -19 -19 -19h-57q-8 0 -13.5 5z" />
    <glyph glyph-name="uni1E21" unicode="&#x1e21;" horiz-adv-x="580" 
d="M560 468l-95 -13q22 -20 35.5 -46t13.5 -75q0 -73 -46 -118t-146 -45h-91q-72 0 -72 -44q0 -19 14.5 -27.5t35.5 -8.5h159q95 0 142.5 -37.5t47.5 -118.5v-17q0 -79 -50.5 -122t-150.5 -43h-157q-79 0 -127.5 34t-48.5 96v19q0 41 22.5 71.5t60.5 47.5q-26 14 -39.5 36.5
t-13.5 49.5q0 39 23.5 65.5t65.5 35.5q-48 23 -68.5 63.5t-20.5 90.5q0 90 54.5 132.5t162.5 42.5h289v-69zM381.5 287q20.5 23 20.5 63q0 50 -22.5 71.5t-65.5 21.5h-56q-46 0 -69 -20.5t-23 -67.5t21.5 -69t63.5 -22h58q52 0 72.5 23zM230 -2q-39 0 -64 -18.5t-25 -53.5
v-16q0 -35 24 -52t68 -17h109q47 0 73 18t26 53v17q0 69 -92 69h-119zM149 729h275v-73h-275v73z" />
    <glyph glyph-name="h" unicode="h" horiz-adv-x="593" 
d="M63 762h124v-282q35 27 84 46t96 19q85 0 125 -50.5t40 -136.5v-358h-124v343q0 42 -24.5 66t-64.5 24q-36 0 -67 -11t-65 -33v-389h-124v762z" />
    <glyph glyph-name="hbar" unicode="&#x127;" horiz-adv-x="593" 
d="M492 494.5q40 -50.5 40 -136.5v-358h-124v343q0 42 -24.5 66t-64.5 24q-36 0 -67 -11t-65 -33v-389h-124v620h-65v50h65v92h124v-92h122v-50h-122v-140q35 27 84 46t96 19q85 0 125 -50.5z" />
    <glyph glyph-name="uni1E2B" unicode="&#x1e2b;" horiz-adv-x="593" 
d="M63 762h124v-282q35 27 84 46t96 19q85 0 125 -50.5t40 -136.5v-358h-124v343q0 42 -24.5 66t-64.5 24q-36 0 -67 -11t-65 -33v-389h-124v762zM196.5 -189q-36.5 36 -36.5 112h58q0 -47 22 -69t56 -22q79 2 79 91h59q0 -76 -36.5 -112t-101.5 -36q-63 0 -99.5 36z" />
    <glyph glyph-name="hcircumflex" unicode="&#x125;" horiz-adv-x="593" 
d="M63 762h124v-282q35 27 84 46t96 19q85 0 125 -50.5t40 -136.5v-358h-124v343q0 42 -24.5 66t-64.5 24q-36 0 -67 -11t-65 -33v-389h-124v762zM115 958h85l103 -139h-73l-75 83l-80 -83h-73z" />
    <glyph glyph-name="uni1E25" unicode="&#x1e25;" horiz-adv-x="593" 
d="M63 762h124v-282q35 27 84 46t96 19q85 0 125 -50.5t40 -136.5v-358h-124v343q0 42 -24.5 66t-64.5 24q-36 0 -67 -11t-65 -33v-389h-124v762zM250.5 -215q-5.5 5 -5.5 14v90q0 9 5 14.5t14 5.5h58q9 0 13.5 -5.5t4.5 -14.5v-90q0 -19 -18 -19h-58q-8 0 -13.5 5z" />
    <glyph glyph-name="i" unicode="i" horiz-adv-x="251" 
d="M65.5 626q-5.5 5 -5.5 13v91q0 9 5 14.5t14 5.5h94q9 0 13.5 -5.5t4.5 -14.5v-91q0 -18 -18 -18h-94q-8 0 -13.5 5zM63 536h124v-536h-124v536z" />
    <glyph glyph-name="dotlessi" unicode="&#x131;" horiz-adv-x="249" 
d="M63 536h124v-536h-124v536z" />
    <glyph glyph-name="iacute" unicode="&#xed;" horiz-adv-x="249" 
d="M63 536h124v-536h-124v536zM175 770h102l-119 -139h-72z" />
    <glyph glyph-name="ibreve" unicode="&#x12d;" horiz-adv-x="249" 
d="M63 536h124v-536h-124v536zM18.5 661q-36.5 36 -36.5 112h58q0 -47 22 -69t56 -22q79 2 79 91h59q0 -76 -36.5 -112t-101.5 -36q-63 0 -99.5 36z" />
    <glyph glyph-name="icircumflex" unicode="&#xee;" horiz-adv-x="249" 
d="M63 536h124v-536h-124v536zM86 770h85l103 -139h-73l-75 83l-80 -83h-73z" />
    <glyph glyph-name="uni0209" unicode="&#x209;" horiz-adv-x="249" 
d="M63 536h124v-536h-124v536zM-95 770h102l89 -139h-72zM72 770h102l89 -139h-72z" />
    <glyph glyph-name="idieresis" unicode="&#xef;" horiz-adv-x="249" 
d="M63 536h124v-536h-124v536zM-18.5 648q-5.5 5 -5.5 14v90q0 9 5 14.5t14 5.5h58q9 0 13.5 -5.5t4.5 -14.5v-90q0 -19 -18 -19h-58q-8 0 -13.5 5zM177.5 648q-5.5 5 -5.5 14v90q0 20 19 20h58q9 0 13.5 -5.5t4.5 -14.5v-90q0 -19 -18 -19h-58q-8 0 -13.5 5z" />
    <glyph glyph-name="uni1E2F" unicode="&#x1e2f;" horiz-adv-x="249" 
d="M63 536h124v-536h-124v536zM-18.5 648q-5.5 5 -5.5 14v90q0 9 5 14.5t14 5.5h58q9 0 13.5 -5.5t4.5 -14.5v-90q0 -19 -18 -19h-58q-8 0 -13.5 5zM177.5 648q-5.5 5 -5.5 14v90q0 20 19 20h58q9 0 13.5 -5.5t4.5 -14.5v-90q0 -19 -18 -19h-58q-8 0 -13.5 5zM169 949h102
l-119 -139h-72z" />
    <glyph glyph-name="i.loclTRK" horiz-adv-x="249" 
d="M63 536h124v-536h-124v536zM81.5 655q-5.5 5 -5.5 14v90q0 20 19 20h57q9 0 14 -5.5t5 -14.5v-90q0 -19 -19 -19h-57q-8 0 -13.5 5z" />
    <glyph glyph-name="uni1ECB" unicode="&#x1ecb;" horiz-adv-x="251" 
d="M65.5 626q-5.5 5 -5.5 13v91q0 9 5 14.5t14 5.5h94q9 0 13.5 -5.5t4.5 -14.5v-91q0 -18 -18 -18h-94q-8 0 -13.5 5zM63 536h124v-536h-124v536zM78.5 -215q-5.5 5 -5.5 14v90q0 9 5 14.5t14 5.5h58q9 0 13.5 -5.5t4.5 -14.5v-90q0 -19 -18 -19h-58q-8 0 -13.5 5z" />
    <glyph glyph-name="igrave" unicode="&#xec;" horiz-adv-x="249" 
d="M63 536h124v-536h-124v536zM-8 770h101l90 -139h-73z" />
    <glyph glyph-name="uni1EC9" unicode="&#x1ec9;" horiz-adv-x="249" 
d="M63 536h124v-536h-124v536zM100 652q46 14 46 47q0 34 -38 34q-12 0 -34 -6v49q24 8 50 8q43 0 65.5 -21.5t22.5 -59.5t-27 -64t-85 -42v55z" />
    <glyph glyph-name="uni020B" unicode="&#x20b;" horiz-adv-x="249" 
d="M63 536h124v-536h-124v536zM225.5 739q36.5 -36 36.5 -112h-58q0 47 -22 69t-56 22q-79 -2 -79 -91h-59q0 76 36.5 112t101.5 36q63 0 99.5 -36z" />
    <glyph glyph-name="imacron" unicode="&#x12b;" horiz-adv-x="249" 
d="M63 536h124v-536h-124v536zM-16 729h275v-73h-275v73z" />
    <glyph glyph-name="iogonek" unicode="&#x12f;" horiz-adv-x="251" 
d="M65.5 626q-5.5 5 -5.5 13v91q0 9 5 14.5t14 5.5h94q9 0 13.5 -5.5t4.5 -14.5v-91q0 -18 -18 -18h-94q-8 0 -13.5 5zM63 536h124v-536h-124v536zM99 -164q-27 26 -27 64q0 32 17.5 58t51.5 42h46q-54 -32 -54 -72q0 -26 18 -41t49 -15h8v-59q-10 -3 -30 -3q-52 0 -79 26z
" />
    <glyph glyph-name="itilde" unicode="&#x129;" horiz-adv-x="249" 
d="M63 536h124v-536h-124v536zM-16.5 728q28.5 29 70.5 29q24 0 42.5 -7t44.5 -22q21 -12 34 -17.5t28 -5.5q22 0 35 14.5t14 41.5h63q-2 -61 -28.5 -93t-72.5 -32q-23 0 -43 7.5t-45 21.5q-22 12 -35.5 17.5t-27.5 5.5q-21 0 -34.5 -14t-14.5 -39h-62q3 64 31.5 93z" />
    <glyph glyph-name="j" unicode="j" horiz-adv-x="251" 
d="M65.5 626q-5.5 5 -5.5 13v91q0 20 19 20h93q18 0 18 -20v-91q0 -18 -18 -18h-93q-8 0 -13.5 5zM63 536h124v-527q0 -66 -8 -132.5t-22 -113.5h-94v773z" />
    <glyph glyph-name="uni0237" unicode="&#x237;" horiz-adv-x="251" 
d="M63 536h124v-527q0 -66 -8 -132.5t-22 -113.5h-94v773z" />
    <glyph glyph-name="jcircumflex" unicode="&#x135;" horiz-adv-x="251" 
d="M63 536h124v-527q0 -66 -8 -132.5t-22 -113.5h-94v773zM86 770h85l103 -139h-73l-75 83l-80 -83h-73z" />
    <glyph glyph-name="k" unicode="k" horiz-adv-x="537" 
d="M63 763h124v-423h68l134 196h127l-170 -252l184 -284h-127l-150 229h-66v-229h-124v763z" />
    <glyph glyph-name="kcommaaccent" unicode="&#x137;" horiz-adv-x="537" 
d="M63 763h124v-423h68l134 196h127l-170 -252l184 -284h-127l-150 229h-66v-229h-124v763zM184 -160l28 6q23 5 34.5 12t17 23.5t5.5 49.5h76q0 -78 -24.5 -110t-89.5 -32h-47v51z" />
    <glyph glyph-name="kgreenlandic" unicode="&#x138;" horiz-adv-x="537" 
d="M63 540h124v-208h64l134 204h131l-170 -260l184 -276h-127l-150 221h-66v-221h-124v540z" />
    <glyph glyph-name="l" unicode="l" horiz-adv-x="306" 
d="M102 39.5q-39 41.5 -39 133.5v590h124v-573q0 -51 15 -71.5t48 -24.5l45 -6v-90h-73q-81 0 -120 41.5z" />
    <glyph glyph-name="lacute" unicode="&#x13a;" horiz-adv-x="306" 
d="M102 39.5q-39 41.5 -39 133.5v590h124v-573q0 -51 15 -71.5t48 -24.5l45 -6v-90h-73q-81 0 -120 41.5zM175 991h102l-119 -139h-72z" />
    <glyph glyph-name="lcaron" unicode="&#x13e;" horiz-adv-x="306" 
d="M102 39.5q-39 41.5 -39 133.5v590h124v-573q0 -51 15 -71.5t48 -24.5l45 -6v-90h-73q-81 0 -120 41.5zM243 720v63h113v-63l-7 -138h-97z" />
    <glyph glyph-name="lcommaaccent" unicode="&#x13c;" horiz-adv-x="306" 
d="M102 39.5q-39 41.5 -39 133.5v590h124v-573q0 -51 15 -71.5t48 -24.5l45 -6v-90h-73q-81 0 -120 41.5zM93 -160l28 6q23 5 34.5 12t17 23.5t5.5 49.5h76q0 -78 -24.5 -110t-89.5 -32h-47v51z" />
    <glyph glyph-name="ldot" unicode="&#x140;" horiz-adv-x="357" 
d="M102 39.5q-39 41.5 -39 133.5v590h124v-573q0 -51 15 -71.5t48 -24.5l45 -6v-90h-73q-81 0 -120 41.5zM257.5 323q-5.5 5 -5.5 13v74q0 20 19 20h71q19 0 19 -20v-74q0 -18 -19 -18h-71q-8 0 -13.5 5z" />
    <glyph glyph-name="uni1E37" unicode="&#x1e37;" horiz-adv-x="306" 
d="M102 39.5q-39 41.5 -39 133.5v590h124v-573q0 -51 15 -71.5t48 -24.5l45 -6v-90h-73q-81 0 -120 41.5zM131.5 -215q-5.5 5 -5.5 14v90q0 9 5 14.5t14 5.5h58q9 0 13.5 -5.5t4.5 -14.5v-90q0 -19 -18 -19h-58q-8 0 -13.5 5z" />
    <glyph glyph-name="uni1E3B" unicode="&#x1e3b;" horiz-adv-x="306" 
d="M102 39.5q-39 41.5 -39 133.5v590h124v-573q0 -51 15 -71.5t48 -24.5l45 -6v-90h-73q-81 0 -120 41.5zM41 -131h275v-73h-275v73z" />
    <glyph glyph-name="lslash" unicode="&#x142;" horiz-adv-x="306" 
d="M295 88v-90h-73q-81 0 -120 41.5t-39 133.5v197l-64 -25v68l64 25v325h124v-285l93 35v-68l-93 -35v-220q0 -51 15 -71.5t48 -24.5z" />
    <glyph glyph-name="m" unicode="m" horiz-adv-x="937" 
d="M63 536h101l23 -56q43 31 87 48t100 17q48 0 82.5 -21t53.5 -56q42 31 95.5 54t102.5 23q169 0 169 -193v-352h-124v342q0 43 -24 67t-65 24q-34 0 -70.5 -13t-68.5 -35q7 -20 7 -46v-339h-124v342q0 43 -24 67t-65 24q-37 0 -68 -11t-64 -33v-389h-124v536z" />
    <glyph glyph-name="uni1E41" unicode="&#x1e41;" horiz-adv-x="937" 
d="M63 536h101l23 -56q43 31 87 48t100 17q48 0 82.5 -21t53.5 -56q42 31 95.5 54t102.5 23q169 0 169 -193v-352h-124v342q0 43 -24 67t-65 24q-34 0 -70.5 -13t-68.5 -35q7 -20 7 -46v-339h-124v342q0 43 -24 67t-65 24q-37 0 -68 -11t-64 -33v-389h-124v536zM437.5 655
q-5.5 5 -5.5 14v90q0 20 19 20h57q9 0 14 -5.5t5 -14.5v-90q0 -19 -19 -19h-57q-8 0 -13.5 5z" />
    <glyph glyph-name="uni1E43" unicode="&#x1e43;" horiz-adv-x="937" 
d="M63 536h101l23 -56q43 31 87 48t100 17q48 0 82.5 -21t53.5 -56q42 31 95.5 54t102.5 23q169 0 169 -193v-352h-124v342q0 43 -24 67t-65 24q-34 0 -70.5 -13t-68.5 -35q7 -20 7 -46v-339h-124v342q0 43 -24 67t-65 24q-37 0 -68 -11t-64 -33v-389h-124v536zM422.5 -215
q-5.5 5 -5.5 14v90q0 9 5 14.5t14 5.5h58q9 0 13.5 -5.5t4.5 -14.5v-90q0 -19 -18 -19h-58q-8 0 -13.5 5z" />
    <glyph glyph-name="n" unicode="n" horiz-adv-x="593" 
d="M63 536h101l23 -56q37 28 84.5 46.5t94.5 18.5q88 0 127 -51.5t39 -136.5v-357h-124v342q0 43 -24 67t-65 24q-37 0 -68 -11t-64 -33v-389h-124v536z" />
    <glyph glyph-name="nacute" unicode="&#x144;" horiz-adv-x="593" 
d="M63 536h101l23 -56q37 28 84.5 46.5t94.5 18.5q88 0 127 -51.5t39 -136.5v-357h-124v342q0 43 -24 67t-65 24q-37 0 -68 -11t-64 -33v-389h-124v536zM346 770h102l-119 -139h-72z" />
    <glyph glyph-name="ncaron" unicode="&#x148;" horiz-adv-x="593" 
d="M63 536h101l23 -56q37 28 84.5 46.5t94.5 18.5q88 0 127 -51.5t39 -136.5v-357h-124v342q0 43 -24 67t-65 24q-37 0 -68 -11t-64 -33v-389h-124v536zM149 770h72l75 -83l81 83h73l-113 -139h-86z" />
    <glyph glyph-name="ncommaaccent" unicode="&#x146;" horiz-adv-x="593" 
d="M63 536h101l23 -56q37 28 84.5 46.5t94.5 18.5q88 0 127 -51.5t39 -136.5v-357h-124v342q0 43 -24 67t-65 24q-37 0 -68 -11t-64 -33v-389h-124v536zM211 -160l28 6q23 5 34.5 12t17 23.5t5.5 49.5h76q0 -78 -24.5 -110t-89.5 -32h-47v51z" />
    <glyph glyph-name="uni1E45" unicode="&#x1e45;" horiz-adv-x="593" 
d="M63 536h101l23 -56q37 28 84.5 46.5t94.5 18.5q88 0 127 -51.5t39 -136.5v-357h-124v342q0 43 -24 67t-65 24q-37 0 -68 -11t-64 -33v-389h-124v536zM249.5 -215q-5.5 5 -5.5 14v90q0 9 5 14.5t14 5.5h58q9 0 13.5 -5.5t4.5 -14.5v-90q0 -19 -18 -19h-58q-8 0 -13.5 5z
" />
    <glyph glyph-name="uni1E47" unicode="&#x1e47;" horiz-adv-x="593" 
d="M63 536h101l23 -56q37 28 84.5 46.5t94.5 18.5q88 0 127 -51.5t39 -136.5v-357h-124v342q0 43 -24 67t-65 24q-37 0 -68 -11t-64 -33v-389h-124v536zM249.5 -215q-5.5 5 -5.5 14v90q0 9 5 14.5t14 5.5h58q9 0 13.5 -5.5t4.5 -14.5v-90q0 -19 -18 -19h-58q-8 0 -13.5 5z
" />
    <glyph glyph-name="eng" unicode="&#x14b;" horiz-adv-x="593" 
d="M493 493.5q39 -51.5 39 -136.5v-375q0 -82 -32.5 -136t-85.5 -83h-100q43 36 68.5 86.5t25.5 129.5v363q0 43 -24 67t-65 24q-37 0 -68 -11t-64 -33v-389h-124v536h101l23 -56q37 28 84.5 46.5t94.5 18.5q88 0 127 -51.5z" />
    <glyph glyph-name="uni1E49" unicode="&#x1e49;" horiz-adv-x="593" 
d="M63 536h101l23 -56q37 28 84.5 46.5t94.5 18.5q88 0 127 -51.5t39 -136.5v-357h-124v342q0 43 -24 67t-65 24q-37 0 -68 -11t-64 -33v-389h-124v536zM159 -131h275v-73h-275v73z" />
    <glyph glyph-name="ntilde" unicode="&#xf1;" horiz-adv-x="593" 
d="M63 536h101l23 -56q37 28 84.5 46.5t94.5 18.5q88 0 127 -51.5t39 -136.5v-357h-124v342q0 43 -24 67t-65 24q-37 0 -68 -11t-64 -33v-389h-124v536zM153.5 728q28.5 29 70.5 29q24 0 42.5 -7t44.5 -22q21 -12 34 -17.5t28 -5.5q22 0 35 14.5t14 41.5h63
q-2 -61 -28.5 -93t-72.5 -32q-23 0 -43 7.5t-45 21.5q-22 12 -35.5 17.5t-27.5 5.5q-21 0 -34.5 -14t-14.5 -39h-62q3 64 31.5 93z" />
    <glyph glyph-name="o" unicode="o" horiz-adv-x="576" 
d="M148 20q-52 25 -76.5 84t-24.5 165q0 110 24.5 169t76 82t139.5 23q89 0 140.5 -23.5t76.5 -83t25 -167.5t-24 -167t-76 -83t-142 -24q-87 0 -139 25zM356.5 106q24.5 12 36.5 49.5t12 114.5q0 76 -12 113.5t-36.5 49t-69.5 11.5q-44 0 -68.5 -11.5t-36.5 -49t-12 -113.5
q0 -77 12 -114.5t36.5 -49.5t68.5 -12q45 0 69.5 12z" />
    <glyph glyph-name="oacute" unicode="&#xf3;" horiz-adv-x="576" 
d="M148 20q-52 25 -76.5 84t-24.5 165q0 110 24.5 169t76 82t139.5 23q89 0 140.5 -23.5t76.5 -83t25 -167.5t-24 -167t-76 -83t-142 -24q-87 0 -139 25zM356.5 106q24.5 12 36.5 49.5t12 114.5q0 76 -12 113.5t-36.5 49t-69.5 11.5q-44 0 -68.5 -11.5t-36.5 -49t-12 -113.5
q0 -77 12 -114.5t36.5 -49.5t68.5 -12q45 0 69.5 12zM337 770h102l-119 -139h-72z" />
    <glyph glyph-name="obreve" unicode="&#x14f;" horiz-adv-x="576" 
d="M148 20q-52 25 -76.5 84t-24.5 165q0 110 24.5 169t76 82t139.5 23q89 0 140.5 -23.5t76.5 -83t25 -167.5t-24 -167t-76 -83t-142 -24q-87 0 -139 25zM356.5 106q24.5 12 36.5 49.5t12 114.5q0 76 -12 113.5t-36.5 49t-69.5 11.5q-44 0 -68.5 -11.5t-36.5 -49t-12 -113.5
q0 -77 12 -114.5t36.5 -49.5t68.5 -12q45 0 69.5 12zM180.5 661q-36.5 36 -36.5 112h58q0 -47 22 -69t56 -22q79 2 79 91h59q0 -76 -36.5 -112t-101.5 -36q-63 0 -99.5 36z" />
    <glyph glyph-name="ocircumflex" unicode="&#xf4;" horiz-adv-x="576" 
d="M148 20q-52 25 -76.5 84t-24.5 165q0 110 24.5 169t76 82t139.5 23q89 0 140.5 -23.5t76.5 -83t25 -167.5t-24 -167t-76 -83t-142 -24q-87 0 -139 25zM356.5 106q24.5 12 36.5 49.5t12 114.5q0 76 -12 113.5t-36.5 49t-69.5 11.5q-44 0 -68.5 -11.5t-36.5 -49t-12 -113.5
q0 -77 12 -114.5t36.5 -49.5t68.5 -12q45 0 69.5 12zM248 770h85l103 -139h-73l-75 83l-80 -83h-73z" />
    <glyph glyph-name="uni1ED1" unicode="&#x1ed1;" horiz-adv-x="576" 
d="M148 20q-52 25 -76.5 84t-24.5 165q0 110 24.5 169t76 82t139.5 23q89 0 140.5 -23.5t76.5 -83t25 -167.5t-24 -167t-76 -83t-142 -24q-87 0 -139 25zM356.5 106q24.5 12 36.5 49.5t12 114.5q0 76 -12 113.5t-36.5 49t-69.5 11.5q-44 0 -68.5 -11.5t-36.5 -49t-12 -113.5
q0 -77 12 -114.5t36.5 -49.5t68.5 -12q45 0 69.5 12zM539 840l-89 -127h-73l61 127h101zM332 736l103 -105h-72l-75 49l-81 -49h-73l113 105h85z" />
    <glyph glyph-name="uni1ED9" unicode="&#x1ed9;" horiz-adv-x="576" 
d="M148 20q-52 25 -76.5 84t-24.5 165q0 110 24.5 169t76 82t139.5 23q89 0 140.5 -23.5t76.5 -83t25 -167.5t-24 -167t-76 -83t-142 -24q-87 0 -139 25zM356.5 106q24.5 12 36.5 49.5t12 114.5q0 76 -12 113.5t-36.5 49t-69.5 11.5q-44 0 -68.5 -11.5t-36.5 -49t-12 -113.5
q0 -77 12 -114.5t36.5 -49.5t68.5 -12q45 0 69.5 12zM248 770h85l103 -139h-73l-75 83l-80 -83h-73zM240.5 -215q-5.5 5 -5.5 14v90q0 9 5 14.5t14 5.5h58q9 0 13.5 -5.5t4.5 -14.5v-90q0 -19 -18 -19h-58q-8 0 -13.5 5z" />
    <glyph glyph-name="uni1ED3" unicode="&#x1ed3;" horiz-adv-x="576" 
d="M148 20q-52 25 -76.5 84t-24.5 165q0 110 24.5 169t76 82t139.5 23q89 0 140.5 -23.5t76.5 -83t25 -167.5t-24 -167t-76 -83t-142 -24q-87 0 -139 25zM356.5 106q24.5 12 36.5 49.5t12 114.5q0 76 -12 113.5t-36.5 49t-69.5 11.5q-44 0 -68.5 -11.5t-36.5 -49t-12 -113.5
q0 -77 12 -114.5t36.5 -49.5t68.5 -12q45 0 69.5 12zM137 840l61 -127h-73l-89 127h101zM332 736l103 -105h-72l-75 49l-81 -49h-73l113 105h85z" />
    <glyph glyph-name="uni1ED5" unicode="&#x1ed5;" horiz-adv-x="576" 
d="M148 20q-52 25 -76.5 84t-24.5 165q0 110 24.5 169t76 82t139.5 23q89 0 140.5 -23.5t76.5 -83t25 -167.5t-24 -167t-76 -83t-142 -24q-87 0 -139 25zM356.5 106q24.5 12 36.5 49.5t12 114.5q0 76 -12 113.5t-36.5 49t-69.5 11.5q-44 0 -68.5 -11.5t-36.5 -49t-12 -113.5
q0 -77 12 -114.5t36.5 -49.5t68.5 -12q45 0 69.5 12zM401 740q38 12 38 39q0 14 -7 21t-24 7q-18 0 -33 -6v44q20 7 49 7q37 0 55.5 -17t18.5 -49q0 -74 -97 -101v55zM247 736h85l103 -105h-72l-75 49l-81 -49h-73z" />
    <glyph glyph-name="uni1ED7" unicode="&#x1ed7;" horiz-adv-x="576" 
d="M148 20q-52 25 -76.5 84t-24.5 165q0 110 24.5 169t76 82t139.5 23q89 0 140.5 -23.5t76.5 -83t25 -167.5t-24 -167t-76 -83t-142 -24q-87 0 -139 25zM356.5 106q24.5 12 36.5 49.5t12 114.5q0 76 -12 113.5t-36.5 49t-69.5 11.5q-44 0 -68.5 -11.5t-36.5 -49t-12 -113.5
q0 -77 12 -114.5t36.5 -49.5t68.5 -12q45 0 69.5 12zM281 855q36 -15 55 -15q20 0 31.5 10t11.5 28h63q-4 -54 -24.5 -76t-61.5 -22q-18 0 -33.5 4.5t-42.5 13.5q-39 15 -57 15q-17 0 -27 -9t-11 -25h-62q3 54 25.5 74t59.5 20q29 0 73 -18zM435 631h-72l-75 49l-81 -49h-73
l113 105h85z" />
    <glyph glyph-name="uni020D" unicode="&#x20d;" horiz-adv-x="576" 
d="M148 20q-52 25 -76.5 84t-24.5 165q0 110 24.5 169t76 82t139.5 23q89 0 140.5 -23.5t76.5 -83t25 -167.5t-24 -167t-76 -83t-142 -24q-87 0 -139 25zM356.5 106q24.5 12 36.5 49.5t12 114.5q0 76 -12 113.5t-36.5 49t-69.5 11.5q-44 0 -68.5 -11.5t-36.5 -49t-12 -113.5
q0 -77 12 -114.5t36.5 -49.5t68.5 -12q45 0 69.5 12zM67 770h102l89 -139h-72zM234 770h102l89 -139h-72z" />
    <glyph glyph-name="odieresis" unicode="&#xf6;" horiz-adv-x="576" 
d="M148 20q-52 25 -76.5 84t-24.5 165q0 110 24.5 169t76 82t139.5 23q89 0 140.5 -23.5t76.5 -83t25 -167.5t-24 -167t-76 -83t-142 -24q-87 0 -139 25zM356.5 106q24.5 12 36.5 49.5t12 114.5q0 76 -12 113.5t-36.5 49t-69.5 11.5q-44 0 -68.5 -11.5t-36.5 -49t-12 -113.5
q0 -77 12 -114.5t36.5 -49.5t68.5 -12q45 0 69.5 12zM143.5 648q-5.5 5 -5.5 14v90q0 9 5 14.5t14 5.5h58q9 0 13.5 -5.5t4.5 -14.5v-90q0 -19 -18 -19h-58q-8 0 -13.5 5zM339.5 648q-5.5 5 -5.5 14v90q0 20 19 20h58q9 0 13.5 -5.5t4.5 -14.5v-90q0 -19 -18 -19h-58
q-8 0 -13.5 5z" />
    <glyph glyph-name="uni022B" unicode="&#x22b;" horiz-adv-x="576" 
d="M148 20q-52 25 -76.5 84t-24.5 165q0 110 24.5 169t76 82t139.5 23q89 0 140.5 -23.5t76.5 -83t25 -167.5t-24 -167t-76 -83t-142 -24q-87 0 -139 25zM356.5 106q24.5 12 36.5 49.5t12 114.5q0 76 -12 113.5t-36.5 49t-69.5 11.5q-44 0 -68.5 -11.5t-36.5 -49t-12 -113.5
q0 -77 12 -114.5t36.5 -49.5t68.5 -12q45 0 69.5 12zM143.5 648q-5.5 5 -5.5 14v90q0 9 5 14.5t14 5.5h58q9 0 13.5 -5.5t4.5 -14.5v-90q0 -19 -18 -19h-58q-8 0 -13.5 5zM339.5 648q-5.5 5 -5.5 14v90q0 20 19 20h58q9 0 13.5 -5.5t4.5 -14.5v-90q0 -19 -18 -19h-58
q-8 0 -13.5 5zM146 908h275v-73h-275v73z" />
    <glyph glyph-name="uni0231" unicode="&#x231;" horiz-adv-x="576" 
d="M148 20q-52 25 -76.5 84t-24.5 165q0 110 24.5 169t76 82t139.5 23q89 0 140.5 -23.5t76.5 -83t25 -167.5t-24 -167t-76 -83t-142 -24q-87 0 -139 25zM356.5 106q24.5 12 36.5 49.5t12 114.5q0 76 -12 113.5t-36.5 49t-69.5 11.5q-44 0 -68.5 -11.5t-36.5 -49t-12 -113.5
q0 -77 12 -114.5t36.5 -49.5t68.5 -12q45 0 69.5 12zM243.5 655q-5.5 5 -5.5 14v90q0 20 19 20h57q9 0 14 -5.5t5 -14.5v-90q0 -19 -19 -19h-57q-8 0 -13.5 5zM146 904h275v-73h-275v73z" />
    <glyph glyph-name="uni1ECD" unicode="&#x1ecd;" horiz-adv-x="576" 
d="M148 20q-52 25 -76.5 84t-24.5 165q0 110 24.5 169t76 82t139.5 23q89 0 140.5 -23.5t76.5 -83t25 -167.5t-24 -167t-76 -83t-142 -24q-87 0 -139 25zM356.5 106q24.5 12 36.5 49.5t12 114.5q0 76 -12 113.5t-36.5 49t-69.5 11.5q-44 0 -68.5 -11.5t-36.5 -49t-12 -113.5
q0 -77 12 -114.5t36.5 -49.5t68.5 -12q45 0 69.5 12zM240.5 -215q-5.5 5 -5.5 14v90q0 9 5 14.5t14 5.5h58q9 0 13.5 -5.5t4.5 -14.5v-90q0 -19 -18 -19h-58q-8 0 -13.5 5z" />
    <glyph glyph-name="ograve" unicode="&#xf2;" horiz-adv-x="576" 
d="M148 20q-52 25 -76.5 84t-24.5 165q0 110 24.5 169t76 82t139.5 23q89 0 140.5 -23.5t76.5 -83t25 -167.5t-24 -167t-76 -83t-142 -24q-87 0 -139 25zM356.5 106q24.5 12 36.5 49.5t12 114.5q0 76 -12 113.5t-36.5 49t-69.5 11.5q-44 0 -68.5 -11.5t-36.5 -49t-12 -113.5
q0 -77 12 -114.5t36.5 -49.5t68.5 -12q45 0 69.5 12zM154 770h101l90 -139h-73z" />
    <glyph glyph-name="uni1ECF" unicode="&#x1ecf;" horiz-adv-x="576" 
d="M148 20q-52 25 -76.5 84t-24.5 165q0 110 24.5 169t76 82t139.5 23q89 0 140.5 -23.5t76.5 -83t25 -167.5t-24 -167t-76 -83t-142 -24q-87 0 -139 25zM356.5 106q24.5 12 36.5 49.5t12 114.5q0 76 -12 113.5t-36.5 49t-69.5 11.5q-44 0 -68.5 -11.5t-36.5 -49t-12 -113.5
q0 -77 12 -114.5t36.5 -49.5t68.5 -12q45 0 69.5 12zM262 652q46 14 46 47q0 34 -38 34q-12 0 -34 -6v49q24 8 50 8q43 0 65.5 -21.5t22.5 -59.5t-27 -64t-85 -42v55z" />
    <glyph glyph-name="ohorn" unicode="&#x1a1;" horiz-adv-x="576" 
d="M538.5 539q-21.5 -42 -59.5 -59q26 -32 38 -83.5t12 -127.5q0 -108 -24 -167t-76 -83t-142 -24q-87 0 -139 25t-76.5 84t-24.5 165q0 110 24.5 169t76 82t139.5 23q52 0 88 -7h25q36 0 55 26t19 85h86q0 -66 -21.5 -108zM356.5 106q24.5 12 36.5 49.5t12 114.5
q0 76 -12 113.5t-36.5 49t-69.5 11.5q-44 0 -68.5 -11.5t-36.5 -49t-12 -113.5q0 -77 12 -114.5t36.5 -49.5t68.5 -12q45 0 69.5 12z" />
    <glyph glyph-name="uni1EDB" unicode="&#x1edb;" horiz-adv-x="576" 
d="M538.5 539q-21.5 -42 -59.5 -59q26 -32 38 -83.5t12 -127.5q0 -108 -24 -167t-76 -83t-142 -24q-87 0 -139 25t-76.5 84t-24.5 165q0 110 24.5 169t76 82t139.5 23q52 0 88 -7h25q36 0 55 26t19 85h86q0 -66 -21.5 -108zM356.5 106q24.5 12 36.5 49.5t12 114.5
q0 76 -12 113.5t-36.5 49t-69.5 11.5q-44 0 -68.5 -11.5t-36.5 -49t-12 -113.5q0 -77 12 -114.5t36.5 -49.5t68.5 -12q45 0 69.5 12zM332 770h102l-119 -139h-72z" />
    <glyph glyph-name="uni1EE3" unicode="&#x1ee3;" horiz-adv-x="576" 
d="M538.5 539q-21.5 -42 -59.5 -59q26 -32 38 -83.5t12 -127.5q0 -108 -24 -167t-76 -83t-142 -24q-87 0 -139 25t-76.5 84t-24.5 165q0 110 24.5 169t76 82t139.5 23q52 0 88 -7h25q36 0 55 26t19 85h86q0 -66 -21.5 -108zM356.5 106q24.5 12 36.5 49.5t12 114.5
q0 76 -12 113.5t-36.5 49t-69.5 11.5q-44 0 -68.5 -11.5t-36.5 -49t-12 -113.5q0 -77 12 -114.5t36.5 -49.5t68.5 -12q45 0 69.5 12zM249.5 -215q-5.5 5 -5.5 14v90q0 9 5 14.5t14 5.5h58q9 0 13.5 -5.5t4.5 -14.5v-90q0 -19 -18 -19h-58q-8 0 -13.5 5z" />
    <glyph glyph-name="uni1EDD" unicode="&#x1edd;" horiz-adv-x="576" 
d="M538.5 539q-21.5 -42 -59.5 -59q26 -32 38 -83.5t12 -127.5q0 -108 -24 -167t-76 -83t-142 -24q-87 0 -139 25t-76.5 84t-24.5 165q0 110 24.5 169t76 82t139.5 23q52 0 88 -7h25q36 0 55 26t19 85h86q0 -66 -21.5 -108zM356.5 106q24.5 12 36.5 49.5t12 114.5
q0 76 -12 113.5t-36.5 49t-69.5 11.5q-44 0 -68.5 -11.5t-36.5 -49t-12 -113.5q0 -77 12 -114.5t36.5 -49.5t68.5 -12q45 0 69.5 12zM140 770h101l90 -139h-73z" />
    <glyph glyph-name="uni1EDF" unicode="&#x1edf;" horiz-adv-x="576" 
d="M538.5 539q-21.5 -42 -59.5 -59q26 -32 38 -83.5t12 -127.5q0 -108 -24 -167t-76 -83t-142 -24q-87 0 -139 25t-76.5 84t-24.5 165q0 110 24.5 169t76 82t139.5 23q52 0 88 -7h25q36 0 55 26t19 85h86q0 -66 -21.5 -108zM356.5 106q24.5 12 36.5 49.5t12 114.5
q0 76 -12 113.5t-36.5 49t-69.5 11.5q-44 0 -68.5 -11.5t-36.5 -49t-12 -113.5q0 -77 12 -114.5t36.5 -49.5t68.5 -12q45 0 69.5 12zM265 652q46 14 46 47q0 34 -38 34q-12 0 -34 -6v49q24 8 50 8q43 0 65.5 -21.5t22.5 -59.5t-27 -64t-85 -42v55z" />
    <glyph glyph-name="uni1EE1" unicode="&#x1ee1;" horiz-adv-x="576" 
d="M538.5 539q-21.5 -42 -59.5 -59q26 -32 38 -83.5t12 -127.5q0 -108 -24 -167t-76 -83t-142 -24q-87 0 -139 25t-76.5 84t-24.5 165q0 110 24.5 169t76 82t139.5 23q52 0 88 -7h25q36 0 55 26t19 85h86q0 -66 -21.5 -108zM356.5 106q24.5 12 36.5 49.5t12 114.5
q0 76 -12 113.5t-36.5 49t-69.5 11.5q-44 0 -68.5 -11.5t-36.5 -49t-12 -113.5q0 -77 12 -114.5t36.5 -49.5t68.5 -12q45 0 69.5 12zM124.5 728q28.5 29 70.5 29q24 0 42.5 -7t44.5 -22q21 -12 34 -17.5t28 -5.5q22 0 35 14.5t14 41.5h63q-2 -61 -28.5 -93t-72.5 -32
q-23 0 -43 7.5t-45 21.5q-22 12 -35.5 17.5t-27.5 5.5q-21 0 -34.5 -14t-14.5 -39h-62q3 64 31.5 93z" />
    <glyph glyph-name="ohungarumlaut" unicode="&#x151;" horiz-adv-x="576" 
d="M148 20q-52 25 -76.5 84t-24.5 165q0 110 24.5 169t76 82t139.5 23q89 0 140.5 -23.5t76.5 -83t25 -167.5t-24 -167t-76 -83t-142 -24q-87 0 -139 25zM356.5 106q24.5 12 36.5 49.5t12 114.5q0 76 -12 113.5t-36.5 49t-69.5 11.5q-44 0 -68.5 -11.5t-36.5 -49t-12 -113.5
q0 -77 12 -114.5t36.5 -49.5t68.5 -12q45 0 69.5 12zM240 770h95l-107 -139h-72zM399 770h95l-107 -139h-72z" />
    <glyph glyph-name="uni020F" unicode="&#x20f;" horiz-adv-x="576" 
d="M148 20q-52 25 -76.5 84t-24.5 165q0 110 24.5 169t76 82t139.5 23q89 0 140.5 -23.5t76.5 -83t25 -167.5t-24 -167t-76 -83t-142 -24q-87 0 -139 25zM356.5 106q24.5 12 36.5 49.5t12 114.5q0 76 -12 113.5t-36.5 49t-69.5 11.5q-44 0 -68.5 -11.5t-36.5 -49t-12 -113.5
q0 -77 12 -114.5t36.5 -49.5t68.5 -12q45 0 69.5 12zM387.5 739q36.5 -36 36.5 -112h-58q0 47 -22 69t-56 22q-79 -2 -79 -91h-59q0 76 36.5 112t101.5 36q63 0 99.5 -36z" />
    <glyph glyph-name="omacron" unicode="&#x14d;" horiz-adv-x="576" 
d="M148 20q-52 25 -76.5 84t-24.5 165q0 110 24.5 169t76 82t139.5 23q89 0 140.5 -23.5t76.5 -83t25 -167.5t-24 -167t-76 -83t-142 -24q-87 0 -139 25zM356.5 106q24.5 12 36.5 49.5t12 114.5q0 76 -12 113.5t-36.5 49t-69.5 11.5q-44 0 -68.5 -11.5t-36.5 -49t-12 -113.5
q0 -77 12 -114.5t36.5 -49.5t68.5 -12q45 0 69.5 12zM146 729h275v-73h-275v73z" />
    <glyph glyph-name="uni1E53" unicode="&#x1e53;" horiz-adv-x="576" 
d="M148 20q-52 25 -76.5 84t-24.5 165q0 110 24.5 169t76 82t139.5 23q89 0 140.5 -23.5t76.5 -83t25 -167.5t-24 -167t-76 -83t-142 -24q-87 0 -139 25zM356.5 106q24.5 12 36.5 49.5t12 114.5q0 76 -12 113.5t-36.5 49t-69.5 11.5q-44 0 -68.5 -11.5t-36.5 -49t-12 -113.5
q0 -77 12 -114.5t36.5 -49.5t68.5 -12q45 0 69.5 12zM146 729h275v-73h-275v73zM332 902h102l-119 -139h-72z" />
    <glyph glyph-name="uni1E51" unicode="&#x1e51;" horiz-adv-x="576" 
d="M148 20q-52 25 -76.5 84t-24.5 165q0 110 24.5 169t76 82t139.5 23q89 0 140.5 -23.5t76.5 -83t25 -167.5t-24 -167t-76 -83t-142 -24q-87 0 -139 25zM356.5 106q24.5 12 36.5 49.5t12 114.5q0 76 -12 113.5t-36.5 49t-69.5 11.5q-44 0 -68.5 -11.5t-36.5 -49t-12 -113.5
q0 -77 12 -114.5t36.5 -49.5t68.5 -12q45 0 69.5 12zM146 729h275v-73h-275v73zM143 902h101l90 -139h-73z" />
    <glyph glyph-name="uni01EB" unicode="&#x1eb;" horiz-adv-x="576" 
d="M293 -72q0 -26 18 -41t49 -15h8v-59q-11 -3 -30 -3q-52 0 -79 26t-27 64q0 61 60 95h-5q-87 0 -139 25t-76.5 84t-24.5 165q0 110 24.5 169t76 82t139.5 23q89 0 140.5 -23.5t76.5 -83t25 -167.5q0 -96 -19 -152.5t-59 -84.5t-108 -35q-50 -31 -50 -69zM182 155.5
q12 -37.5 36.5 -49.5t68.5 -12q45 0 69.5 12t36.5 49.5t12 114.5q0 76 -12 113.5t-36.5 49t-69.5 11.5q-44 0 -68.5 -11.5t-36.5 -49t-12 -113.5q0 -77 12 -114.5z" />
    <glyph glyph-name="oslash" unicode="&#xf8;" horiz-adv-x="576" 
d="M485 471q44 -62 44 -202q0 -108 -24 -167t-76 -83t-142 -24q-55 0 -94.5 9t-68.5 30l-28 -34h-59l55 67q-45 61 -45 202q0 110 24.5 169t76 82t139.5 23q57 0 98 -9t68 -30l27 32h59zM178 171l200 242q-13 18 -34.5 24.5t-56.5 6.5q-44 0 -68.5 -11.5t-36.5 -49
t-12 -113.5q0 -61 8 -99zM398 365l-200 -242q13 -17 34.5 -23t54.5 -6q45 0 69.5 12t36.5 49.5t12 114.5q0 61 -7 95z" />
    <glyph glyph-name="oslashacute" unicode="&#x1ff;" horiz-adv-x="576" 
d="M485 471q44 -62 44 -202q0 -108 -24 -167t-76 -83t-142 -24q-55 0 -94.5 9t-68.5 30l-28 -34h-59l55 67q-45 61 -45 202q0 110 24.5 169t76 82t139.5 23q57 0 98 -9t68 -30l27 32h59zM178 171l200 242q-13 18 -34.5 24.5t-56.5 6.5q-44 0 -68.5 -11.5t-36.5 -49
t-12 -113.5q0 -61 8 -99zM398 365l-200 -242q13 -17 34.5 -23t54.5 -6q45 0 69.5 12t36.5 49.5t12 114.5q0 61 -7 95zM337 770h102l-119 -139h-72z" />
    <glyph glyph-name="otilde" unicode="&#xf5;" horiz-adv-x="576" 
d="M148 20q-52 25 -76.5 84t-24.5 165q0 110 24.5 169t76 82t139.5 23q89 0 140.5 -23.5t76.5 -83t25 -167.5t-24 -167t-76 -83t-142 -24q-87 0 -139 25zM356.5 106q24.5 12 36.5 49.5t12 114.5q0 76 -12 113.5t-36.5 49t-69.5 11.5q-44 0 -68.5 -11.5t-36.5 -49t-12 -113.5
q0 -77 12 -114.5t36.5 -49.5t68.5 -12q45 0 69.5 12zM145.5 728q28.5 29 70.5 29q24 0 42.5 -7t44.5 -22q21 -12 34 -17.5t28 -5.5q22 0 35 14.5t14 41.5h63q-2 -61 -28.5 -93t-72.5 -32q-23 0 -43 7.5t-45 21.5q-22 12 -35.5 17.5t-27.5 5.5q-21 0 -34.5 -14t-14.5 -39h-62
q3 64 31.5 93z" />
    <glyph glyph-name="uni1E4D" unicode="&#x1e4d;" horiz-adv-x="576" 
d="M148 20q-52 25 -76.5 84t-24.5 165q0 110 24.5 169t76 82t139.5 23q89 0 140.5 -23.5t76.5 -83t25 -167.5t-24 -167t-76 -83t-142 -24q-87 0 -139 25zM356.5 106q24.5 12 36.5 49.5t12 114.5q0 76 -12 113.5t-36.5 49t-69.5 11.5q-44 0 -68.5 -11.5t-36.5 -49t-12 -113.5
q0 -77 12 -114.5t36.5 -49.5t68.5 -12q45 0 69.5 12zM145.5 728q28.5 29 70.5 29q24 0 42.5 -7t44.5 -22q21 -12 34 -17.5t28 -5.5q22 0 35 14.5t14 41.5h63q-2 -61 -28.5 -93t-72.5 -32q-23 0 -43 7.5t-45 21.5q-22 12 -35.5 17.5t-27.5 5.5q-21 0 -34.5 -14t-14.5 -39h-62
q3 64 31.5 93zM332 926h102l-119 -139h-72z" />
    <glyph glyph-name="uni1E4F" unicode="&#x1e4f;" horiz-adv-x="576" 
d="M148 20q-52 25 -76.5 84t-24.5 165q0 110 24.5 169t76 82t139.5 23q89 0 140.5 -23.5t76.5 -83t25 -167.5t-24 -167t-76 -83t-142 -24q-87 0 -139 25zM356.5 106q24.5 12 36.5 49.5t12 114.5q0 76 -12 113.5t-36.5 49t-69.5 11.5q-44 0 -68.5 -11.5t-36.5 -49t-12 -113.5
q0 -77 12 -114.5t36.5 -49.5t68.5 -12q45 0 69.5 12zM145.5 728q28.5 29 70.5 29q24 0 42.5 -7t44.5 -22q21 -12 34 -17.5t28 -5.5q22 0 35 14.5t14 41.5h63q-2 -61 -28.5 -93t-72.5 -32q-23 0 -43 7.5t-45 21.5q-22 12 -35.5 17.5t-27.5 5.5q-21 0 -34.5 -14t-14.5 -39h-62
q3 64 31.5 93zM153.5 810q-5.5 5 -5.5 14v90q0 9 5 14.5t14 5.5h58q9 0 13.5 -5.5t4.5 -14.5v-90q0 -19 -18 -19h-58q-8 0 -13.5 5zM349.5 810q-5.5 5 -5.5 14v90q0 20 19 20h58q9 0 13.5 -5.5t4.5 -14.5v-90q0 -19 -18 -19h-58q-8 0 -13.5 5z" />
    <glyph glyph-name="uni022D" unicode="&#x22d;" horiz-adv-x="576" 
d="M148 20q-52 25 -76.5 84t-24.5 165q0 110 24.5 169t76 82t139.5 23q89 0 140.5 -23.5t76.5 -83t25 -167.5t-24 -167t-76 -83t-142 -24q-87 0 -139 25zM356.5 106q24.5 12 36.5 49.5t12 114.5q0 76 -12 113.5t-36.5 49t-69.5 11.5q-44 0 -68.5 -11.5t-36.5 -49t-12 -113.5
q0 -77 12 -114.5t36.5 -49.5t68.5 -12q45 0 69.5 12zM146 908h275v-73h-275v73zM130.5 728q28.5 29 70.5 29q24 0 42.5 -7t44.5 -22q21 -12 34 -17.5t28 -5.5q22 0 35 14.5t14 41.5h63q-2 -61 -28.5 -93t-72.5 -32q-23 0 -43 7.5t-45 21.5q-22 12 -35.5 17.5t-27.5 5.5
q-21 0 -34.5 -14t-14.5 -39h-62q3 64 31.5 93z" />
    <glyph glyph-name="oe" unicode="&#x153;" horiz-adv-x="892" 
d="M555.5 119q32.5 -31 105.5 -31h169v-73q-104 -20 -204 -20q-109 0 -159 67q-26 -36 -70 -51.5t-111 -15.5q-87 0 -138.5 25t-76 84t-24.5 165q0 110 24.5 169t76 82t139.5 23q66 0 109 -15t69 -50q25 33 65 49t98 16q80 0 126 -16t68.5 -58t22.5 -120q0 -63 -42 -94.5
t-111 -31.5h-170q1 -73 33.5 -104zM544.5 417.5q-23.5 -35.5 -23.5 -119.5h148q33 0 50 14.5t17 49.5q0 53 -24.5 72t-83.5 19q-60 0 -83.5 -35.5zM356.5 100.5q24.5 12.5 36.5 51t12 118.5q0 79 -12 117.5t-36.5 50.5t-69.5 12q-44 0 -68.5 -12t-36.5 -50.5t-12 -117.5
q0 -80 12 -118.5t36.5 -51t68.5 -12.5q45 0 69.5 12.5z" />
    <glyph glyph-name="p" unicode="p" horiz-adv-x="583" 
d="M63 536h103l21 -53q32 25 73.5 42.5t84.5 17.5q98 0 144.5 -73.5t46.5 -201.5q0 -137 -44.5 -206t-146.5 -69q-40 0 -82 11t-76 30v-271h-124v773zM412 268q0 92 -28.5 133.5t-76.5 41.5q-54 0 -120 -35v-280q25 -15 57 -24t62 -9q106 0 106 173z" />
    <glyph glyph-name="uni1E57" unicode="&#x1e57;" horiz-adv-x="583" 
d="M63 536h103l21 -53q32 25 73.5 42.5t84.5 17.5q98 0 144.5 -73.5t46.5 -201.5q0 -137 -44.5 -206t-146.5 -69q-40 0 -82 11t-76 30v-271h-124v773zM412 268q0 92 -28.5 133.5t-76.5 41.5q-54 0 -120 -35v-280q25 -15 57 -24t62 -9q106 0 106 173zM236.5 655
q-5.5 5 -5.5 14v90q0 20 19 20h57q9 0 14 -5.5t5 -14.5v-90q0 -19 -19 -19h-57q-8 0 -13.5 5z" />
    <glyph glyph-name="thorn" unicode="&#xfe;" horiz-adv-x="583" 
d="M63 763h124v-280q32 25 73.5 42.5t84.5 17.5q94 0 142.5 -74.5t48.5 -200.5q0 -135 -46 -205t-145 -70q-40 0 -82 11t-76 30v-271h-124v1000zM412 262q0 96 -28.5 138.5t-76.5 42.5q-54 0 -120 -35v-280q25 -15 57 -24t62 -9q106 0 106 167z" />
    <glyph glyph-name="q" unicode="q" horiz-adv-x="580" 
d="M395 52q-34 -26 -75.5 -42t-79.5 -16q-72 0 -114 29.5t-60.5 89t-18.5 155.5q0 147 48.5 211t154.5 64q67 0 141 -5.5t128 -12.5v-762h-124v289zM336.5 103.5q32.5 9.5 58.5 25.5v321h-109q-64 0 -90 -44t-26 -134q0 -68 10.5 -106.5t33 -55t61.5 -16.5q29 0 61.5 9.5z
" />
    <glyph glyph-name="r" unicode="r" horiz-adv-x="419" 
d="M63 536h96l28 -86q35 44 74.5 68.5t89.5 24.5q24 0 45 -6v-126q-38 4 -61 4q-47 0 -81 -15.5t-67 -49.5v-350h-124v536z" />
    <glyph glyph-name="racute" unicode="&#x155;" horiz-adv-x="419" 
d="M63 536h96l28 -86q35 44 74.5 68.5t89.5 24.5q24 0 45 -6v-126q-38 4 -61 4q-47 0 -81 -15.5t-67 -49.5v-350h-124v536zM268 770h102l-119 -139h-72z" />
    <glyph glyph-name="rcaron" unicode="&#x159;" horiz-adv-x="419" 
d="M63 536h96l28 -86q35 44 74.5 68.5t89.5 24.5q24 0 45 -6v-126q-38 4 -61 4q-47 0 -81 -15.5t-67 -49.5v-350h-124v536zM71 770h72l75 -83l81 83h73l-113 -139h-86z" />
    <glyph glyph-name="rcommaaccent" unicode="&#x157;" horiz-adv-x="419" 
d="M63 536h96l28 -86q35 44 74.5 68.5t89.5 24.5q24 0 45 -6v-126q-38 4 -61 4q-47 0 -81 -15.5t-67 -49.5v-350h-124v536zM40 -160l28 6q23 5 34.5 12t17 23.5t5.5 49.5h76q0 -78 -24.5 -110t-89.5 -32h-47v51z" />
    <glyph glyph-name="uni0211" unicode="&#x211;" horiz-adv-x="419" 
d="M63 536h96l28 -86q35 44 74.5 68.5t89.5 24.5q24 0 45 -6v-126q-38 4 -61 4q-47 0 -81 -15.5t-67 -49.5v-350h-124v536zM-2 770h102l89 -139h-72zM165 770h102l89 -139h-72z" />
    <glyph glyph-name="uni1E5B" unicode="&#x1e5b;" horiz-adv-x="419" 
d="M63 536h96l28 -86q35 44 74.5 68.5t89.5 24.5q24 0 45 -6v-126q-38 4 -61 4q-47 0 -81 -15.5t-67 -49.5v-350h-124v536zM78.5 -215q-5.5 5 -5.5 14v90q0 9 5 14.5t14 5.5h58q9 0 13.5 -5.5t4.5 -14.5v-90q0 -19 -18 -19h-58q-8 0 -13.5 5z" />
    <glyph glyph-name="uni0213" unicode="&#x213;" horiz-adv-x="419" 
d="M63 536h96l28 -86q35 44 74.5 68.5t89.5 24.5q24 0 45 -6v-126q-38 4 -61 4q-47 0 -81 -15.5t-67 -49.5v-350h-124v536zM318.5 739q36.5 -36 36.5 -112h-58q0 47 -22 69t-56 22q-79 -2 -79 -91h-59q0 76 36.5 112t101.5 36q63 0 99.5 -36z" />
    <glyph glyph-name="uni1E5F" unicode="&#x1e5f;" horiz-adv-x="419" 
d="M63 536h96l28 -86q35 44 74.5 68.5t89.5 24.5q24 0 45 -6v-126q-38 4 -61 4q-47 0 -81 -15.5t-67 -49.5v-350h-124v536zM-12 -131h275v-73h-275v73z" />
    <glyph glyph-name="s" unicode="s" horiz-adv-x="503" 
d="M139 -0.5q-63 5.5 -91 15.5v73h231q41 0 59.5 11t18.5 45v19q0 27 -17.5 40.5t-56.5 13.5h-81q-162 0 -162 141v30q0 78 47 115.5t159 37.5q45 0 103.5 -6.5t90.5 -14.5v-73h-218q-39 0 -57.5 -13.5t-18.5 -45.5v-19q0 -31 19 -41.5t60 -10.5h83q77 0 116 -36t39 -102
v-44q0 -78 -52 -109.5t-156 -31.5q-53 0 -116 5.5z" />
    <glyph glyph-name="sacute" unicode="&#x15b;" horiz-adv-x="503" 
d="M139 -0.5q-63 5.5 -91 15.5v73h231q41 0 59.5 11t18.5 45v19q0 27 -17.5 40.5t-56.5 13.5h-81q-162 0 -162 141v30q0 78 47 115.5t159 37.5q45 0 103.5 -6.5t90.5 -14.5v-73h-218q-39 0 -57.5 -13.5t-18.5 -45.5v-19q0 -31 19 -41.5t60 -10.5h83q77 0 116 -36t39 -102
v-44q0 -78 -52 -109.5t-156 -31.5q-53 0 -116 5.5zM294 770h102l-119 -139h-72z" />
    <glyph glyph-name="uni1E65" unicode="&#x1e65;" horiz-adv-x="503" 
d="M139 -0.5q-63 5.5 -91 15.5v73h231q41 0 59.5 11t18.5 45v19q0 27 -17.5 40.5t-56.5 13.5h-81q-162 0 -162 141v30q0 78 47 115.5t159 37.5q45 0 103.5 -6.5t90.5 -14.5v-73h-218q-39 0 -57.5 -13.5t-18.5 -45.5v-19q0 -31 19 -41.5t60 -10.5h83q77 0 116 -36t39 -102
v-44q0 -78 -52 -109.5t-156 -31.5q-53 0 -116 5.5zM260 770h102l-119 -139h-72zM222.5 804q-5.5 5 -5.5 14v90q0 20 19 20h57q9 0 14 -5.5t5 -14.5v-90q0 -19 -19 -19h-57q-8 0 -13.5 5z" />
    <glyph glyph-name="scaron" unicode="&#x161;" horiz-adv-x="503" 
d="M139 -0.5q-63 5.5 -91 15.5v73h231q41 0 59.5 11t18.5 45v19q0 27 -17.5 40.5t-56.5 13.5h-81q-162 0 -162 141v30q0 78 47 115.5t159 37.5q45 0 103.5 -6.5t90.5 -14.5v-73h-218q-39 0 -57.5 -13.5t-18.5 -45.5v-19q0 -31 19 -41.5t60 -10.5h83q77 0 116 -36t39 -102
v-44q0 -78 -52 -109.5t-156 -31.5q-53 0 -116 5.5zM97 770h72l75 -83l81 83h73l-113 -139h-86z" />
    <glyph glyph-name="uni1E67" unicode="&#x1e67;" horiz-adv-x="503" 
d="M139 -0.5q-63 5.5 -91 15.5v73h231q41 0 59.5 11t18.5 45v19q0 27 -17.5 40.5t-56.5 13.5h-81q-162 0 -162 141v30q0 78 47 115.5t159 37.5q45 0 103.5 -6.5t90.5 -14.5v-73h-218q-39 0 -57.5 -13.5t-18.5 -45.5v-19q0 -31 19 -41.5t60 -10.5h83q77 0 116 -36t39 -102
v-44q0 -78 -52 -109.5t-156 -31.5q-53 0 -116 5.5zM97 770h72l75 -83l81 83h73l-113 -139h-86zM200.5 810q-5.5 5 -5.5 14v90q0 20 19 20h57q9 0 14 -5.5t5 -14.5v-90q0 -19 -19 -19h-57q-8 0 -13.5 5z" />
    <glyph glyph-name="scedilla" unicode="&#x15f;" horiz-adv-x="503" 
d="M424 281q39 -36 39 -102v-44q0 -74 -46.5 -106t-139.5 -35l-30 -47q32 -2 50.5 -18.5t18.5 -46.5q0 -37 -26 -57t-77 -20h-42v51l19 2q46 6 46 39q0 15 -11.5 25.5t-41.5 13.5l38 59q-128 4 -173 20v73h231q41 0 59.5 11t18.5 45v19q0 27 -17.5 40.5t-56.5 13.5h-81
q-162 0 -162 141v30q0 78 47 115.5t159 37.5q45 0 103.5 -6.5t90.5 -14.5v-73h-218q-39 0 -57.5 -13.5t-18.5 -45.5v-19q0 -31 19 -41.5t60 -10.5h83q77 0 116 -36z" />
    <glyph glyph-name="scircumflex" unicode="&#x15d;" horiz-adv-x="503" 
d="M139 -0.5q-63 5.5 -91 15.5v73h231q41 0 59.5 11t18.5 45v19q0 27 -17.5 40.5t-56.5 13.5h-81q-162 0 -162 141v30q0 78 47 115.5t159 37.5q45 0 103.5 -6.5t90.5 -14.5v-73h-218q-39 0 -57.5 -13.5t-18.5 -45.5v-19q0 -31 19 -41.5t60 -10.5h83q77 0 116 -36t39 -102
v-44q0 -78 -52 -109.5t-156 -31.5q-53 0 -116 5.5zM205 770h85l103 -139h-73l-75 83l-80 -83h-73z" />
    <glyph glyph-name="scommaaccent" unicode="&#x219;" horiz-adv-x="503" 
d="M139 -0.5q-63 5.5 -91 15.5v73h231q41 0 59.5 11t18.5 45v19q0 27 -17.5 40.5t-56.5 13.5h-81q-162 0 -162 141v30q0 78 47 115.5t159 37.5q45 0 103.5 -6.5t90.5 -14.5v-73h-218q-39 0 -57.5 -13.5t-18.5 -45.5v-19q0 -31 19 -41.5t60 -10.5h83q77 0 116 -36t39 -102
v-44q0 -78 -52 -109.5t-156 -31.5q-53 0 -116 5.5zM159 -160l28 6q23 5 34.5 12t17 23.5t5.5 49.5h76q0 -78 -24.5 -110t-89.5 -32h-47v51z" />
    <glyph glyph-name="uni1E61" unicode="&#x1e61;" horiz-adv-x="503" 
d="M139 -0.5q-63 5.5 -91 15.5v73h231q41 0 59.5 11t18.5 45v19q0 27 -17.5 40.5t-56.5 13.5h-81q-162 0 -162 141v30q0 78 47 115.5t159 37.5q45 0 103.5 -6.5t90.5 -14.5v-73h-218q-39 0 -57.5 -13.5t-18.5 -45.5v-19q0 -31 19 -41.5t60 -10.5h83q77 0 116 -36t39 -102
v-44q0 -78 -52 -109.5t-156 -31.5q-53 0 -116 5.5zM200.5 655q-5.5 5 -5.5 14v90q0 20 19 20h57q9 0 14 -5.5t5 -14.5v-90q0 -19 -19 -19h-57q-8 0 -13.5 5z" />
    <glyph glyph-name="uni1E63" unicode="&#x1e63;" horiz-adv-x="503" 
d="M139 -0.5q-63 5.5 -91 15.5v73h231q41 0 59.5 11t18.5 45v19q0 27 -17.5 40.5t-56.5 13.5h-81q-162 0 -162 141v30q0 78 47 115.5t159 37.5q45 0 103.5 -6.5t90.5 -14.5v-73h-218q-39 0 -57.5 -13.5t-18.5 -45.5v-19q0 -31 19 -41.5t60 -10.5h83q77 0 116 -36t39 -102
v-44q0 -78 -52 -109.5t-156 -31.5q-53 0 -116 5.5zM197.5 -215q-5.5 5 -5.5 14v90q0 9 5 14.5t14 5.5h58q9 0 13.5 -5.5t4.5 -14.5v-90q0 -19 -18 -19h-58q-8 0 -13.5 5z" />
    <glyph glyph-name="uni1E69" unicode="&#x1e69;" horiz-adv-x="503" 
d="M139 -0.5q-63 5.5 -91 15.5v73h231q41 0 59.5 11t18.5 45v19q0 27 -17.5 40.5t-56.5 13.5h-81q-162 0 -162 141v30q0 78 47 115.5t159 37.5q45 0 103.5 -6.5t90.5 -14.5v-73h-218q-39 0 -57.5 -13.5t-18.5 -45.5v-19q0 -31 19 -41.5t60 -10.5h83q77 0 116 -36t39 -102
v-44q0 -78 -52 -109.5t-156 -31.5q-53 0 -116 5.5zM197.5 -215q-5.5 5 -5.5 14v90q0 9 5 14.5t14 5.5h58q9 0 13.5 -5.5t4.5 -14.5v-90q0 -19 -18 -19h-58q-8 0 -13.5 5zM200.5 655q-5.5 5 -5.5 14v90q0 20 19 20h57q9 0 14 -5.5t5 -14.5v-90q0 -19 -19 -19h-57
q-8 0 -13.5 5z" />
    <glyph glyph-name="germandbls" unicode="&#xdf;" horiz-adv-x="598" 
d="M312 -2.5q-42 4.5 -67 11.5v83q64 -4 124 -4q49 0 70 17.5t21 40.5v16q0 20 -16.5 33t-50.5 28q-32 15 -52 28t-34.5 34.5t-14.5 53.5q0 36 16.5 64.5t48.5 65.5q28 32 42 55t14 51q0 48 -29 69.5t-85 21.5q-62 0 -92 -34t-30 -105v-527h-124v540q0 101 62 163.5
t185 62.5q118 0 174 -50t56 -134q0 -44 -19.5 -76.5t-54.5 -69.5q-23 -24 -34.5 -40.5t-11.5 -34.5q0 -19 15.5 -31.5t48.5 -29.5q33 -16 53.5 -30.5t35.5 -38.5t15 -59v-28q0 -78 -54 -114.5t-125 -36.5q-45 0 -87 4.5z" />
    <glyph glyph-name="t" unicode="t" horiz-adv-x="381" 
d="M130.5 42q-38.5 42 -36.5 142l4 252h-84v80l88 20l18 150h97v-150h136v-100h-136v-251q0 -47 17.5 -65.5t45.5 -21.5l67 -7v-91h-89q-89 0 -127.5 42z" />
    <glyph glyph-name="tbar" unicode="&#x167;" horiz-adv-x="381" 
d="M217 436v-110h128v-50h-128v-91q0 -47 17.5 -65.5t45.5 -21.5l67 -7v-91h-89q-89 0 -127.5 42t-36.5 142l1 92h-81v50h82l2 110h-84v80l88 20l18 150h97v-150h136v-100h-136z" />
    <glyph glyph-name="tcaron" unicode="&#x165;" horiz-adv-x="381" 
d="M130.5 42q-38.5 42 -36.5 142l4 252h-84v80l88 20l18 150h97v-150h136v-100h-136v-251q0 -47 17.5 -65.5t45.5 -21.5l67 -7v-91h-89q-89 0 -127.5 42zM273 720v63h113v-63l-7 -138h-97z" />
    <glyph glyph-name="uni0163" unicode="&#x163;" horiz-adv-x="381" 
d="M217 436v-251q0 -47 17.5 -65.5t45.5 -21.5l67 -7v-91h-89h-17l-34 -53q32 -2 50.5 -18.5t18.5 -46.5q0 -37 -26 -57t-77 -20h-42v51l19 2q46 6 46 39q0 15 -11.5 25.5t-41.5 13.5l47 72q-51 14 -74 56t-22 120l4 252h-84v80l88 20l18 150h97v-150h136v-100h-136z" />
    <glyph glyph-name="uni021B" unicode="&#x21b;" horiz-adv-x="381" 
d="M130.5 42q-38.5 42 -36.5 142l4 252h-84v80l88 20l18 150h97v-150h136v-100h-136v-251q0 -47 17.5 -65.5t45.5 -21.5l67 -7v-91h-89q-89 0 -127.5 42zM108 -160l28 6q23 5 34.5 12t17 23.5t5.5 49.5h76q0 -78 -24.5 -110t-89.5 -32h-47v51z" />
    <glyph glyph-name="uni1E97" unicode="&#x1e97;" horiz-adv-x="381" 
d="M130.5 42q-38.5 42 -36.5 142l4 252h-84v80l88 20l18 150h97v-150h136v-100h-136v-251q0 -47 17.5 -65.5t45.5 -21.5l67 -7v-91h-89q-89 0 -127.5 42zM41.5 740q-5.5 5 -5.5 14v90q0 9 5 14.5t14 5.5h58q9 0 13.5 -5.5t4.5 -14.5v-90q0 -19 -18 -19h-58q-8 0 -13.5 5z
M237.5 740q-5.5 5 -5.5 14v90q0 20 19 20h58q9 0 13.5 -5.5t4.5 -14.5v-90q0 -19 -18 -19h-58q-8 0 -13.5 5z" />
    <glyph glyph-name="uni1E6B" unicode="&#x1e6b;" horiz-adv-x="381" 
d="M130.5 42q-38.5 42 -36.5 142l4 252h-84v80l88 20l18 150h97v-150h136v-100h-136v-251q0 -47 17.5 -65.5t45.5 -21.5l67 -7v-91h-89q-89 0 -127.5 42zM125.5 747q-5.5 5 -5.5 14v90q0 20 19 20h57q9 0 14 -5.5t5 -14.5v-90q0 -19 -19 -19h-57q-8 0 -13.5 5z" />
    <glyph glyph-name="uni1E6D" unicode="&#x1e6d;" horiz-adv-x="381" 
d="M130.5 42q-38.5 42 -36.5 142l4 252h-84v80l88 20l18 150h97v-150h136v-100h-136v-251q0 -47 17.5 -65.5t45.5 -21.5l67 -7v-91h-89q-89 0 -127.5 42zM157.5 -215q-5.5 5 -5.5 14v90q0 9 5 14.5t14 5.5h58q9 0 13.5 -5.5t4.5 -14.5v-90q0 -19 -18 -19h-58q-8 0 -13.5 5z
" />
    <glyph glyph-name="uni1E6F" unicode="&#x1e6f;" horiz-adv-x="381" 
d="M130.5 42q-38.5 42 -36.5 142l4 252h-84v80l88 20l18 150h97v-150h136v-100h-136v-251q0 -47 17.5 -65.5t45.5 -21.5l67 -7v-91h-89q-89 0 -127.5 42zM67 -131h275v-73h-275v73z" />
    <glyph glyph-name="u" unicode="u" horiz-adv-x="593" 
d="M102.5 36q-40.5 42 -40.5 121v379h124v-343q0 -50 22.5 -69.5t68.5 -19.5q70 0 130 43v389h124v-536h-101l-23 56q-96 -62 -189 -62q-75 0 -115.5 42z" />
    <glyph glyph-name="uacute" unicode="&#xfa;" horiz-adv-x="593" 
d="M102.5 36q-40.5 42 -40.5 121v379h124v-343q0 -50 22.5 -69.5t68.5 -19.5q70 0 130 43v389h124v-536h-101l-23 56q-96 -62 -189 -62q-75 0 -115.5 42zM341 770h102l-119 -139h-72z" />
    <glyph glyph-name="ubreve" unicode="&#x16d;" horiz-adv-x="593" 
d="M102.5 36q-40.5 42 -40.5 121v379h124v-343q0 -50 22.5 -69.5t68.5 -19.5q70 0 130 43v389h124v-536h-101l-23 56q-96 -62 -189 -62q-75 0 -115.5 42zM184.5 661q-36.5 36 -36.5 112h58q0 -47 22 -69t56 -22q79 2 79 91h59q0 -76 -36.5 -112t-101.5 -36q-63 0 -99.5 36z
" />
    <glyph glyph-name="ucircumflex" unicode="&#xfb;" horiz-adv-x="593" 
d="M102.5 36q-40.5 42 -40.5 121v379h124v-343q0 -50 22.5 -69.5t68.5 -19.5q70 0 130 43v389h124v-536h-101l-23 56q-96 -62 -189 -62q-75 0 -115.5 42zM252 770h85l103 -139h-73l-75 83l-80 -83h-73z" />
    <glyph glyph-name="uni0215" unicode="&#x215;" horiz-adv-x="593" 
d="M102.5 36q-40.5 42 -40.5 121v379h124v-343q0 -50 22.5 -69.5t68.5 -19.5q70 0 130 43v389h124v-536h-101l-23 56q-96 -62 -189 -62q-75 0 -115.5 42zM71 770h102l89 -139h-72zM238 770h102l89 -139h-72z" />
    <glyph glyph-name="udieresis" unicode="&#xfc;" horiz-adv-x="593" 
d="M102.5 36q-40.5 42 -40.5 121v379h124v-343q0 -50 22.5 -69.5t68.5 -19.5q70 0 130 43v389h124v-536h-101l-23 56q-96 -62 -189 -62q-75 0 -115.5 42zM147.5 648q-5.5 5 -5.5 14v90q0 9 5 14.5t14 5.5h58q9 0 13.5 -5.5t4.5 -14.5v-90q0 -19 -18 -19h-58q-8 0 -13.5 5z
M343.5 648q-5.5 5 -5.5 14v90q0 20 19 20h58q9 0 13.5 -5.5t4.5 -14.5v-90q0 -19 -18 -19h-58q-8 0 -13.5 5z" />
    <glyph glyph-name="uni1EE5" unicode="&#x1ee5;" horiz-adv-x="593" 
d="M102.5 36q-40.5 42 -40.5 121v379h124v-343q0 -50 22.5 -69.5t68.5 -19.5q70 0 130 43v389h124v-536h-101l-23 56q-96 -62 -189 -62q-75 0 -115.5 42zM244.5 -215q-5.5 5 -5.5 14v90q0 9 5 14.5t14 5.5h58q9 0 13.5 -5.5t4.5 -14.5v-90q0 -19 -18 -19h-58q-8 0 -13.5 5z
" />
    <glyph glyph-name="ugrave" unicode="&#xf9;" horiz-adv-x="593" 
d="M102.5 36q-40.5 42 -40.5 121v379h124v-343q0 -50 22.5 -69.5t68.5 -19.5q70 0 130 43v389h124v-536h-101l-23 56q-96 -62 -189 -62q-75 0 -115.5 42zM158 770h101l90 -139h-73z" />
    <glyph glyph-name="uni1EE7" unicode="&#x1ee7;" horiz-adv-x="593" 
d="M102.5 36q-40.5 42 -40.5 121v379h124v-343q0 -50 22.5 -69.5t68.5 -19.5q70 0 130 43v389h124v-536h-101l-23 56q-96 -62 -189 -62q-75 0 -115.5 42zM266 652q46 14 46 47q0 34 -38 34q-12 0 -34 -6v49q24 8 50 8q43 0 65.5 -21.5t22.5 -59.5t-27 -64t-85 -42v55z" />
    <glyph glyph-name="uhorn" unicode="&#x1b0;" horiz-adv-x="593" 
d="M597 534q-24 -43 -66 -58v-476h-101l-23 56q-96 -62 -189 -62q-75 0 -115.5 42t-40.5 121v379h124v-343q0 -50 22.5 -69.5t68.5 -19.5q70 0 130 43v389h54q36 0 55 26t19 85h86q0 -70 -24 -113z" />
    <glyph glyph-name="uni1EE9" unicode="&#x1ee9;" horiz-adv-x="593" 
d="M597 534q-24 -43 -66 -58v-476h-101l-23 56q-96 -62 -189 -62q-75 0 -115.5 42t-40.5 121v379h124v-343q0 -50 22.5 -69.5t68.5 -19.5q70 0 130 43v389h54q36 0 55 26t19 85h86q0 -70 -24 -113zM339 770h102l-119 -139h-72z" />
    <glyph glyph-name="uni1EF1" unicode="&#x1ef1;" horiz-adv-x="593" 
d="M597 534q-24 -43 -66 -58v-476h-101l-23 56q-96 -62 -189 -62q-75 0 -115.5 42t-40.5 121v379h124v-343q0 -50 22.5 -69.5t68.5 -19.5q70 0 130 43v389h54q36 0 55 26t19 85h86q0 -70 -24 -113zM232.5 -215q-5.5 5 -5.5 14v90q0 9 5 14.5t14 5.5h58q9 0 13.5 -5.5
t4.5 -14.5v-90q0 -19 -18 -19h-58q-8 0 -13.5 5z" />
    <glyph glyph-name="uni1EEB" unicode="&#x1eeb;" horiz-adv-x="593" 
d="M597 534q-24 -43 -66 -58v-476h-101l-23 56q-96 -62 -189 -62q-75 0 -115.5 42t-40.5 121v379h124v-343q0 -50 22.5 -69.5t68.5 -19.5q70 0 130 43v389h54q36 0 55 26t19 85h86q0 -70 -24 -113zM150 770h101l90 -139h-73z" />
    <glyph glyph-name="uni1EED" unicode="&#x1eed;" horiz-adv-x="593" 
d="M597 534q-24 -43 -66 -58v-476h-101l-23 56q-96 -62 -189 -62q-75 0 -115.5 42t-40.5 121v379h124v-343q0 -50 22.5 -69.5t68.5 -19.5q70 0 130 43v389h54q36 0 55 26t19 85h86q0 -70 -24 -113zM270 652q46 14 46 47q0 34 -38 34q-12 0 -34 -6v49q24 8 50 8
q43 0 65.5 -21.5t22.5 -59.5t-27 -64t-85 -42v55z" />
    <glyph glyph-name="uni1EEF" unicode="&#x1eef;" horiz-adv-x="593" 
d="M597 534q-24 -43 -66 -58v-476h-101l-23 56q-96 -62 -189 -62q-75 0 -115.5 42t-40.5 121v379h124v-343q0 -50 22.5 -69.5t68.5 -19.5q70 0 130 43v389h54q36 0 55 26t19 85h86q0 -70 -24 -113zM148.5 728q28.5 29 70.5 29q24 0 42.5 -7t44.5 -22q21 -12 34 -17.5
t28 -5.5q22 0 35 14.5t14 41.5h63q-2 -61 -28.5 -93t-72.5 -32q-23 0 -43 7.5t-45 21.5q-22 12 -35.5 17.5t-27.5 5.5q-21 0 -34.5 -14t-14.5 -39h-62q3 64 31.5 93z" />
    <glyph glyph-name="uhungarumlaut" unicode="&#x171;" horiz-adv-x="593" 
d="M102.5 36q-40.5 42 -40.5 121v379h124v-343q0 -50 22.5 -69.5t68.5 -19.5q70 0 130 43v389h124v-536h-101l-23 56q-96 -62 -189 -62q-75 0 -115.5 42zM244 770h95l-107 -139h-72zM403 770h95l-107 -139h-72z" />
    <glyph glyph-name="uni0217" unicode="&#x217;" horiz-adv-x="593" 
d="M102.5 36q-40.5 42 -40.5 121v379h124v-343q0 -50 22.5 -69.5t68.5 -19.5q70 0 130 43v389h124v-536h-101l-23 56q-96 -62 -189 -62q-75 0 -115.5 42zM391.5 739q36.5 -36 36.5 -112h-58q0 47 -22 69t-56 22q-79 -2 -79 -91h-59q0 76 36.5 112t101.5 36q63 0 99.5 -36z
" />
    <glyph glyph-name="umacron" unicode="&#x16b;" horiz-adv-x="593" 
d="M102.5 36q-40.5 42 -40.5 121v379h124v-343q0 -50 22.5 -69.5t68.5 -19.5q70 0 130 43v389h124v-536h-101l-23 56q-96 -62 -189 -62q-75 0 -115.5 42zM150 729h275v-73h-275v73z" />
    <glyph glyph-name="uni1E7B" unicode="&#x1e7b;" horiz-adv-x="593" 
d="M102.5 36q-40.5 42 -40.5 121v379h124v-343q0 -50 22.5 -69.5t68.5 -19.5q70 0 130 43v389h124v-536h-101l-23 56q-96 -62 -189 -62q-75 0 -115.5 42zM150 729h275v-73h-275v73zM147.5 792q-5.5 5 -5.5 14v90q0 9 5 14.5t14 5.5h58q9 0 13.5 -5.5t4.5 -14.5v-90
q0 -19 -18 -19h-58q-8 0 -13.5 5zM343.5 792q-5.5 5 -5.5 14v90q0 20 19 20h58q9 0 13.5 -5.5t4.5 -14.5v-90q0 -19 -18 -19h-58q-8 0 -13.5 5z" />
    <glyph glyph-name="uogonek" unicode="&#x173;" horiz-adv-x="593" 
d="M552 -128v-59q-11 -3 -30 -3q-52 0 -79 26t-27 64q0 32 17.5 58t51.5 42h-55l-23 56q-96 -62 -189 -62q-75 0 -115.5 42t-40.5 121v379h124v-343q0 -50 22.5 -69.5t68.5 -19.5q70 0 130 43v389h124v-536q-54 -32 -54 -72q0 -26 18 -41t49 -15h8z" />
    <glyph glyph-name="uring" unicode="&#x16f;" horiz-adv-x="593" 
d="M102.5 36q-40.5 42 -40.5 121v379h124v-343q0 -50 22.5 -69.5t68.5 -19.5q70 0 130 43v389h124v-536h-101l-23 56q-96 -62 -189 -62q-75 0 -115.5 42zM201.5 613.5q-29.5 25.5 -29.5 85.5t29.5 86t89.5 26t89 -25.5t29 -86.5q0 -60 -28.5 -85.5t-89.5 -25.5
q-60 0 -89.5 25.5zM337 649q14 14 14 50t-14 50.5t-46 14.5t-46.5 -14.5t-14.5 -50.5t14.5 -50t46.5 -14t46 14z" />
    <glyph glyph-name="utilde" unicode="&#x169;" horiz-adv-x="593" 
d="M102.5 36q-40.5 42 -40.5 121v379h124v-343q0 -50 22.5 -69.5t68.5 -19.5q70 0 130 43v389h124v-536h-101l-23 56q-96 -62 -189 -62q-75 0 -115.5 42zM148.5 728q28.5 29 70.5 29q24 0 42.5 -7t44.5 -22q21 -12 34 -17.5t28 -5.5q22 0 35 14.5t14 41.5h63
q-2 -61 -28.5 -93t-72.5 -32q-23 0 -43 7.5t-45 21.5q-22 12 -35.5 17.5t-27.5 5.5q-21 0 -34.5 -14t-14.5 -39h-62q3 64 31.5 93z" />
    <glyph glyph-name="uni1E79" unicode="&#x1e79;" horiz-adv-x="593" 
d="M102.5 36q-40.5 42 -40.5 121v379h124v-343q0 -50 22.5 -69.5t68.5 -19.5q70 0 130 43v389h124v-536h-101l-23 56q-96 -62 -189 -62q-75 0 -115.5 42zM148.5 728q28.5 29 70.5 29q24 0 42.5 -7t44.5 -22q21 -12 34 -17.5t28 -5.5q22 0 35 14.5t14 41.5h63
q-2 -61 -28.5 -93t-72.5 -32q-23 0 -43 7.5t-45 21.5q-22 12 -35.5 17.5t-27.5 5.5q-21 0 -34.5 -14t-14.5 -39h-62q3 64 31.5 93zM335 926h102l-119 -139h-72z" />
    <glyph glyph-name="v" unicode="v" horiz-adv-x="554" 
d="M15 536h127l134 -421l137 421h126l-195 -536h-142z" />
    <glyph glyph-name="w" unicode="w" horiz-adv-x="816" 
d="M15 536h127l101 -421l116 421h104l116 -421l95 421h127l-147 -536h-137l-108 363l-111 -363h-134z" />
    <glyph glyph-name="wacute" unicode="&#x1e83;" horiz-adv-x="816" 
d="M15 536h127l101 -421l116 421h104l116 -421l95 421h127l-147 -536h-137l-108 363l-111 -363h-134zM463 770h102l-119 -139h-72z" />
    <glyph glyph-name="wcircumflex" unicode="&#x175;" horiz-adv-x="816" 
d="M15 536h127l101 -421l116 421h104l116 -421l95 421h127l-147 -536h-137l-108 363l-111 -363h-134zM374 770h85l103 -139h-73l-75 83l-80 -83h-73z" />
    <glyph glyph-name="wdieresis" unicode="&#x1e85;" horiz-adv-x="816" 
d="M15 536h127l101 -421l116 421h104l116 -421l95 421h127l-147 -536h-137l-108 363l-111 -363h-134zM269.5 648q-5.5 5 -5.5 14v90q0 9 5 14.5t14 5.5h58q9 0 13.5 -5.5t4.5 -14.5v-90q0 -19 -18 -19h-58q-8 0 -13.5 5zM465.5 648q-5.5 5 -5.5 14v90q0 20 19 20h58
q9 0 13.5 -5.5t4.5 -14.5v-90q0 -19 -18 -19h-58q-8 0 -13.5 5z" />
    <glyph glyph-name="wgrave" unicode="&#x1e81;" horiz-adv-x="816" 
d="M15 536h127l101 -421l116 421h104l116 -421l95 421h127l-147 -536h-137l-108 363l-111 -363h-134zM280 770h101l90 -139h-73z" />
    <glyph glyph-name="x" unicode="x" horiz-adv-x="529" 
d="M332 261l184 -261h-126l-130 184l-121 -184h-126l184 274l-184 262h126l131 -186l120 185l126 1z" />
    <glyph glyph-name="y" unicode="y" horiz-adv-x="559" 
d="M285 0q-122 0 -160 137l-110 399h128l97 -374q9 -27 22 -40t22.5 -16t22.5 -4l111 434h126l-172 -674l-48 -99h-101z" />
    <glyph glyph-name="yacute" unicode="&#xfd;" horiz-adv-x="559" 
d="M285 0q-122 0 -160 137l-110 399h128l97 -374q9 -27 22 -40t22.5 -16t22.5 -4l111 434h126l-172 -674l-48 -99h-101zM322 770h102l-119 -139h-72z" />
    <glyph glyph-name="ycircumflex" unicode="&#x177;" horiz-adv-x="559" 
d="M285 0q-122 0 -160 137l-110 399h128l97 -374q9 -27 22 -40t22.5 -16t22.5 -4l111 434h126l-172 -674l-48 -99h-101zM233 770h85l103 -139h-73l-75 83l-80 -83h-73z" />
    <glyph glyph-name="ydieresis" unicode="&#xff;" horiz-adv-x="559" 
d="M285 0q-122 0 -160 137l-110 399h128l97 -374q9 -27 22 -40t22.5 -16t22.5 -4l111 434h126l-172 -674l-48 -99h-101zM128.5 648q-5.5 5 -5.5 14v90q0 9 5 14.5t14 5.5h58q9 0 13.5 -5.5t4.5 -14.5v-90q0 -19 -18 -19h-58q-8 0 -13.5 5zM324.5 648q-5.5 5 -5.5 14v90
q0 20 19 20h58q9 0 13.5 -5.5t4.5 -14.5v-90q0 -19 -18 -19h-58q-8 0 -13.5 5z" />
    <glyph glyph-name="uni1E8F" unicode="&#x1e8f;" horiz-adv-x="559" 
d="M285 0q-122 0 -160 137l-110 399h128l97 -374q9 -27 22 -40t22.5 -16t22.5 -4l111 434h126l-172 -674l-48 -99h-101zM451.5 -215q-5.5 5 -5.5 14v90q0 9 5 14.5t14 5.5h58q9 0 13.5 -5.5t4.5 -14.5v-90q0 -19 -18 -19h-58q-8 0 -13.5 5z" />
    <glyph glyph-name="uni1EF5" unicode="&#x1ef5;" horiz-adv-x="559" 
d="M285 0q-122 0 -160 137l-110 399h128l97 -374q9 -27 22 -40t22.5 -16t22.5 -4l111 434h126l-172 -674l-48 -99h-101zM451.5 -215q-5.5 5 -5.5 14v90q0 9 5 14.5t14 5.5h58q9 0 13.5 -5.5t4.5 -14.5v-90q0 -19 -18 -19h-58q-8 0 -13.5 5z" />
    <glyph glyph-name="ygrave" unicode="&#x1ef3;" horiz-adv-x="559" 
d="M285 0q-122 0 -160 137l-110 399h128l97 -374q9 -27 22 -40t22.5 -16t22.5 -4l111 434h126l-172 -674l-48 -99h-101zM139 770h101l90 -139h-73z" />
    <glyph glyph-name="uni1EF7" unicode="&#x1ef7;" horiz-adv-x="559" 
d="M285 0q-122 0 -160 137l-110 399h128l97 -374q9 -27 22 -40t22.5 -16t22.5 -4l111 434h126l-172 -674l-48 -99h-101zM247 652q46 14 46 47q0 34 -38 34q-12 0 -34 -6v49q24 8 50 8q43 0 65.5 -21.5t22.5 -59.5t-27 -64t-85 -42v55z" />
    <glyph glyph-name="uni0233" unicode="&#x233;" horiz-adv-x="559" 
d="M285 0q-122 0 -160 137l-110 399h128l97 -374q9 -27 22 -40t22.5 -16t22.5 -4l111 434h126l-172 -674l-48 -99h-101zM131 729h275v-73h-275v73z" />
    <glyph glyph-name="uni1EF9" unicode="&#x1ef9;" horiz-adv-x="559" 
d="M285 0q-122 0 -160 137l-110 399h128l97 -374q9 -27 22 -40t22.5 -16t22.5 -4l111 434h126l-172 -674l-48 -99h-101zM129.5 728q28.5 29 70.5 29q24 0 42.5 -7t44.5 -22q21 -12 34 -17.5t28 -5.5q22 0 35 14.5t14 41.5h63q-2 -61 -28.5 -93t-72.5 -32q-23 0 -43 7.5
t-45 21.5q-22 12 -35.5 17.5t-27.5 5.5q-21 0 -34.5 -14t-14.5 -39h-62q3 64 31.5 93z" />
    <glyph glyph-name="z" unicode="z" horiz-adv-x="501" 
d="M47 90l272 346h-281v100h425v-90l-273 -346h273v-100h-416v90z" />
    <glyph glyph-name="zacute" unicode="&#x17a;" horiz-adv-x="501" 
d="M47 90l272 346h-281v100h425v-90l-273 -346h273v-100h-416v90zM292 770h102l-119 -139h-72z" />
    <glyph glyph-name="zcaron" unicode="&#x17e;" horiz-adv-x="501" 
d="M47 90l272 346h-281v100h425v-90l-273 -346h273v-100h-416v90zM95 770h72l75 -83l81 83h73l-113 -139h-86z" />
    <glyph glyph-name="zdotaccent" unicode="&#x17c;" horiz-adv-x="501" 
d="M47 90l272 346h-281v100h425v-90l-273 -346h273v-100h-416v90zM198.5 655q-5.5 5 -5.5 14v90q0 20 19 20h57q9 0 14 -5.5t5 -14.5v-90q0 -19 -19 -19h-57q-8 0 -13.5 5z" />
    <glyph glyph-name="uni1E93" unicode="&#x1e93;" horiz-adv-x="501" 
d="M47 90l272 346h-281v100h425v-90l-273 -346h273v-100h-416v90zM195.5 -215q-5.5 5 -5.5 14v90q0 9 5 14.5t14 5.5h58q9 0 13.5 -5.5t4.5 -14.5v-90q0 -19 -18 -19h-58q-8 0 -13.5 5z" />
    <glyph glyph-name="ordfeminine" unicode="&#xaa;" horiz-adv-x="410" 
d="M56.5 559q31.5 24 93.5 24h110v37q0 30 -17 42t-70 12h-120v62q73 21 159 21q79 0 118 -29t39 -101v-267h-86l-18 42q-14 -14 -55.5 -30t-82.5 -16q-46 0 -74 25.5t-28 68.5v40q0 45 31.5 69zM224.5 435.5q28.5 8.5 35.5 11.5v94l-80 -5q-29 -1 -42.5 -14.5t-13.5 -34.5
v-15q0 -45 52 -45q20 0 48.5 8.5zM28 317h348v-60h-348v60z" />
    <glyph glyph-name="ordmasculine" unicode="&#xba;" horiz-adv-x="429" 
d="M321.5 740q39.5 -18 58 -61.5t18.5 -121.5t-18 -121t-57.5 -61t-108.5 -18q-68 0 -107.5 18.5t-57.5 62t-18 119.5q0 80 18.5 123t57.5 60.5t107 17.5t107.5 -18zM257.5 444q15.5 8 23.5 34t8 79t-8 79t-23.5 34t-43.5 8q-29 0 -44 -8t-22.5 -33.5t-7.5 -79.5
q0 -53 7.5 -79t23 -34t43.5 -8t43.5 8zM39 317h350v-60h-350v60z" />
    <glyph glyph-name="uni03A9" unicode="&#x3a9;" horiz-adv-x="768" 
d="M631.5 645.5q77.5 -93.5 77.5 -250.5q0 -85 -35.5 -158t-100.5 -129l151 -9v-99h-270v108q66 55 98.5 127t32.5 153q0 106 -47 173t-154 67q-110 0 -157 -66.5t-47 -173.5q0 -86 32 -150.5t106 -129.5v-108h-270v99l151 10q-73 54 -108 128.5t-35 162.5q0 91 31.5 167
t105 124t191.5 48q170 0 247.5 -93.5z" />
    <glyph glyph-name="uni03BC" unicode="&#x3bc;" horiz-adv-x="593" 
d="M531 536v-536h-101l-17 56q-64 -62 -152 -62q-36 0 -75 13v-276h-124v805h124v-343q0 -50 23.5 -69.5t67.5 -19.5q38 0 69 10.5t61 32.5v389h124z" />
    <glyph glyph-name="pi" unicode="&#x3c0;" horiz-adv-x="631" 
d="M570 536v-112h-93v-273q0 -34 12 -47t41 -13h48v-73q-38 -24 -95 -24q-130 0 -130 151v279h-125v-424h-124v424h-86v112h552z" />
    <glyph glyph-name="zero" unicode="0" horiz-adv-x="650" 
d="M112 43.5q-50 47.5 -50 138.5v371q0 92 51 141.5t140 49.5h151q91 0 137 -50t46 -141v-371q0 -91 -48.5 -138.5t-135.5 -47.5h-151q-90 0 -140 47.5zM371 108q93 0 93 92v341q0 92 -88 92h-99q-44 0 -67.5 -23.5t-23.5 -68.5v-341q0 -46 24.5 -69t70.5 -23h90z" />
    <glyph glyph-name="one" unicode="1" horiz-adv-x="369" 
d="M174 626l-139 -25v79l152 65h111v-745h-124v626z" />
    <glyph glyph-name="two" unicode="2" horiz-adv-x="589" 
d="M49 100l256 251q51 49 73.5 89t22.5 88t-28.5 73.5t-98.5 25.5h-205v97q65 9 117.5 14.5t112.5 5.5q123 0 174.5 -50t51.5 -147q0 -73 -29.5 -130.5t-94.5 -121.5l-187 -183h335v-112h-500v100z" />
    <glyph glyph-name="three" unicode="3" horiz-adv-x="581" 
d="M40 12v99h232q66 0 97.5 18t31.5 66v37q0 43 -30 63t-78 22l-184 8v94l179 9q51 2 77.5 19.5t26.5 55.5v34q0 46 -30.5 68t-95.5 22h-207v99q142 20 256 18q97 -1 148.5 -47t51.5 -132v-57q0 -57 -28 -90.5t-70 -45.5q43 -12 76 -53t33 -103v-43q0 -86 -55 -132.5
t-154 -46.5q-156 0 -277 18z" />
    <glyph glyph-name="four" unicode="4" horiz-adv-x="610" 
d="M381 168h-333l-24 61l253 509h127l-234 -465h211v163l25 79h98v-242h85v-85l-85 -20v-167h-123v167z" />
    <glyph glyph-name="five" unicode="5" horiz-adv-x="616" 
d="M68 9v97h259q56 0 84.5 27.5t28.5 69.5v62q0 42 -23 65t-70 23h-65q-37 0 -57.5 -16t-26.5 -49h-117l21 450h435v-111h-328l-10 -209q15 18 43 29t65 11h83q84 0 129 -47.5t45 -123.5v-109q0 -183 -242 -183q-121 0 -254 14z" />
    <glyph glyph-name="six" unicode="6" horiz-adv-x="613" 
d="M153.5 28q-46.5 32 -71 112t-24.5 223q0 203 69 292t204 89q104 0 186 -14v-97h-177q-158 0 -158 -213q64 15 180 15q104 0 151.5 -41t47.5 -123v-105q0 -88 -48 -129t-130 -41h-110q-73 0 -119.5 32zM356 107q39 0 60.5 19t21.5 63v59q0 48 -25.5 65t-83.5 17h-147
q0 -87 12.5 -135.5t37.5 -68t65 -19.5h59z" />
    <glyph glyph-name="seven" unicode="7" horiz-adv-x="550" 
d="M361 615h-335v123h460l34 -55l-253 -683h-139z" />
    <glyph glyph-name="eight" unicode="8" horiz-adv-x="633" 
d="M66 152v103q0 45 25 78.5t62 41.5q-43 21 -57.5 52.5t-14.5 77.5v85q0 79 46.5 116.5t122.5 37.5h139q75 0 119.5 -37t44.5 -117v-85q0 -36 -17.5 -73t-51.5 -45q44 -10 63.5 -47t19.5 -81v-107q0 -85 -47 -120.5t-129 -35.5h-135q-190 0 -190 156zM360 430q72 0 72 76
v55q0 44 -17 61t-52 17h-87q-40 0 -57 -17.5t-17 -60.5v-55q0 -39 17.5 -57.5t56.5 -18.5h84zM363 102q44 0 62 17.5t18 54.5v75q0 39 -19.5 57t-62.5 18h-85q-33 0 -59.5 -19t-26.5 -56v-75q0 -38 22 -55t64 -17h87z" />
    <glyph glyph-name="nine" unicode="9" horiz-adv-x="613" 
d="M97 9v97h177q159 0 159 213q-64 -15 -180 -15q-104 0 -152 41t-48 124v105q0 87 48.5 128t130.5 41h110q73 0 119.5 -32t71 -112t24.5 -223q0 -203 -69 -292t-204 -89q-103 0 -187 14zM433 410q0 87 -12.5 135.5t-37 67.5t-65.5 19h-59q-40 0 -61 -18.5t-21 -63.5v-59
q0 -48 25.5 -64.5t83.5 -16.5h147z" />
    <glyph glyph-name="two.denominator" horiz-adv-x="450" 
d="M45 80l177 180q34 34 50 63.5t16 59.5t-19 46t-62 16h-149v82q98 17 170 17q93 0 131.5 -37t38.5 -109q0 -53 -20.5 -93t-72.5 -94l-115 -116h225v-95h-370v80z" />
    <glyph glyph-name="four.denominator" horiz-adv-x="450" 
d="M277 116h-238l-14 68l169 356h109l-158 -335h132v89l26 80h77v-169h57v-72l-57 -17v-116h-103v116z" />
    <glyph glyph-name="uni2080" unicode="&#x2080;" horiz-adv-x="450" 
d="M74.5 287q38.5 37 107.5 37h96q69 0 104 -37.5t35 -105.5v-265q0 -67 -37 -103t-103 -36h-96q-70 0 -107.5 35.5t-37.5 103.5v265q0 69 38.5 106zM252 -128q56 0 56 59v239q0 59 -56 59h-49q-26 0 -42 -15t-16 -44v-239q0 -30 16 -44.5t42 -14.5h49z" />
    <glyph glyph-name="uni2081" unicode="&#x2081;" horiz-adv-x="450" 
d="M411 -125v-95h-351v95h121v348l-113 -18v77l125 43h97v-450h121z" />
    <glyph glyph-name="uni2082" unicode="&#x2082;" horiz-adv-x="450" 
d="M45 -140l177 180q34 34 50 63.5t16 59.5t-19 46t-62 16h-149v82q98 17 170 17q93 0 131.5 -37t38.5 -109q0 -53 -20.5 -93t-72.5 -94l-115 -116h225v-95h-370v80z" />
    <glyph glyph-name="uni2083" unicode="&#x2083;" horiz-adv-x="450" 
d="M39 -209v84h164q46 0 68 12t22 42v22q0 51 -73 55l-131 5v81l126 7q36 2 54 12.5t18 34.5v23q0 28 -21 42t-66 14h-148v83q87 17 189 16q73 -1 113 -35t40 -98v-40q0 -41 -19.5 -65.5t-50.5 -33.5q34 -10 55.5 -38t21.5 -72v-28q0 -66 -43 -102t-119 -36q-115 0 -200 15z
" />
    <glyph glyph-name="uni2084" unicode="&#x2084;" horiz-adv-x="450" 
d="M277 -104h-238l-14 68l169 356h109l-158 -335h132v89l26 80h77v-169h57v-72l-57 -17v-116h-103v116z" />
    <glyph glyph-name="uni2085" unicode="&#x2085;" horiz-adv-x="450" 
d="M248 -130q32 0 51.5 15.5t19.5 42.5v46q0 25 -15 39.5t-43 14.5h-43q-24 0 -37 -9.5t-16 -30.5h-103l15 332h331v-95h-238l-6 -135q12 12 31.5 18.5t44.5 6.5h60q62 0 95 -34t33 -90v-79q0 -70 -46.5 -103t-137.5 -33q-72 0 -190 12v82h194z" />
    <glyph glyph-name="uni2086" unicode="&#x2086;" horiz-adv-x="450" 
d="M390 313v-84h-130q-56 0 -82.5 -34t-26.5 -103q42 12 125 12q78 0 112.5 -31.5t34.5 -91.5v-77q0 -66 -36.5 -96.5t-100.5 -30.5h-79q-57 0 -92.5 23t-54 81t-18.5 162q0 152 52.5 216.5t155.5 64.5q77 0 140 -11zM261 -129q26 0 41 12.5t15 38.5v39q0 32 -16 43t-56 11
h-94q0 -82 16.5 -113t53.5 -31h40z" />
    <glyph glyph-name="uni2087" unicode="&#x2087;" horiz-adv-x="450" 
d="M391 320l23 -60l-183 -480h-122l170 435h-241v105h353z" />
    <glyph glyph-name="uni2088" unicode="&#x2088;" horiz-adv-x="450" 
d="M76.5 -194.5q-37.5 28.5 -37.5 88.5v74q0 32 17 57t42 33q-25 14 -38 38.5t-13 53.5v62q0 57 36 84.5t93 27.5h105q56 0 90.5 -27.5t34.5 -84.5v-62q0 -31 -13 -56t-36 -34q28 -8 43 -35.5t15 -54.5v-76q0 -117 -133 -117h-100q-68 0 -105.5 28.5zM257 97q23 0 35 12.5
t12 29.5v47q0 49 -44 49h-61q-48 0 -48 -49v-47q0 -18 12 -30t36 -12h58zM261 -134q51 0 51 47v54q0 25 -12.5 36.5t-40.5 11.5h-62q-20 0 -37.5 -12.5t-17.5 -35.5v-54q0 -23 15 -35t40 -12h64z" />
    <glyph glyph-name="uni2089" unicode="&#x2089;" horiz-adv-x="450" 
d="M70 -212v82h129q56 0 82.5 34.5t26.5 103.5q-45 -12 -125 -12q-79 0 -112.5 31t-33.5 92v78q0 65 36.5 96t99.5 31h80q56 0 91.5 -23t54 -81.5t18.5 -162.5q0 -151 -52.5 -216t-154.5 -65q-81 0 -140 12zM198 229q-56 0 -56 -53v-36q0 -31 17.5 -42.5t57.5 -11.5h91
q0 57 -7 87.5t-22 43t-41 12.5h-40z" />
    <glyph glyph-name="uni2070" unicode="&#x2070;" horiz-adv-x="453" 
d="M74.5 787q38.5 37 107.5 37h96q69 0 104 -37.5t35 -105.5v-265q0 -67 -37 -103t-103 -36h-96q-70 0 -107.5 35.5t-37.5 103.5v265q0 69 38.5 106zM252 372q56 0 56 59v239q0 59 -56 59h-49q-26 0 -42 -15t-16 -44v-239q0 -30 16 -44.5t42 -14.5h49z" />
    <glyph glyph-name="uni00B9" unicode="&#xb9;" horiz-adv-x="453" 
d="M411 375v-95h-351v95h121v348l-113 -18v77l125 43h97v-450h121z" />
    <glyph glyph-name="uni00B2" unicode="&#xb2;" horiz-adv-x="453" 
d="M45 360l177 180q34 34 50 63.5t16 59.5t-19 46t-62 16h-149v82q98 17 170 17q93 0 131.5 -37t38.5 -109q0 -53 -20.5 -93t-72.5 -94l-115 -116h225v-95h-370v80z" />
    <glyph glyph-name="uni00B3" unicode="&#xb3;" horiz-adv-x="453" 
d="M39 291v84h164q46 0 68 12t22 42v22q0 51 -73 55l-131 5v81l126 7q36 2 54 12.5t18 34.5v23q0 28 -21 42t-66 14h-148v83q87 17 189 16q73 -1 113 -35t40 -98v-40q0 -41 -19.5 -65.5t-50.5 -33.5q34 -10 55.5 -38t21.5 -72v-28q0 -66 -43 -102t-119 -36q-114 0 -200 15z
" />
    <glyph glyph-name="uni2074" unicode="&#x2074;" horiz-adv-x="453" 
d="M277 396h-238l-14 68l169 356h109l-158 -335h132v89l26 80h77v-169h57v-72l-57 -17v-116h-103v116z" />
    <glyph glyph-name="uni2075" unicode="&#x2075;" horiz-adv-x="453" 
d="M248 370q32 0 51.5 15.5t19.5 42.5v46q0 25 -15 39.5t-43 14.5h-43q-24 0 -37 -9.5t-16 -30.5h-103l15 332h331v-95h-238l-6 -135q12 12 31.5 18.5t44.5 6.5h60q62 0 95 -34t33 -90v-79q0 -70 -46.5 -103t-137.5 -33q-72 0 -190 12v82h194z" />
    <glyph glyph-name="uni2076" unicode="&#x2076;" horiz-adv-x="453" 
d="M390 813v-84h-130q-56 0 -82.5 -34t-26.5 -103q42 12 125 12q78 0 112.5 -31.5t34.5 -91.5v-77q0 -66 -36.5 -96.5t-100.5 -30.5h-79q-57 0 -92.5 23t-54 81t-18.5 162q0 152 52.5 216.5t155.5 64.5q77 0 140 -11zM261 371q26 0 41 12.5t15 38.5v39q0 32 -16 43t-56 11
h-94q0 -82 16.5 -113t53.5 -31h40z" />
    <glyph glyph-name="uni2077" unicode="&#x2077;" horiz-adv-x="453" 
d="M391 820l23 -60l-183 -480h-122l170 435h-241v105h353z" />
    <glyph glyph-name="uni2078" unicode="&#x2078;" horiz-adv-x="453" 
d="M76.5 305.5q-37.5 28.5 -37.5 88.5v74q0 32 17 57t42 33q-25 14 -38 38.5t-13 53.5v62q0 57 36 84.5t93 27.5h105q56 0 90.5 -27.5t34.5 -84.5v-62q0 -31 -13 -56t-36 -34q28 -8 43 -35.5t15 -54.5v-76q0 -117 -133 -117h-100q-68 0 -105.5 28.5zM257 597q23 0 35 12.5
t12 29.5v47q0 49 -44 49h-61q-48 0 -48 -49v-47q0 -18 12 -30t36 -12h58zM261 366q51 0 51 47v54q0 25 -12.5 36.5t-40.5 11.5h-62q-20 0 -37.5 -12.5t-17.5 -35.5v-54q0 -23 15 -35t40 -12h64z" />
    <glyph glyph-name="uni2079" unicode="&#x2079;" horiz-adv-x="453" 
d="M70 288v82h129q56 0 82.5 34.5t26.5 103.5q-45 -12 -125 -12q-79 0 -112.5 31t-33.5 92v78q0 65 36.5 96t99.5 31h80q56 0 91.5 -23t54 -81.5t18.5 -162.5q0 -151 -52.5 -216t-154.5 -65q-81 0 -140 12zM198 729q-56 0 -56 -53v-36q0 -31 17.5 -42.5t57.5 -11.5h91
q0 57 -7 87.5t-22 43t-41 12.5h-40z" />
    <glyph glyph-name="fraction" unicode="&#x2044;" horiz-adv-x="298" 
d="M291 770h87l-371 -770h-87z" />
    <glyph glyph-name="onehalf" unicode="&#xbd;" horiz-adv-x="1275" 
d="M779 770h87l-371 -770h-87zM840 80l177 180q34 34 50 63.5t16 59.5t-19 46t-62 16h-149v82q98 17 170 17q93 0 131.5 -37t38.5 -109q0 -53 -20.5 -93t-72.5 -94l-115 -116h225v-95h-370v80zM415 375v-95h-351v95h121v348l-113 -18v77l125 43h97v-450h121z" />
    <glyph glyph-name="onequarter" unicode="&#xbc;" horiz-adv-x="1275" 
d="M779 770h87l-371 -770h-87zM1072 116h-238l-14 68l169 356h109l-158 -335h132v89l26 80h77v-169h57v-72l-57 -17v-116h-103v116zM415 375v-95h-351v95h121v348l-113 -18v77l125 43h97v-450h121z" />
    <glyph glyph-name="threequarters" unicode="&#xbe;" horiz-adv-x="1275" 
d="M779 770h87l-371 -770h-87zM1072 116h-238l-14 68l169 356h109l-158 -335h132v89l26 80h77v-169h57v-72l-57 -17v-116h-103v116zM49 291v84h164q46 0 68 12t22 42v22q0 51 -73 55l-131 5v81l126 7q36 2 54 12.5t18 34.5v23q0 28 -21 42t-66 14h-148v83q87 17 189 16
q73 -1 113 -35t40 -98v-40q0 -41 -19.5 -65.5t-50.5 -33.5q34 -10 55.5 -38t21.5 -72v-28q0 -66 -43 -102t-119 -36q-114 0 -200 15z" />
    <glyph glyph-name="asterisk" unicode="*" horiz-adv-x="439" 
d="M177 722l45 15l63 -125l-61 -24zM252 563l116 82l27 -38l-101 -95zM45 577v47l140 12l3 -65zM106 414l28 137l64 -16l-48 -135zM202 474l35 56l116 -87l-28 -37z" />
    <glyph glyph-name="backslash" unicode="\" horiz-adv-x="441" 
d="M18 770h124l281 -842h-124z" />
    <glyph glyph-name="periodcentered" unicode="&#xb7;" horiz-adv-x="260" 
d="M81.5 311q-5.5 5 -5.5 13v74q0 20 19 20h71q19 0 19 -20v-74q0 -18 -19 -18h-71q-8 0 -13.5 5z" />
    <glyph glyph-name="bullet" unicode="&#x2022;" horiz-adv-x="313" 
d="M85 307.5q-9 8.5 -9 23.5v100q0 16 8.5 25.5t24.5 9.5h94q35 0 35 -35v-100q0 -32 -35 -32h-94q-15 0 -24 8.5z" />
    <glyph glyph-name="colon" unicode=":" horiz-adv-x="222" 
d="M62.5 4q-5.5 5 -5.5 13v95q0 19 19 19h71q19 0 19 -19v-95q0 -18 -19 -18h-71q-8 0 -13.5 5zM62.5 410q-5.5 5 -5.5 13v95q0 19 19 19h71q19 0 19 -19v-95q0 -18 -19 -18h-71q-8 0 -13.5 5z" />
    <glyph glyph-name="comma" unicode="," horiz-adv-x="222" 
d="M75 -83q-12 2 -15 3v39q14 0 19.5 4t5.5 15v30h-9q-8 0 -13.5 5.5t-5.5 14.5v82q0 21 19 21h70q19 0 19 -21v-132q0 -63 -65 -63q-13 0 -25 2z" />
    <glyph glyph-name="ellipsis" unicode="&#x2026;" horiz-adv-x="816" 
d="M86.5 5q-5.5 5 -5.5 13v95q0 19 19 19h71q20 0 20 -19v-95q0 -18 -20 -18h-71q-8 0 -13.5 5zM358.5 5q-5.5 5 -5.5 13v95q0 19 19 19h71q20 0 20 -19v-95q0 -18 -20 -18h-71q-8 0 -13.5 5zM630.5 5q-5.5 5 -5.5 13v95q0 19 19 19h71q20 0 20 -19v-95q0 -18 -20 -18h-71
q-8 0 -13.5 5z" />
    <glyph glyph-name="exclam" unicode="!" horiz-adv-x="270" 
d="M72 737h124l-18 -535h-91zM83.5 4q-5.5 5 -5.5 13v95q0 19 19 19h71q19 0 19 -19v-95q0 -18 -19 -18h-71q-8 0 -13.5 5z" />
    <glyph glyph-name="exclamdown" unicode="&#xa1;" horiz-adv-x="270" 
d="M186.5 532q5.5 -5 5.5 -13v-95q0 -19 -19 -19h-71q-19 0 -19 19v95q0 18 19 18h71q8 0 13.5 -5zM198 -201h-124l18 535h91z" />
    <glyph glyph-name="numbersign" unicode="#" horiz-adv-x="710" 
d="M174 215h-156l13 82h159l23 136h-161l13 82h164l39 217h82l-38 -217h128l38 217h82l-37 -217h171l-12 -82h-172l-23 -136h172l-11 -82h-180l-37 -215h-83l38 215h-129l-38 -215h-82zM404 297l23 136h-132l-22 -136h131z" />
    <glyph glyph-name="period" unicode="." horiz-adv-x="222" 
d="M62.5 4q-5.5 5 -5.5 13v95q0 19 19 19h71q19 0 19 -19v-95q0 -18 -19 -18h-71q-8 0 -13.5 5z" />
    <glyph glyph-name="question" unicode="?" horiz-adv-x="530" 
d="M156 385h62q65 0 94 20t29 72v42q0 58 -29.5 83.5t-91.5 25.5q-44 0 -85.5 -8.5t-91.5 -26.5v90q94 56 215 56q103 0 154.5 -53.5t51.5 -147.5v-63q0 -93 -52 -138.5t-162 -45.5v-90h-94v184zM153.5 4q-5.5 5 -5.5 13v95q0 19 19 19h71q19 0 19 -19v-95q0 -18 -19 -18
h-71q-8 0 -13.5 5z" />
    <glyph glyph-name="questiondown" unicode="&#xbf;" horiz-adv-x="530" 
d="M376.5 532q5.5 -5 5.5 -13v-95q0 -19 -19 -19h-71q-19 0 -19 19v95q0 18 19 18h71q8 0 13.5 -5zM374 151h-62q-65 0 -94 -20t-29 -72v-42q0 -58 29.5 -83.5t91.5 -25.5q44 0 85.5 8.5t91.5 26.5v-90q-94 -56 -215 -56q-103 0 -154.5 53.5t-51.5 147.5v63q0 93 52 138.5
t162 45.5v90h94v-184z" />
    <glyph glyph-name="quotedbl" unicode="&#x22;" horiz-adv-x="359" 
d="M36 684v67h119v-67l-8 -183h-101zM198 684v67h119v-67l-8 -183h-101z" />
    <glyph glyph-name="quotesingle" unicode="'" horiz-adv-x="197" 
d="M36 684v67h119v-67l-8 -183h-101z" />
    <glyph glyph-name="semicolon" unicode=";" horiz-adv-x="222" 
d="M62.5 410q-5.5 5 -5.5 13v95q0 19 19 19h71q19 0 19 -19v-95q0 -18 -19 -18h-71q-8 0 -13.5 5zM75 -83q-12 2 -15 3v39q14 0 19.5 4t5.5 15v30h-9q-8 0 -13.5 5.5t-5.5 14.5v82q0 21 19 21h70q19 0 19 -21v-132q0 -63 -65 -63q-13 0 -25 2z" />
    <glyph glyph-name="slash" unicode="/" horiz-adv-x="441" 
d="M299 770h124l-281 -842h-124z" />
    <glyph glyph-name="underscore" unicode="_" horiz-adv-x="609" 
d="M0 -82h609v-100h-609v100z" />
    <glyph glyph-name="periodcentered.loclCAT.case" 
d="M-158.5 327q-5.5 5 -5.5 13v74q0 20 19 20h71q19 0 19 -20v-74q0 -18 -19 -18h-71q-8 0 -13.5 5z" />
    <glyph glyph-name="periodcentered.loclCAT" horiz-adv-x="114" 
d="M-9.5 311q-5.5 5 -5.5 13v74q0 20 19 20h71q19 0 19 -20v-74q0 -18 -19 -18h-71q-8 0 -13.5 5z" />
    <glyph glyph-name="braceleft" unicode="{" horiz-adv-x="315" 
d="M134.5 -166.5q-45.5 43.5 -45.5 128.5v253q0 29 -20.5 46t-50.5 15v115q72 7 72 61v204q0 88 49.5 137t157.5 49v-100q-31 0 -49 -12t-26 -40.5t-8 -80.5v-177q0 -46 -25.5 -70t-69.5 -28q43 -8 68.5 -33t25.5 -62v-236q0 -66 18 -92.5t66 -26.5v-94q-117 0 -162.5 43.5z
" />
    <glyph glyph-name="braceright" unicode="}" horiz-adv-x="315" 
d="M18 -116q47 0 65.5 27t18.5 92v236q0 38 25 62.5t68 32.5q-44 4 -69 28t-25 70v177q0 52 -8 80.5t-26 40.5t-49 12v100q108 0 157.5 -49t49.5 -137v-204q0 -54 72 -61v-115q-30 2 -50.5 -15t-20.5 -46v-253q0 -85 -46 -128.5t-162 -43.5v94z" />
    <glyph glyph-name="bracketleft" unicode="[" horiz-adv-x="337" 
d="M112 -150.5q-36 59.5 -36 141.5v661q0 86 39.5 138t131.5 52h73v-100h-38q-82 0 -82 -107v-638q0 -107 82 -107h38v-100h-73q-99 0 -135 59.5z" />
    <glyph glyph-name="bracketright" unicode="]" horiz-adv-x="337" 
d="M18 -110h38q82 0 82 107v638q0 107 -82 107h-38v100h73q92 0 131.5 -52t39.5 -138v-661q0 -82 -36 -141.5t-135 -59.5h-73v100z" />
    <glyph glyph-name="parenleft" unicode="(" horiz-adv-x="373" 
d="M112.5 30.5q-46.5 126.5 -46.5 295.5q0 161 48 290.5t129 243.5h112q-77 -129 -121 -257.5t-44 -276.5q0 -150 41 -273t124 -263h-112q-84 114 -130.5 240.5z" />
    <glyph glyph-name="parenright" unicode=")" horiz-adv-x="372" 
d="M139 47.5q43 127.5 43 277.5q0 151 -40 273t-124 262h111q85 -114 131 -240t46 -295q0 -163 -47 -291.5t-130 -243.5h-111q78 130 121 257.5z" />
    <glyph glyph-name="emdash" unicode="&#x2014;" horiz-adv-x="742" 
d="M23 340h696v-101h-696v101z" />
    <glyph glyph-name="endash" unicode="&#x2013;" horiz-adv-x="519" 
d="M23 340h473v-101h-473v101z" />
    <glyph glyph-name="figuredash" unicode="&#x2012;" horiz-adv-x="609" 
d="M68 340h473v-101h-473v101z" />
    <glyph glyph-name="uni2015" unicode="&#x2015;" horiz-adv-x="742" 
d="M23 340h696v-101h-696v101z" />
    <glyph glyph-name="hyphen" unicode="-" horiz-adv-x="347" 
d="M23 340h302v-100h-302v100z" />
    <glyph glyph-name="uni2010" unicode="&#x2010;" horiz-adv-x="347" 
d="M23 340h302v-100h-302v100z" />
    <glyph glyph-name="uni00AD" unicode="&#xad;" horiz-adv-x="347" 
d="M23 340h302v-100h-302v100z" />
    <glyph glyph-name="guillemotleft" unicode="&#xab;" horiz-adv-x="617" 
d="M45 282l217 214l64 -62l-155 -152l158 -156l-62 -64zM295 282l217 214l64 -62l-155 -152l158 -156l-62 -64z" />
    <glyph glyph-name="guillemotright" unicode="&#xbb;" horiz-adv-x="617" 
d="M43 126l155 153l-157 154l64 63l220 -217l-221 -217zM293 126l155 153l-157 154l64 63l220 -217l-221 -217z" />
    <glyph glyph-name="guilsinglleft" unicode="&#x2039;" horiz-adv-x="367" 
d="M45 282l217 214l64 -62l-155 -152l158 -156l-62 -64z" />
    <glyph glyph-name="guilsinglright" unicode="&#x203a;" horiz-adv-x="367" 
d="M43 126l155 153l-157 154l64 63l220 -217l-221 -217z" />
    <glyph glyph-name="quotedblbase" unicode="&#x201e;" horiz-adv-x="361" 
d="M58.5 -115q-8.5 1 -9.5 1v45q26 0 26 27v36h-9q-9 0 -15 5.5t-6 15.5v93q0 23 21 23h76q18 0 18 -23v-149q0 -43 -24.5 -59t-57.5 -16q-11 0 -19.5 1zM209.5 -115q-8.5 1 -9.5 1v45q26 0 26 27v36h-9q-9 0 -15 5.5t-6 15.5v93q0 23 21 23h76q18 0 18 -23v-149
q0 -43 -24.5 -59t-57.5 -16q-11 0 -19.5 1z" />
    <glyph glyph-name="quotedblleft" unicode="&#x201c;" horiz-adv-x="361" 
d="M51 532v149q0 43 24.5 59t57.5 16q17 0 29 -2v-45q-26 0 -26 -27v-36h9q9 0 15 -5.5t6 -15.5v-93q0 -23 -21 -23h-76q-18 0 -18 23zM202 532v149q0 43 24.5 59t57.5 16q17 0 29 -2v-45q-26 0 -26 -27v-36h9q9 0 15 -5.5t6 -15.5v-93q0 -23 -21 -23h-76q-18 0 -18 23z" />
    <glyph glyph-name="quotedblright" unicode="&#x201d;" horiz-adv-x="361" 
d="M49 507v46q26 0 26 26v36h-9q-9 0 -15 5.5t-6 15.5v93q0 23 21 23h76q18 0 18 -23v-149q0 -43 -24.5 -59t-57.5 -16q-21 0 -29 2zM200 507v46q26 0 26 26v36h-9q-9 0 -15 5.5t-6 15.5v93q0 23 21 23h76q18 0 18 -23v-149q0 -43 -24.5 -59t-57.5 -16q-21 0 -29 2z" />
    <glyph glyph-name="quoteleft" unicode="&#x2018;" horiz-adv-x="211" 
d="M51 532v149q0 43 24.5 59t57.5 16q17 0 29 -2v-45q-26 0 -26 -27v-36h9q9 0 15 -5.5t6 -15.5v-93q0 -23 -21 -23h-76q-18 0 -18 23z" />
    <glyph glyph-name="quoteright" unicode="&#x2019;" horiz-adv-x="211" 
d="M49 507v46q26 0 26 26v36h-9q-9 0 -15 5.5t-6 15.5v93q0 23 21 23h76q18 0 18 -23v-149q0 -43 -24.5 -59t-57.5 -16q-21 0 -29 2z" />
    <glyph glyph-name="quotesinglbase" unicode="&#x201a;" horiz-adv-x="211" 
d="M58.5 -115q-8.5 1 -9.5 1v45q26 0 26 27v36h-9q-9 0 -15 5.5t-6 15.5v93q0 23 21 23h76q18 0 18 -23v-149q0 -43 -24.5 -59t-57.5 -16q-11 0 -19.5 1z" />
    <glyph glyph-name="uni2007" unicode="&#x2007;" horiz-adv-x="609" 
 />
    <glyph glyph-name="uni200A" unicode="&#x200a;" horiz-adv-x="80" 
 />
    <glyph glyph-name="uni2008" unicode="&#x2008;" horiz-adv-x="222" 
 />
    <glyph glyph-name="uni00A0" unicode="&#xa0;" horiz-adv-x="262" 
 />
    <glyph glyph-name="uni2009" unicode="&#x2009;" horiz-adv-x="131" 
 />
    <glyph glyph-name="uni200B" unicode="&#x200b;" 
 />
    <glyph glyph-name="uni20B5" unicode="&#x20b5;" horiz-adv-x="609" 
d="M395 630v-531q97 1 163 16v-89q-60 -24 -163 -30v-88h-60v86h-3q-95 0 -154 30t-90 110.5t-31 229.5q0 143 34 224.5t94.5 113.5t149.5 34v57h60v-59q51 -3 93.5 -12t69.5 -18v-90q-87 13 -163 16zM183.5 204q14.5 -55 50 -78t101.5 -26v529q-60 -4 -95.5 -27t-53 -79.5
t-17.5 -160.5q0 -103 14.5 -158z" />
    <glyph glyph-name="cent" unicode="&#xa2;" horiz-adv-x="486" 
d="M229 -5q-92 1 -143 60t-51 211q0 106 24 165t66.5 82t105.5 23v91h71v-93q68 -5 142 -30v-73q-20 4 -64 7.5t-101 3.5q-45 0 -70 -13.5t-37.5 -52t-12.5 -113.5q0 -71 12.5 -108.5t38.5 -51.5t71 -14q104 0 169 14v-74q-39 -17 -74.5 -25t-76.5 -9v-85h-70v85z" />
    <glyph glyph-name="colonmonetary" unicode="&#x20a1;" horiz-adv-x="609" 
d="M358 94q69 0 112.5 3.5t82.5 12.5v-84q-77 -32 -226 -32h-3l-36 -104h-59l37 107q-45 7 -74 20l-44 -127h-59l54 158q-45 40 -67.5 118.5t-22.5 207.5q0 149 36 231.5t99.5 113.5t157.5 31q26 0 38 -1l15 44h60l-17 -50q41 -7 74 -17l23 67h60zM189 181l161 469
q-68 -3 -107 -25.5t-58.5 -81.5t-19.5 -171q0 -132 24 -191zM300 98l186 542q-34 6 -77 9l-180 -524q29 -21 71 -27z" />
    <glyph glyph-name="currency" unicode="&#xa4;" horiz-adv-x="609" 
d="M450 263l89 -89l-53 -53l-89 89q-43 -27 -93 -27q-52 0 -92 28l-90 -90l-53 53l90 90q-27 43 -27 92t27 92l-90 90l53 53l90 -90q40 28 92 28q50 0 93 -27l89 89l53 -53l-89 -89q27 -43 27 -93t-27 -93zM230 280.5q31 -31.5 74 -31.5q44 0 76 31.5t32 75.5t-32 76t-76 32
q-43 0 -74 -32t-31 -76t31 -75.5z" />
    <glyph glyph-name="dollar" unicode="$" horiz-adv-x="609" 
d="M486.5 376.5q48.5 -50.5 48.5 -133.5v-47q0 -106 -54 -150.5t-156 -50.5v-84h-71v84q-51 2 -105.5 7.5t-90.5 13.5v97q90 -8 223 -8q67 0 101.5 19t34.5 69v35q0 39 -22 60t-65 21h-69q-105 0 -157.5 46t-52.5 149v38q0 99 52.5 148t155.5 54l-5 42l63 38l8 -62l-31 -18
q50 -1 106 -7.5t100 -15.5v-97q-135 9 -205 9q-63 0 -94.5 -20.5t-31.5 -75.5v-25q0 -45 24.5 -65t74.5 -20h77q93 0 141.5 -50.5z" />
    <glyph glyph-name="dong" unicode="&#x20ab;" horiz-adv-x="609" 
d="M590 710v-50h-63v-516h-103l-20 52q-26 -23 -71 -40.5t-86 -17.5q-98 0 -145 51.5t-47 165.5q0 83 19 132.5t63 72.5t120 23q70 0 147 -27v104h-125v50h125v73h123v-73h63zM404 467q-34 12 -57.5 17.5t-50.5 5.5q-43 0 -68 -11.5t-37 -39.5t-12 -78q0 -68 25 -95.5
t84 -27.5q56 0 116 35v194zM68 60h486v-101h-486v101z" />
    <glyph glyph-name="Euro" unicode="&#x20ac;" horiz-adv-x="609" 
d="M290.5 620.5q-32.5 -13.5 -51.5 -49t-26 -102.5l257 -6v-57l-261 -6v-30q0 -35 1 -51l260 -6v-58l-255 -6q7 -58 26 -89t51 -43t85 -12q114 0 200 11v-95q-91 -27 -227 -27q-80 0 -132 21t-84 76.5t-43 158.5l-73 6v57l68 5q-1 17 -1 54v29l-67 5v55l71 7q9 108 42 168.5
t87 84.5t135 24q60 0 120.5 -9.5t103.5 -22.5v-95q-30 6 -85.5 11t-113.5 5q-55 0 -87.5 -13.5z" />
    <glyph glyph-name="florin" unicode="&#x192;" horiz-adv-x="609" 
d="M61 -199q-28 5 -44 12l13 77h54q33 0 54.5 15.5t35.5 52t25 100.5l54 326h-88l13 88h86l24 129q17 98 59 148t124 50q68 0 108 -17l-12 -76h-54q-50 0 -72 -31t-35 -105l-18 -98h115l-14 -88h-112l-49 -296q-17 -103 -42 -166t-65 -94.5t-100 -31.5q-32 0 -60 5z" />
    <glyph glyph-name="franc" unicode="&#x20a3;" horiz-adv-x="609" 
d="M280.5 606q-18.5 -18 -18.5 -51v-109l235 -7v-97l-235 -7v-114l220 -7v-86l-220 -7v-121h-123v121l-80 7v86l80 7v362q0 82 46 118.5t111 36.5q112 0 247 -11v-103h-211q-33 0 -51.5 -18z" />
    <glyph glyph-name="uni20B2" unicode="&#x20b2;" horiz-adv-x="609" 
d="M575 409v-409h-80l-18 51q-56 -31 -118 -45v-98h-59v88q-11 -1 -32 -1q-89 0 -139.5 43t-70.5 123t-20 205t22 204t79.5 122t160.5 45v56h59v-57q95 -5 197 -29v-95q-86 11 -197 14v-514q54 7 104 24v273h112zM163.5 209.5q13.5 -54.5 45.5 -77t91 -23.5v516
q-61 -5 -93.5 -32t-44.5 -80.5t-12 -147.5q0 -101 13.5 -155.5z" />
    <glyph glyph-name="uni20AD" unicode="&#x20ad;" horiz-adv-x="609" 
d="M298 308h-97v-308h-124v308h-59v118h59v312h124v-312h96l151 312h130l-156 -312h141v-118h-139l159 -308h-130z" />
    <glyph glyph-name="lira" unicode="&#x20a4;" horiz-adv-x="609" 
d="M60 94l98 17v134l-97 4v56l97 6v65l-98 3v56l98 6v75q0 124 56 175t175 51q72 0 158 -12v-99h-152q-41 0 -65 -9.5t-36 -34t-12 -70.5v-76l194 -6v-56l-194 -3v-71l193 -5v-56l-193 -3v-130h272v-111h-494v94z" />
    <glyph glyph-name="uni20BA" unicode="&#x20ba;" horiz-adv-x="609" 
d="M578 356q0 -138 -43.5 -216.5t-121 -109t-189.5 -30.5h-124v285l-90 -46v65l90 46v89l-90 -46v65l90 46v234h124v-170l235 120v-65l-235 -120v-89l235 120v-65l-235 -120v-238q121 0 181 57t60 188h113z" />
    <glyph glyph-name="uni20BC" unicode="&#x20bc;" horiz-adv-x="609" 
d="M480 594.5q52 -89.5 72 -233.5t26 -361h-113l-10 264q-5 125 -31 213t-90 106v-503h-59v503q-65 -18 -90.5 -105.5t-30.5 -213.5l-10 -264h-112q5 217 25 361t72 233.5t146 101.5v93h59v-93q94 -12 146 -101.5z" />
    <glyph glyph-name="uni20A6" unicode="&#x20a6;" horiz-adv-x="609" 
d="M522 467v-191h57v-65h-57v-211h-83l-105 211h-146v-211h-101v211h-57v65h57v191h-57v65h57v211h83l105 -211h146v211h101v-211h57v-65h-57zM302 276l-114 230v-230h114zM421 467h-114l114 -230v230z" />
    <glyph glyph-name="peseta" unicode="&#x20a7;" horiz-adv-x="609" 
d="M599 421h-58q-14 -244 -196 -244q-34 0 -84.5 7t-59.5 8v-192h-124v421h-63v64h63v253h265q83 0 139 -52t61 -201h57v-64zM201 627v-142h215q-5 142 -86 142h-129zM416 421h-215v-132h125q80 0 90 132z" />
    <glyph glyph-name="uni20B1" unicode="&#x20b1;" horiz-adv-x="609" 
d="M599 524h-74q1 -10 1 -33q0 -39 -5 -77h78v-64h-95q-42 -113 -169 -113q-27 0 -93 11q-10 1 -17 2t-12 2v-252h-112v350h-91v64h91v110h-91v64h91v150h231q67 0 116.5 -31t68.5 -119h82v-64zM388 382q25 33 25 108q0 137 -93 137h-107v-278h103q47 0 72 33z" />
    <glyph glyph-name="uni20BD" unicode="&#x20bd;" horiz-adv-x="609" 
d="M261 273l-40 3v-104h264v-65h-264v-107h-118v107h-89v65h89v140h-89v64h89v362h242q91 0 147.5 -49.5t56.5 -184.5q0 -236 -205 -236q-16 0 -83 5zM221 376h104q57 0 81.5 31t24.5 96q0 67 -24.5 95.5t-81.5 28.5h-104v-251z" />
    <glyph glyph-name="uni20B9" unicode="&#x20b9;" horiz-adv-x="609" 
d="M404 674q44 -53 50 -147h125v-64h-125q-5 -94 -37.5 -136t-84.5 -60l141 -267h-134l-131 254l-154 3v103h177q87 0 98 103h-275v64h276q-5 56 -28.5 78t-62.5 22h-185v111h525v-64h-175z" />
    <glyph glyph-name="sterling" unicode="&#xa3;" horiz-adv-x="609" 
d="M60 94l98 17v211l-98 9v62l98 18v93q0 130 56 184t175 54q72 0 158 -12v-99h-152q-41 0 -65 -9.5t-36 -34t-12 -70.5v-106l194 -12v-68l-194 -9v-211h272v-111h-494v94z" />
    <glyph glyph-name="uni20A9" unicode="&#x20a9;" horiz-adv-x="609" 
d="M539 467l-16 -191h77v-65h-82l-17 -211h-108l-95 404l-85 -404h-109l-17 211h-82v65h76l-16 191h-60v65h55l-17 206h110l40 -487l82 352h55l79 -352l42 487h110l-17 -206h56v-65h-61z" />
    <glyph glyph-name="yen" unicode="&#xa5;" horiz-adv-x="609" 
d="M399 326h131v-65h-161l-13 -30v-39h174v-66h-174v-126h-124v126h-154v66h154v39l-13 30h-141v65h112l-184 412h128l162 -381l162 381h125z" />
    <glyph glyph-name="uni2219" unicode="&#x2219;" horiz-adv-x="609" 
d="M251.5 301.5q-6.5 6.5 -6.5 16.5v74q0 12 6 18.5t18 6.5h70q25 0 25 -25v-74q0 -23 -25 -23h-70q-11 0 -17.5 6.5z" />
    <glyph glyph-name="uni2215" unicode="&#x2215;" horiz-adv-x="609" 
d="M459 712h84l-394 -712h-84z" />
    <glyph glyph-name="plus" unicode="+" horiz-adv-x="609" 
d="M528 306h-174v-174h-100v174h-174v100h174v174h100v-174h174v-100z" />
    <glyph glyph-name="minus" unicode="&#x2212;" horiz-adv-x="609" 
d="M80 406h448v-100h-448v100z" />
    <glyph glyph-name="multiply" unicode="&#xd7;" horiz-adv-x="609" 
d="M304 427l-71 -71l-123 123l71 71zM375 356l-71 71l123 123l71 -71zM233 356l71 -71l-123 -123l-71 71zM375 356l123 -123l-71 -71l-123 123z" />
    <glyph glyph-name="divide" unicode="&#xf7;" horiz-adv-x="609" 
d="M251.5 507.5q-6.5 6.5 -6.5 16.5v68q0 12 6 18.5t18 6.5h70q25 0 25 -25v-68q0 -23 -25 -23h-70q-11 0 -17.5 6.5zM80 406h448v-100h-448v100zM251.5 101.5q-6.5 6.5 -6.5 16.5v68q0 12 6 18.5t18 6.5h70q25 0 25 -25v-68q0 -23 -25 -23h-70q-11 0 -17.5 6.5z" />
    <glyph glyph-name="equal" unicode="=" horiz-adv-x="609" 
d="M80 286h448v-100h-448v100zM80 526h448v-100h-448v100z" />
    <glyph glyph-name="notequal" unicode="&#x2260;" horiz-adv-x="609" 
d="M383 426l-74 -140h219v-100h-273l-57 -107h-84l57 107h-91v100h145l74 140h-219v100h273l57 107h84l-57 -107h91v-100h-145z" />
    <glyph glyph-name="greater" unicode="&#x3e;" horiz-adv-x="609" 
d="M98 267l295 84l-295 78v108l415 -132v-110l-415 -136v108z" />
    <glyph glyph-name="less" unicode="&#x3c;" horiz-adv-x="609" 
d="M96 295v110l415 132v-108l-295 -78l295 -84v-108z" />
    <glyph glyph-name="greaterequal" unicode="&#x2265;" horiz-adv-x="609" 
d="M98 346l295 72l-295 67v108l415 -121v-109l-415 -125v108zM80 156h448v-100h-448v100z" />
    <glyph glyph-name="lessequal" unicode="&#x2264;" horiz-adv-x="609" 
d="M97 363v109l415 121v-108l-295 -66l295 -73v-108zM81 156h448v-100h-448v100z" />
    <glyph glyph-name="plusminus" unicode="&#xb1;" horiz-adv-x="609" 
d="M80 206h448v-100h-448v100zM528 456h-174v-174h-100v174h-174v100h174v174h100v-174h174v-100z" />
    </font>
</defs>
</svg>
